<svg width="257" height="432" viewBox="0 0 257 432" fill="none" xmlns="http://www.w3.org/2000/svg">
<path d="M152.637 212.389C152.637 207.601 151.85 200 151.85 185.958C152.201 175.05 146.62 153.327 146.62 148.539C146.099 134.083 140.264 118.227 140.083 114.668C140.518 109.053 139.296 99.225 138.424 93.2774C135.022 80.395 124.841 72.7137 113.17 71.3818C101.5 70.0614 89.6475 60.0608 89.6475 57.9138C89.6475 56.6622 89.6475 52.7355 89.6475 49.6699L91.3182 48.6021C94.1753 46.7765 95.9428 43.7798 96.1002 40.519L96.3423 35.4326C101.5 33.3199 99.72 22.6879 96.9476 23.0553L97.0324 21.2182C97.0808 20.6556 97.1171 20.093 97.1171 19.5189C97.1171 8.73758 87.9042 0 76.5363 0C65.1684 0 55.9555 8.73758 55.9555 19.5189C55.9555 20.093 55.9919 20.6671 56.0403 21.2182L56.125 23.0553C53.3406 22.6879 51.573 33.3199 56.7303 35.4326L56.9725 40.519C57.1298 43.7798 58.9095 46.7765 61.7545 48.6021L63.4251 49.6699C63.4251 52.7355 63.4251 56.6622 63.4251 57.9138C63.4251 60.0608 51.5851 70.0614 39.9025 71.3818C28.232 72.7022 18.0385 80.3835 14.6487 93.2774C13.777 99.225 12.5543 109.053 12.9901 114.668C12.8206 118.216 6.98535 134.083 6.45268 148.539C6.45268 153.327 0.883766 175.05 1.22274 185.958C1.22274 200 0.435829 207.601 0.435829 212.389C0.435829 217.177 0 231.058 0 233.699C0 236.34 10.6294 251.048 13.4138 252.035C16.1983 253.023 12.4574 248.487 11.8521 246.007C11.2468 243.527 7.92965 233.366 8.63182 232.459C9.33399 231.552 9.93931 229.898 11.2468 232.62C12.5543 235.341 15.3387 240.794 17.082 240.553C18.8254 240.301 16.2104 232.952 16.2104 231.793C16.2104 230.633 15.8593 219.645 13.6802 215.431C13.7649 213.778 13.6802 212.791 13.6802 210.471C13.6802 208.163 18.9101 192.709 21.4282 186.762C23.9585 180.814 26.3071 165.038 26.8277 156.691C27.3482 148.344 29.9632 140.995 31.2707 137.275C32.5782 133.555 33.6193 130.34 34.491 130.088C36.6701 130.582 38.0502 161.398 38.3529 173.741C38.6556 186.096 32.9898 215.305 32.8324 233.331C32.675 251.358 36.8154 269.809 38.6556 280.131C40.4957 290.453 41.4158 305.414 41.4158 313.416C41.4158 321.408 37.7355 328.388 38.8129 341.615C39.8904 354.842 48.159 375.911 50.3019 385.946C52.4447 395.97 55.9676 409.346 55.3623 412.538C54.7449 415.73 44.7935 422.711 44.6361 425.616C44.4787 428.521 51.5367 428.67 54.7449 429.393C57.9652 430.116 68.074 434.192 70.2168 430.415C72.3596 426.637 70.8342 421.115 70.2168 418.348C69.5994 415.592 67.6139 385.935 67.6139 378.093C67.6139 370.239 69.4541 350.043 69.4541 343.648C69.4541 337.252 65.1685 319.088 66.2338 312.257C67.3113 305.425 69.7568 304.552 70.3742 297.434C70.9916 290.315 74.6598 227.671 76.5 225.352C78.3402 227.682 82.0205 290.315 82.6258 297.434C83.2432 304.552 85.6887 305.425 86.7662 312.257C87.8436 319.088 83.5459 337.252 83.5459 343.648C83.5459 350.043 85.386 370.239 85.386 378.093C85.386 385.946 83.3885 415.592 82.7832 418.348C82.1658 421.103 80.6404 426.626 82.7832 430.415C84.926 434.192 95.0469 430.128 98.2551 429.393C101.475 428.67 108.521 428.521 108.364 425.616C108.207 422.711 98.2551 415.73 97.6377 412.538C97.0203 409.346 100.543 395.97 102.698 385.946C104.841 375.923 113.122 354.842 114.187 341.615C115.265 328.388 111.584 321.419 111.584 313.416C111.584 305.425 112.504 290.453 114.344 280.131C116.185 269.809 120.325 251.358 120.168 233.331C120.01 215.305 114.344 186.096 114.647 173.741C114.95 161.387 116.33 130.582 118.509 130.088C119.381 130.34 120.422 133.555 121.729 137.275C123.037 140.995 125.652 148.344 126.172 156.691C126.693 165.038 129.042 180.814 131.572 186.762C134.102 192.709 139.32 208.152 139.32 210.471C139.32 212.779 139.235 213.778 139.32 215.431C137.141 219.645 136.79 230.633 136.79 231.793C136.79 232.952 134.175 240.301 135.918 240.553C137.661 240.806 140.446 235.352 141.753 232.62C143.061 229.898 143.666 231.54 144.368 232.459C145.07 233.366 141.753 243.527 141.148 246.007C140.543 248.487 136.79 253.034 139.586 252.035C142.371 251.048 153 236.34 153 233.699C153 231.058 152.637 217.177 152.637 212.389Z" fill="#AFE087"/>
<mask id="path-2-inside-1_31_611" fill="white">
<path d="M202 10H257V38H202V10Z"/>
</mask>
<path d="M257 37H202V39H257V37Z" fill="#87CEDD" mask="url(#path-2-inside-1_31_611)"/>
<mask id="path-4-inside-2_31_611" fill="white">
<path d="M202 69H257V97H202V69Z"/>
</mask>
<path d="M257 96H202V98H257V96Z" fill="#87CEDD" mask="url(#path-4-inside-2_31_611)"/>
<mask id="path-6-inside-3_31_611" fill="white">
<path d="M202 128H257V156H202V128Z"/>
</mask>
<path d="M257 155H202V157H257V155Z" fill="#87CEDD" mask="url(#path-6-inside-3_31_611)"/>
<mask id="path-8-inside-4_31_611" fill="white">
<path d="M202 187H257V215H202V187Z"/>
</mask>
<path d="M257 214H202V216H257V214Z" fill="#87CEDD" mask="url(#path-8-inside-4_31_611)"/>
<mask id="path-10-inside-5_31_611" fill="white">
<path d="M202 246H257V274H202V246Z"/>
</mask>
<path d="M257 273H202V275H257V273Z" fill="#87CEDD" mask="url(#path-10-inside-5_31_611)"/>
<mask id="path-12-inside-6_31_611" fill="white">
<path d="M202 305H257V333H202V305Z"/>
</mask>
<path d="M257 332H202V334H257V332Z" fill="#87CEDD" mask="url(#path-12-inside-6_31_611)"/>
<mask id="path-14-inside-7_31_611" fill="white">
<path d="M202 364H257V392H202V364Z"/>
</mask>
<path d="M257 391H202V393H257V391Z" fill="#87CEDD" mask="url(#path-14-inside-7_31_611)"/>
<path d="M152.637 212.389C152.637 207.601 151.85 200 151.85 185.958C152.201 175.05 146.62 153.327 146.62 148.539C146.099 134.083 140.264 118.227 140.083 114.668C140.518 109.053 139.296 99.225 138.424 93.2774C135.022 80.395 124.841 72.7137 113.17 71.3818C101.5 70.0614 89.6475 60.0608 89.6475 57.9138C89.6475 56.6622 89.6475 52.7355 89.6475 49.6699L91.3182 48.6021C94.1753 46.7765 95.9428 43.7798 96.1002 40.519L96.3423 35.4326C101.5 33.3199 99.72 22.6879 96.9476 23.0553L97.0324 21.2182C97.0808 20.6556 97.1171 20.093 97.1171 19.5189C97.1171 8.73758 87.9042 0 76.5363 0C65.1684 0 55.9555 8.73758 55.9555 19.5189C55.9555 20.093 55.9919 20.6671 56.0403 21.2182L56.125 23.0553C53.3406 22.6879 51.573 33.3199 56.7303 35.4326L56.9725 40.519C57.1298 43.7798 58.9095 46.7765 61.7545 48.6021L63.4251 49.6699C63.4251 52.7355 63.4251 56.6622 63.4251 57.9138C63.4251 60.0608 51.5851 70.0614 39.9025 71.3818C28.232 72.7022 18.0385 80.3835 14.6487 93.2774C13.777 99.225 12.5543 109.053 12.9901 114.668C12.8206 118.216 6.98535 134.083 6.45268 148.539C6.45268 153.327 0.883766 175.05 1.22274 185.958C1.22274 200 0.435829 207.601 0.435829 212.389C0.435829 217.177 0 231.058 0 233.699C0 236.34 10.6294 251.048 13.4138 252.035C16.1983 253.023 12.4574 248.487 11.8521 246.007C11.2468 243.527 7.92965 233.366 8.63182 232.459C9.33399 231.552 9.93931 229.898 11.2468 232.62C12.5543 235.341 15.3387 240.794 17.082 240.553C18.8254 240.301 16.2104 232.952 16.2104 231.793C16.2104 230.633 15.8593 219.645 13.6802 215.431C13.7649 213.778 13.6802 212.791 13.6802 210.471C13.6802 208.163 18.9101 192.709 21.4282 186.762C23.9585 180.814 26.3071 165.038 26.8277 156.691C27.3482 148.344 29.9632 140.995 31.2707 137.275C32.5782 133.555 33.6193 130.34 34.491 130.088C36.6701 130.582 38.0502 161.398 38.3529 173.741C38.6556 186.096 32.9898 215.305 32.8324 233.331C32.675 251.358 36.8154 269.809 38.6556 280.131C40.4957 290.453 41.4158 305.414 41.4158 313.416C41.4158 321.408 37.7355 328.388 38.8129 341.615C39.8904 354.842 48.159 375.911 50.3019 385.946C52.4447 395.97 55.9676 409.346 55.3623 412.538C54.7449 415.73 44.7935 422.711 44.6361 425.616C44.4787 428.521 51.5367 428.67 54.7449 429.393C57.9652 430.116 68.074 434.192 70.2168 430.415C72.3596 426.637 70.8342 421.115 70.2168 418.348C69.5994 415.592 67.6139 385.935 67.6139 378.093C67.6139 370.239 69.4541 350.043 69.4541 343.648C69.4541 337.252 65.1685 319.088 66.2338 312.257C67.3113 305.425 69.7568 304.552 70.3742 297.434C70.9916 290.315 74.6598 227.671 76.5 225.352C78.3402 227.682 82.0205 290.315 82.6258 297.434C83.2432 304.552 85.6887 305.425 86.7662 312.257C87.8436 319.088 83.5459 337.252 83.5459 343.648C83.5459 350.043 85.386 370.239 85.386 378.093C85.386 385.946 83.3885 415.592 82.7832 418.348C82.1658 421.103 80.6404 426.626 82.7832 430.415C84.926 434.192 95.0469 430.128 98.2551 429.393C101.475 428.67 108.521 428.521 108.364 425.616C108.207 422.711 98.2551 415.73 97.6377 412.538C97.0203 409.346 100.543 395.97 102.698 385.946C104.841 375.923 113.122 354.842 114.187 341.615C115.265 328.388 111.584 321.419 111.584 313.416C111.584 305.425 112.504 290.453 114.344 280.131C116.185 269.809 120.325 251.358 120.168 233.331C120.01 215.305 114.344 186.096 114.647 173.741C114.95 161.387 116.33 130.582 118.509 130.088C119.381 130.34 120.422 133.555 121.729 137.275C123.037 140.995 125.652 148.344 126.172 156.691C126.693 165.038 129.042 180.814 131.572 186.762C134.102 192.709 139.32 208.152 139.32 210.471C139.32 212.779 139.235 213.778 139.32 215.431C137.141 219.645 136.79 230.633 136.79 231.793C136.79 232.952 134.175 240.301 135.918 240.553C137.661 240.806 140.446 235.352 141.753 232.62C143.061 229.898 143.666 231.54 144.368 232.459C145.07 233.366 141.753 243.527 141.148 246.007C140.543 248.487 136.79 253.034 139.586 252.035C142.371 251.048 153 236.34 153 233.699C153 231.058 152.637 217.177 152.637 212.389Z" fill="#AFE087"/>
<mask id="path-17-inside-8_31_611" fill="white">
<path d="M202 10H257V38H202V10Z"/>
</mask>
<path d="M257 37H202V39H257V37Z" fill="#87CEDD" mask="url(#path-17-inside-8_31_611)"/>
<mask id="path-19-inside-9_31_611" fill="white">
<path d="M202 69H257V97H202V69Z"/>
</mask>
<path d="M257 96H202V98H257V96Z" fill="#87CEDD" mask="url(#path-19-inside-9_31_611)"/>
<mask id="path-21-inside-10_31_611" fill="white">
<path d="M202 128H257V156H202V128Z"/>
</mask>
<path d="M257 155H202V157H257V155Z" fill="#87CEDD" mask="url(#path-21-inside-10_31_611)"/>
<mask id="path-23-inside-11_31_611" fill="white">
<path d="M202 187H257V215H202V187Z"/>
</mask>
<path d="M257 214H202V216H257V214Z" fill="#87CEDD" mask="url(#path-23-inside-11_31_611)"/>
<mask id="path-25-inside-12_31_611" fill="white">
<path d="M202 246H257V274H202V246Z"/>
</mask>
<path d="M257 273H202V275H257V273Z" fill="#87CEDD" mask="url(#path-25-inside-12_31_611)"/>
<mask id="path-27-inside-13_31_611" fill="white">
<path d="M202 305H257V333H202V305Z"/>
</mask>
<path d="M257 332H202V334H257V332Z" fill="#87CEDD" mask="url(#path-27-inside-13_31_611)"/>
<mask id="path-29-inside-14_31_611" fill="white">
<path d="M202 364H257V392H202V364Z"/>
</mask>
<path d="M257 391H202V393H257V391Z" fill="#87CEDD" mask="url(#path-29-inside-14_31_611)"/>
<path d="M35 131L39.5467 134.558L40.3548 128.842L35 131ZM118 131L112.667 128.789L113.419 134.514L118 131ZM39.3875 132.125C55.4689 134.379 65.3257 135.507 75.5165 135.5C85.7052 135.493 96.2136 134.351 113.598 132.083L113.469 131.091C96.0811 133.359 85.6319 134.493 75.5158 134.5C65.4019 134.507 55.6066 133.389 39.5263 131.135L39.3875 132.125Z" fill="#87CEDD"/>
<path d="M64 57L68.2495 60.9084L69.5095 55.274L64 57ZM89 57L83.4905 55.274L84.7505 60.9084L89 57ZM68.2901 58.4717C71.5664 59.1533 74.0276 59.5 76.5 59.5C78.9724 59.5 81.4335 59.1533 84.7099 58.4717L84.5062 57.4927C81.2591 58.1682 78.8739 58.5 76.5 58.5C74.1261 58.5 71.7409 58.1682 68.4938 57.4927L68.2901 58.4717Z" fill="#87CEDD"/>
<path d="M124 145L128.141 149.023L129.555 143.425L124 145ZM146 145.083L140.442 143.521L141.868 149.116L146 145.083ZM128.253 146.59C133.509 147.775 136.749 147.8 141.749 146.683L141.531 145.707C136.683 146.79 133.592 146.769 128.473 145.614L128.253 146.59Z" fill="#87CEDD"/>
<path d="M39 177L43.5138 180.6L44.3745 174.891L39 177ZM114 177L108.644 174.843L109.454 180.56L114 177ZM43.3802 178.166C58.2291 180.391 66.8458 181.507 75.7273 181.5C84.6067 181.493 93.7369 180.365 109.613 178.127L109.474 177.136C93.5876 179.376 84.5252 180.493 75.7266 180.5C66.9302 180.507 58.3836 179.403 43.5284 177.177L43.3802 178.166Z" fill="#87CEDD"/>
<path d="M34 219L38.5462 222.559L39.3552 216.842L34 219ZM119 219L113.666 216.79L114.419 222.514L119 219ZM38.3829 220.125C54.4927 222.379 64.843 223.507 75.5251 223.5C86.2052 223.493 97.2019 222.351 114.605 220.083L114.475 219.091C97.0746 221.359 86.134 222.493 75.5244 222.5C64.9167 222.507 54.6248 221.388 38.5215 219.135L38.3829 220.125Z" fill="#87CEDD"/>
<path d="M80 258.956L83.8648 263.245L85.6469 257.754L80 258.956ZM117 261L111.456 259.387L112.832 264.995L117 261ZM84.134 260.823C95.0763 264.186 102.463 264.797 112.735 262.561L112.523 261.584C102.448 263.777 95.2379 263.189 84.4277 259.867L84.134 260.823Z" fill="#87CEDD"/>
<path d="M84 343L88.3233 346.827L89.4755 341.169L84 343ZM114 343L108.499 341.247L109.732 346.888L114 343ZM88.3194 344.39C96.3203 345.848 102.273 345.871 109.696 344.452L109.509 343.47C102.216 344.863 96.3882 344.844 88.4987 343.406L88.3194 344.39Z" fill="#87CEDD"/>
<path d="M89.9582 56.7535C89.8221 56.7766 89.7304 56.9057 89.7535 57.0418C89.7766 57.1779 89.9057 57.2696 90.0418 57.2465L89.9582 56.7535ZM200.667 38C200.667 38.7364 201.264 39.3333 202 39.3333C202.736 39.3333 203.333 38.7364 203.333 38C203.333 37.2636 202.736 36.6667 202 36.6667C201.264 36.6667 200.667 37.2636 200.667 38ZM90.0418 57.2465L202.042 38.2465L201.958 37.7535L89.9582 56.7535L90.0418 57.2465Z" fill="#87CEDD"/>
<path d="M146.048 144.755C145.913 144.728 145.781 144.816 145.755 144.952C145.728 145.087 145.816 145.219 145.952 145.245L146.048 144.755ZM200.667 156C200.667 156.736 201.264 157.333 202 157.333C202.736 157.333 203.333 156.736 203.333 156C203.333 155.264 202.736 154.667 202 154.667C201.264 154.667 200.667 155.264 200.667 156ZM145.952 145.245L201.952 156.245L202.048 155.755L146.048 144.755L145.952 145.245Z" fill="#87CEDD"/>
<path d="M114.099 176.77C113.972 176.716 113.825 176.774 113.77 176.901C113.716 177.028 113.774 177.175 113.901 177.23L114.099 176.77ZM200.667 215C200.667 215.736 201.264 216.333 202 216.333C202.736 216.333 203.333 215.736 203.333 215C203.333 214.264 202.736 213.667 202 213.667C201.264 213.667 200.667 214.264 200.667 215ZM113.901 177.23L201.901 215.23L202.099 214.77L114.099 176.77L113.901 177.23Z" fill="#87CEDD"/>
<path d="M119.138 218.792C119.023 218.715 118.868 218.747 118.792 218.862C118.715 218.977 118.747 219.132 118.862 219.208L119.138 218.792ZM200.667 274C200.667 274.736 201.264 275.333 202 275.333C202.736 275.333 203.333 274.736 203.333 274C203.333 273.264 202.736 272.667 202 272.667C201.264 272.667 200.667 273.264 200.667 274ZM118.862 219.208L201.862 274.208L202.138 273.792L119.138 218.792L118.862 219.208Z" fill="#87CEDD"/>
<path d="M117.162 260.809C117.056 260.72 116.898 260.733 116.809 260.838C116.72 260.944 116.733 261.102 116.838 261.191L117.162 260.809ZM200.667 333C200.667 333.736 201.264 334.333 202 334.333C202.736 334.333 203.333 333.736 203.333 333C203.333 332.264 202.736 331.667 202 331.667C201.264 331.667 200.667 332.264 200.667 333ZM116.838 261.191L201.838 333.191L202.162 332.809L117.162 260.809L116.838 261.191Z" fill="#87CEDD"/>
<path d="M114.122 342.782C114.001 342.714 113.849 342.758 113.782 342.878C113.714 342.999 113.758 343.151 113.878 343.218L114.122 342.782ZM200.667 392C200.667 392.736 201.264 393.333 202 393.333C202.736 393.333 203.333 392.736 203.333 392C203.333 391.264 202.736 390.667 202 390.667C201.264 390.667 200.667 391.264 200.667 392ZM113.878 343.218L201.878 392.218L202.122 391.782L114.122 342.782L113.878 343.218Z" fill="#87CEDD"/>
<path d="M117.906 130.768C117.778 130.82 117.716 130.966 117.768 131.094C117.82 131.222 117.966 131.284 118.094 131.232L117.906 130.768ZM200.667 97C200.667 97.7364 201.264 98.3333 202 98.3333C202.736 98.3333 203.333 97.7364 203.333 97C203.333 96.2636 202.736 95.6667 202 95.6667C201.264 95.6667 200.667 96.2636 200.667 97ZM118.094 131.232L202.094 97.2317L201.906 96.7683L117.906 130.768L118.094 131.232Z" fill="#87CEDD"/>
</svg>
