<svg width="24" height="24" viewBox="0 0 24 24" fill="none" xmlns="http://www.w3.org/2000/svg">
<path d="M2 9.3175C2 13.0468 6.01943 16.991 8.96173 19.3786C10.2937 20.4595 10.9597 21 12 21C13.0403 21 13.7063 20.4596 15.0383 19.3787C17.9806 16.991 22 13.0468 22 9.31747C22 3.08748 16.4998 0.761498 12 5.57412C7.50016 0.761498 2 3.08748 2 9.3175Z" fill="#F15452"/>
<path d="M8.96173 19.3786L8.48914 19.961L8.96173 19.3786ZM12 5.57412L11.4522 6.08635C11.594 6.23803 11.7923 6.32412 12 6.32412C12.2077 6.32412 12.406 6.23803 12.5478 6.08635L12 5.57412ZM15.0383 19.3787L15.5109 19.961L15.0383 19.3787ZM12 21L12 20.25L12 21ZM9.43432 18.7963C7.98445 17.6197 6.29166 16.077 4.96771 14.3884C3.62931 12.6814 2.75 10.9289 2.75 9.3175H1.25C1.25 11.4354 2.38041 13.5196 3.78729 15.3139C5.20863 17.1267 6.99671 18.7499 8.48914 19.961L9.43432 18.7963ZM2.75 9.3175C2.75 6.41289 4.01766 4.61731 5.58602 4.00319C7.15092 3.39043 9.34039 3.82778 11.4522 6.08635L12.5478 5.06189C10.1598 2.50784 7.34924 1.70187 5.0391 2.60645C2.73242 3.50967 1.25 5.99209 1.25 9.3175H2.75ZM15.5109 19.961C17.0033 18.7499 18.7914 17.1268 20.2127 15.314C21.6196 13.5196 22.75 11.4354 22.75 9.31747H21.25C21.25 10.9289 20.3707 12.6814 19.0323 14.3884C17.7084 16.077 16.0156 17.6197 14.5657 18.7963L15.5109 19.961ZM22.75 9.31747C22.75 5.99208 21.2676 3.50966 18.9609 2.60645C16.6508 1.70187 13.8402 2.50784 11.4522 5.06189L12.5478 6.08635C14.6596 3.82778 16.8491 3.39042 18.414 4.00319C19.9823 4.6173 21.25 6.41287 21.25 9.31747H22.75ZM8.48914 19.961C9.76058 20.9928 10.6423 21.75 12 21.75L12 20.25C11.2771 20.25 10.8269 19.9263 9.43432 18.7963L8.48914 19.961ZM14.5657 18.7963C13.1731 19.9263 12.7229 20.25 12 20.25L12 21.75C13.3577 21.75 14.2394 20.9928 15.5109 19.961L14.5657 18.7963Z" fill="#F15452"/>
</svg>
