<svg width="36" height="36" viewBox="0 0 36 36" fill="none" xmlns="http://www.w3.org/2000/svg">
<rect width="36" height="36" rx="18" fill="#AFE087"/>
<path d="M26.7188 17.2934L8.22833 22.7442L8.74367 19.8146L27.1406 14.2202L26.7188 17.2934Z" fill="#E6C187"/>
<path d="M26.9962 19.8705L16.098 24.6369L17.1334 27.6485L27.4164 23.0108C27.8509 22.8206 27.4307 19.6803 26.9962 19.8705Z" fill="#E6C187"/>
<path d="M15.5097 24.8942C15.0768 25.0844 14.8548 25.6494 15.0166 26.1604L15.3955 27.3576C15.5573 27.8685 16.0393 28.1277 16.4722 27.9375L17.1334 27.6485L16.098 24.6368L15.5097 24.8942Z" fill="#451613"/>
<path d="M18.1007 12.5568C18.1134 12.5568 18.1276 12.5587 18.1403 12.5587C18.2069 12.5587 18.2767 12.5493 18.3496 12.5344C18.3131 12.3144 18.1926 11.4416 18.3686 10.4067C18.2434 10.2799 18.1308 10.1419 18.0357 9.99271C17.9833 9.91252 17.9897 9.80063 18.0531 9.7279C18.2529 9.49294 18.486 9.3046 18.7333 9.15169C18.8126 8.96521 18.9062 8.77872 19.014 8.59784C19.1203 8.41882 19.0759 8.18013 18.9125 8.06264C18.7492 7.94703 18.532 7.99552 18.4257 8.17454C17.4172 9.86404 17.5362 11.7643 17.6281 12.4729C17.7867 12.5251 17.931 12.5587 18.0626 12.5587C18.0753 12.5587 18.088 12.5568 18.1007 12.5568Z" fill="#794629"/>
<path d="M24.3529 14.0636C23.6235 12.665 22.3154 11.7792 20.8978 11.755C19.9274 11.7364 19.0045 12.3984 18.3496 12.5326C18.2767 12.5475 18.2053 12.5569 18.1403 12.5569C18.1276 12.5569 18.1149 12.555 18.1007 12.555C18.088 12.555 18.0737 12.5569 18.061 12.5569C17.9294 12.5569 17.7851 12.5233 17.6265 12.4711C16.9923 12.2622 16.1677 11.7364 15.3036 11.755C13.886 11.7774 12.5794 12.6631 11.8484 14.0636C10.3737 16.8813 11.471 21.0566 12.906 23.3409C13.6085 24.458 14.4441 25.7167 15.543 25.6701C16.2153 25.6402 16.6228 25.3437 17.1604 25.1312C17.4268 25.0267 17.7233 24.9409 18.1007 24.9204C18.6683 24.9521 19.0552 25.1274 19.4263 25.3008C19.7989 25.4743 20.1541 25.6477 20.6583 25.6701C21.7572 25.7148 22.5944 24.458 23.2953 23.3409C24.7319 21.0566 25.8276 16.8813 24.3529 14.0636Z" fill="#EA563B"/>
<path d="M18.0357 9.99264C18.1308 10.1418 18.2434 10.2798 18.3687 10.4066C18.5399 10.58 18.7366 10.7311 18.9617 10.8598C19.439 11.1339 20.0067 11.2868 20.5601 11.2849C21.5717 11.2831 22.5533 10.856 23.1859 10.1437C23.2557 10.0635 23.2589 9.93855 23.1907 9.8565C22.9719 9.58983 22.6738 9.34369 22.3281 9.14416C21.7921 8.83647 21.1896 8.66117 20.6346 8.65185C20.0701 8.6388 19.3518 8.77493 18.7334 9.15161C18.4844 9.30266 18.2513 9.49286 18.0531 9.72783C17.9897 9.80055 17.9834 9.91059 18.0357 9.99264Z" fill="#959738"/>
<path d="M13.1344 14.0487C12.6729 14.0487 12.2971 14.4907 12.2971 15.0333V16.3107C12.2971 16.8553 12.6729 17.2953 13.1344 17.2953H13.8447V14.0469H13.1344V14.0487Z" fill="#451613"/>
<path d="M26.6681 14.0487H13.8448V17.2972H26.6681C27.1311 17.2972 27.5053 16.8571 27.5053 16.3126V15.0352C27.5053 14.4888 27.1295 14.0487 26.6681 14.0487Z" fill="#FFD594"/>
<path d="M28 22.071C28 22.6155 27.6242 23.0556 27.1612 23.0556H8.83723C8.3758 23.0556 8 22.6155 8 22.071V20.7936C8 20.2491 8.3758 19.809 8.83723 19.809H27.1612C27.6242 19.809 28 20.2491 28 20.7936V22.071Z" fill="#FFD594"/>
<path d="M16.0488 14.0487V16.0795C16.0488 16.2175 16.144 16.3293 16.2613 16.3293C16.3786 16.3293 16.4738 16.2175 16.4738 16.0795V14.0487H16.0488Z" fill="#451613"/>
<path d="M18.9506 14.0487V16.0795C18.9506 16.2175 19.0458 16.3293 19.1631 16.3293C19.2804 16.3293 19.3756 16.2175 19.3756 16.0795V14.0487H18.9506Z" fill="#451613"/>
<path d="M17.506 14.0487V15.1228C17.506 15.2384 17.5853 15.3335 17.6852 15.3335C17.7835 15.3335 17.8628 15.2403 17.8628 15.1228V14.0487H17.506Z" fill="#451613"/>
<path d="M20.4713 14.0487V15.1228C20.4713 15.2384 20.5505 15.3335 20.6488 15.3335C20.7472 15.3335 20.828 15.2403 20.828 15.1228V14.0487H20.4713Z" fill="#451613"/>
<path d="M23.4492 14.0487V15.1228C23.4492 15.2384 23.5284 15.3335 23.6283 15.3335C23.7266 15.3335 23.8059 15.2403 23.8059 15.1228V14.0487H23.4492Z" fill="#451613"/>
<path d="M18.1007 19.809V20.8812C18.1007 20.9968 18.18 21.0919 18.2799 21.0919C18.3782 21.0919 18.4591 20.9968 18.4591 20.8812V19.809H18.1007Z" fill="#451613"/>
<path d="M21.0659 19.809V20.8812C21.0659 20.9968 21.1452 21.0919 21.2451 21.0919C21.3434 21.0919 21.4227 20.9968 21.4227 20.8812V19.809H21.0659Z" fill="#451613"/>
<path d="M24.0438 19.809V20.8812C24.0438 20.9968 24.123 21.0919 24.2229 21.0919C24.3213 21.0919 24.4005 20.9968 24.4005 20.8812V19.809H24.0438Z" fill="#451613"/>
<path d="M15.2401 19.809V20.8812C15.2401 20.9968 15.3194 21.0919 15.4193 21.0919C15.5176 21.0919 15.5985 20.9968 15.5985 20.8812V19.809H15.2401Z" fill="#451613"/>
<path d="M12.3654 19.809V20.8812C12.3654 20.9968 12.4446 21.0919 12.5445 21.0919C12.6428 21.0919 12.7221 20.9968 12.7221 20.8812V19.809H12.3654Z" fill="#451613"/>
<path d="M21.8524 14.0487V16.0795C21.8524 16.2175 21.9475 16.3293 22.0648 16.3293C22.1822 16.3293 22.2773 16.2175 22.2773 16.0795V14.0487H21.8524Z" fill="#451613"/>
<path d="M24.7526 14.0487V16.0795C24.7526 16.2175 24.8477 16.3293 24.965 16.3293C25.0824 16.3293 25.1775 16.2175 25.1775 16.0795V14.0487H24.7526Z" fill="#451613"/>
<path d="M10.8716 19.809V21.8397C10.8716 21.9777 10.9668 22.0896 11.0841 22.0896C11.2015 22.0896 11.2966 21.9777 11.2966 21.8397V19.809H10.8716Z" fill="#451613"/>
<path d="M13.7719 19.809V21.8397C13.7719 21.9777 13.867 22.0896 13.9843 22.0896C14.1017 22.0896 14.1968 21.9777 14.1968 21.8397V19.809H13.7719Z" fill="#451613"/>
<path d="M16.6736 19.809V21.8397C16.6736 21.9777 16.7687 22.0896 16.8861 22.0896C17.0034 22.0896 17.0985 21.9777 17.0985 21.8397V19.809H16.6736Z" fill="#451613"/>
<path d="M19.5754 19.809V21.8397C19.5754 21.9777 19.6705 22.0896 19.7879 22.0896C19.9052 22.0896 20.0003 21.9777 20.0003 21.8397V19.809H19.5754Z" fill="#451613"/>
<path d="M22.4771 19.809V21.8397C22.4771 21.9777 22.5723 22.0896 22.6896 22.0896C22.8069 22.0896 22.9021 21.9777 22.9021 21.8397V19.809H22.4771Z" fill="#451613"/>
<path d="M25.3789 19.809V21.8397C25.3789 21.9777 25.4741 22.0896 25.5914 22.0896C25.7087 22.0896 25.8039 21.9777 25.8039 21.8397V19.809H25.3789Z" fill="#451613"/>
</svg>
