<svg width="36" height="36" viewBox="0 0 36 36" fill="none" xmlns="http://www.w3.org/2000/svg">
<rect width="36" height="36" rx="18" fill="#AFE087"/>
<path d="M23.7092 19.6773C23.1976 18.6161 21.8603 15.9394 21.8603 14.4558C21.8603 12.3994 22.5619 10.856 22.5619 10.856L18.0929 10.3944L18.0018 10.4047L17.9088 10.3944L13.4398 10.856C13.4398 10.856 14.1414 12.3994 14.1414 14.4558C14.1414 15.9394 12.8061 18.6182 12.2925 19.6773C11.7789 20.7365 11.7344 21.5051 11.7344 23.0155C11.7344 24.2951 11.7809 25.4181 11.7809 28H17.1704C17.1704 28 17.3545 26.0404 17.3545 25.2574C17.3545 25.039 17.6956 24.9442 17.9999 24.9668C18.3022 24.9421 18.6433 25.039 18.6433 25.2574C18.6433 26.0404 18.8274 28 18.8274 28H24.2169C24.2169 25.4181 24.2634 24.2951 24.2634 23.0155C24.2673 21.503 24.2208 20.7365 23.7092 19.6773Z" fill="#FFD594"/>
<path d="M23.2443 8.5646C23.0117 8.21018 23.0001 8 21.7288 8C21.2249 8 19.6823 8 18.002 8C16.3237 8 14.7792 8 14.2753 8C13.004 8 12.9924 8.21018 12.7598 8.5646C12.4032 9.10653 12.442 10.6643 13.0253 11.1795C15.3664 13.2421 17.0137 10.5489 18.002 10.4645C18.9904 10.5469 20.6377 13.2421 22.9788 11.1795C23.5621 10.6643 23.5989 9.10653 23.2443 8.5646Z" fill="#EA444E"/>
<path d="M23.5522 19.0509C23.1724 19.3105 21.8759 20.483 18.0929 20.483C18.0619 20.483 18.0328 20.481 18.0018 20.481C17.9708 20.481 17.9417 20.483 17.9088 20.483C14.1259 20.483 12.8313 19.3085 12.4495 19.0509C12.0697 18.7913 11.1026 21.7503 11.5348 21.9522C11.901 22.1232 16.465 25.653 17.9088 25.653C17.9379 25.653 17.9689 25.6489 18.0018 25.6468C18.0328 25.6489 18.0658 25.653 18.0929 25.653C19.5386 25.653 24.1007 22.1232 24.4669 21.9522C24.9011 21.7503 23.934 18.7913 23.5522 19.0509Z" fill="#EA444E"/>
<path d="M12.5271 14.9009C12.5446 14.8494 12.5543 14.7958 12.5581 14.7381C12.5581 14.7319 12.5601 14.7237 12.5601 14.7175C12.5601 14.7134 12.562 14.7113 12.562 14.7072C12.562 14.6515 12.5523 14.598 12.5388 14.5465C12.5368 14.5362 12.5329 14.5259 12.5291 14.5156C12.5116 14.4599 12.4845 14.4063 12.4535 14.359C12.4515 14.3548 12.4515 14.3528 12.4477 14.3486L11.2035 12.6239C11.0174 12.3664 10.6705 12.319 10.4283 12.5147C10.186 12.7125 10.1395 13.0814 10.3256 13.339L10.8895 14.1199H8.55233C8.24612 14.1199 8 14.3837 8 14.7072C8 15.0307 8.24806 15.2945 8.55233 15.2945H10.8062L10.345 15.8673C10.1453 16.1146 10.1725 16.4855 10.405 16.6957C10.5097 16.7904 10.6376 16.8378 10.7655 16.8378C10.9205 16.8378 11.0756 16.7678 11.186 16.6318L12.4302 15.0884C12.4341 15.0843 12.436 15.0781 12.438 15.074C12.4729 15.0286 12.5019 14.9771 12.5233 14.9215C12.5233 14.9153 12.5252 14.9091 12.5271 14.9009Z" fill="#451613"/>
<path d="M23.4768 14.9009C23.4593 14.8494 23.4496 14.7958 23.4458 14.7381C23.4458 14.7319 23.4438 14.7237 23.4438 14.7175C23.4438 14.7134 23.4419 14.7113 23.4419 14.7072C23.4419 14.6515 23.4516 14.598 23.4652 14.5464C23.4671 14.5361 23.471 14.5258 23.4748 14.5155C23.4923 14.4599 23.5194 14.4063 23.5504 14.3589C23.5524 14.3548 23.5524 14.3528 23.5543 14.3486L24.7985 12.6219C24.9845 12.3643 25.3314 12.3169 25.5737 12.5127C25.8159 12.7105 25.8624 13.0793 25.6764 13.3369L25.1124 14.1178H27.4477C27.7539 14.1178 28 14.3816 28 14.7051C28 15.0286 27.752 15.2924 27.4477 15.2924H25.1938L25.6551 15.8652C25.8547 16.1125 25.8276 16.4834 25.595 16.6936C25.4903 16.7884 25.3624 16.8358 25.2345 16.8358C25.0795 16.8358 24.9245 16.7657 24.814 16.6297L23.5698 15.0863C23.5659 15.0822 23.5659 15.076 23.5621 15.0719C23.5272 15.0266 23.4981 14.9751 23.4768 14.9194C23.4807 14.9153 23.4787 14.9091 23.4768 14.9009Z" fill="#451613"/>
</svg>
