<svg width="36" height="36" viewBox="0 0 36 36" fill="none" xmlns="http://www.w3.org/2000/svg">
<rect width="36" height="36" rx="18" fill="#87CEDD"/>
<path d="M28 28H8" stroke="#202020" stroke-linecap="round"/>
<path d="M27 28V20.5C27 19.6716 26.3284 19 25.5 19H22.5C21.6716 19 21 19.6716 21 20.5V28" stroke="#202020"/>
<path d="M21 28V11C21 9.58579 21 8.87868 20.5607 8.43934C20.1213 8 19.4142 8 18 8C16.5858 8 15.8787 8 15.4393 8.43934C15 8.87868 15 9.58579 15 11V28" stroke="#202020"/>
<path d="M15 28V15.5C15 14.6716 14.3284 14 13.5 14H10.5C9.67157 14 9 14.6716 9 15.5V28" stroke="#202020"/>
</svg>
