<svg width="70" height="50" viewBox="0 0 70 50" fill="none" xmlns="http://www.w3.org/2000/svg">
<path d="M64.3686 0.757567C64.3686 0.799191 63.8284 0.84081 62.7888 0.882435C61.7493 0.924059 60.2187 0.965696 58.2297 0.998995C57.5667 1.00732 56.8546 1.02396 56.1015 1.04061C55.3403 1.06558 54.5381 1.09057 53.6787 1.07392C52.8274 0.957368 51.927 1.29034 50.9776 1.1072C50.0281 1.05725 49.0377 1.09888 48.0063 1.1405C46.975 1.18213 45.8945 1.06559 44.7813 1.17381C43.66 1.39858 42.5059 0.924071 41.3026 1.20712C40.1076 1.26539 38.8634 1.24872 37.5865 1.2404C36.3096 1.06558 34.9918 1.2404 33.6413 1.26537C32.2907 1.05725 30.8992 1.14882 29.4832 1.29035C28.0589 1.0073 26.602 1.04892 25.1122 1.31532C23.6225 1.32364 22.1001 1.21545 20.5449 1.34032C18.9897 1.35697 17.41 1.41524 15.7893 1.36529C14.1768 1.55676 12.5316 1.54843 10.8618 1.38193C10.0269 1.48183 9.18384 1.51513 8.33257 1.5068C7.90694 1.5068 7.48131 1.49014 7.05568 1.47349C6.84287 1.46517 6.63004 1.44854 6.40904 1.44021L6.08981 1.42355H6.04889C6.03252 1.42355 6.01615 1.42355 6.02434 1.42355L6.00797 1.41524L5.97523 1.40691C5.9343 1.39026 5.87701 1.39026 5.8279 1.38193C5.8279 1.42356 5.81971 1.47349 5.8279 1.52344V1.55675V1.57341V1.63167L5.83607 1.93138C5.85244 2.32265 5.86881 2.72223 5.88518 3.12183C5.91792 3.92102 5.93429 4.72022 5.86062 5.52773C5.85244 7.33423 5.90975 9.1657 5.87701 11.0138C5.79516 12.8703 5.69692 14.7433 5.88518 16.6414C5.93429 18.5395 5.99978 20.4542 5.89337 22.3939C6.10618 24.3336 6.01616 26.29 5.90156 28.263C5.9343 30.236 5.78695 32.2339 5.90973 34.2402C5.89336 35.2475 5.91791 36.2548 5.93429 37.2705C5.94247 37.7783 5.95067 38.2861 5.95067 38.7939V39.1769V39.3683V39.4599V39.5015V39.5099C5.94249 39.5432 5.9343 39.5765 5.92612 39.6181C5.95067 39.6264 5.9916 39.6347 6.03253 39.6431C6.01616 39.6431 6.10618 39.6431 6.17166 39.6514L6.35993 39.6597L6.73645 39.668C7.23574 39.6847 7.73503 39.693 8.23433 39.693C9.22474 39.7013 10.2152 39.6847 11.2056 39.6181C13.1864 39.4766 15.1427 39.6764 17.0825 39.6181C19.0224 39.8262 20.946 39.5515 22.8531 39.6264C24.7603 39.6098 26.6429 39.743 28.5091 39.6347C30.3754 39.6014 32.217 39.5598 34.0423 39.6431C35.8676 39.3267 37.6602 39.7263 39.4364 39.6597C41.2126 39.7929 42.9642 39.6431 44.6831 39.6764C46.4102 39.6181 48.1045 39.8262 49.7825 39.693C51.4523 39.718 53.0975 39.5931 54.71 39.7097C56.3225 39.5515 57.9104 39.8429 59.4656 39.7346C60.2432 39.7346 61.0126 39.7346 61.7739 39.7346C62.1504 39.7346 62.5351 39.743 62.9116 39.743C63.0998 39.743 63.2881 39.7513 63.4764 39.7513C63.5991 39.7513 63.591 39.7513 63.6237 39.7596L63.7138 39.7679C63.7629 39.7846 63.812 39.8012 63.8693 39.8179C63.8857 39.7762 63.902 39.7097 63.9184 39.6431C63.9266 39.6098 63.9265 39.5681 63.9347 39.5348C63.9347 39.5265 63.9347 39.4766 63.9429 39.4349V39.3017C63.9511 38.9604 63.9429 38.6191 63.9347 38.2778C63.9102 37.5951 63.8611 36.9208 63.8529 36.2548C63.8775 34.8063 63.7138 33.3994 63.8775 32.0258C63.8938 30.6522 64.0002 29.3119 63.902 28.0132C63.8693 26.7145 64.254 25.4575 63.9347 24.2337C63.8774 23.01 64.1803 21.8362 63.9675 20.6957C63.7711 19.5551 63.992 18.4646 64.0002 17.4157C64.0084 16.3667 64.0248 15.3594 64.033 14.3937C64.0821 10.0648 64.1394 6.65989 64.2049 4.33725C64.2376 3.17177 64.2621 2.28933 64.2949 1.68162C64.3276 1.08222 64.3604 0.774207 64.3931 0.774207C64.4258 0.774207 64.4668 1.15716 64.4995 1.89807C64.5322 2.63898 64.565 3.72955 64.5977 5.1531C64.6632 8.00021 64.7287 12.1543 64.7778 17.4157C64.786 18.4646 64.9579 19.5635 64.8106 20.6957C64.8106 21.8362 64.9415 23.01 64.8433 24.2337C65.0643 25.4492 64.8842 26.7145 64.876 28.0132C64.8842 29.3119 64.8187 30.6522 64.9088 32.0258C65.0397 33.3994 64.8433 34.8146 64.9333 36.2548C64.8679 36.9208 64.8433 37.5951 64.8433 38.2778C64.8433 38.6191 64.8515 38.9604 64.8679 39.3017C64.8924 39.8345 64.9088 40.3673 64.9333 40.9001C64.7451 40.9084 64.5568 40.9168 64.3686 40.9251C64.0739 40.9084 63.771 40.9001 63.4764 40.8835C63.2881 40.8752 63.0998 40.8668 62.9116 40.8668C62.5351 40.8668 62.1586 40.8668 61.7739 40.8835C61.0126 40.9085 60.2432 40.9501 59.4656 40.9417C57.9104 40.7336 56.3307 40.8751 54.71 40.9667C53.0975 41.0416 51.4523 40.9334 49.7825 40.9834C48.1127 40.9417 46.4102 41.0333 44.6831 41C42.956 41.0999 41.2044 41.1332 39.4364 41.0167C37.6602 41.0833 35.8595 41.0333 34.0423 41.0333C32.217 41.1166 30.3754 41.025 28.5091 41.0416C26.6429 41.0833 24.7603 40.8169 22.8531 41.05C20.946 41.0833 19.0224 41.0167 17.0825 41.0583C15.1427 41.0333 13.1782 41 11.2056 41.0666C10.2152 40.9501 9.22474 40.9251 8.23433 40.9501C7.73503 40.9584 7.23574 40.975 6.73645 41C6.46633 41.0083 6.2044 41.025 5.93429 41.0333C5.45954 41.0416 4.993 41.0583 4.51826 41.0666V41.05C4.51007 40.3007 4.4937 39.5515 4.48551 38.8023C4.47733 38.2944 4.47733 37.7866 4.48551 37.2788C4.48551 36.2632 4.51006 35.2559 4.52643 34.2486C4.50187 32.2423 4.51825 30.2443 4.53462 28.2713C4.46914 26.2983 4.63285 24.3419 4.54281 22.4022C4.44459 20.4625 4.6492 18.5478 4.55098 16.6498C4.4855 14.7517 4.45277 12.8786 4.55917 11.0221C4.55917 9.174 4.76382 7.34254 4.57556 5.53604C4.55919 4.72852 4.4937 3.92935 4.46096 3.13016C4.44459 2.73057 4.4364 2.33928 4.4364 1.93968C4.44459 1.66496 4.45277 1.39025 4.46096 1.11553C4.46914 0.732586 4.48551 0.35797 4.51007 0C4.88659 0.0249746 5.25493 0.0499543 5.59871 0.0832538C5.8852 0.074929 6.17166 0.0749127 6.44996 0.0665878C6.66277 0.0665878 6.8756 0.066596 7.0966 0.0749208C7.52223 0.0832457 7.94786 0.0999107 8.37349 0.11656C9.22475 0.14986 10.0678 0.174826 10.9027 0.108227C12.5725 0.341324 14.2177 0.124876 15.8302 0.133201C17.4427 0.174825 19.0307 0.258073 20.5858 0.158175C22.141 0.0499513 23.6635 0.216448 25.1532 0.183148C26.6429 0.0499503 28.0999 0.35797 29.5159 0.208122C30.9401 0.241421 32.3234 0.191471 33.674 0.233096C35.0246 -0.0832498 36.3424 0.233103 37.6193 0.266402C38.8962 0.316351 40.1321 0.0582873 41.3354 0.299709C42.5304 0.0582873 43.6927 0.266391 44.8141 0.33299C45.9354 0.399589 47.0077 0.233099 48.039 0.366297C49.0704 0.199799 50.0608 0.457877 51.0103 0.399603C51.9598 0.507827 52.8601 0.40791 53.7114 0.432884C54.5627 0.399585 55.373 0.407925 56.1342 0.474524C56.8955 0.491174 57.6076 0.499488 58.2624 0.516138C60.2432 0.557763 61.782 0.599382 62.8215 0.641006C63.8283 0.665981 64.3686 0.715942 64.3686 0.757567Z" fill="#202020"/>
<path d="M1.33419 40.3259C1.33419 40.3508 1.22778 40.3592 1.04771 40.4341C0.957669 40.4757 0.851274 40.534 0.753051 40.6339C0.646643 40.7255 0.548415 40.867 0.491118 41.0335C0.466562 41.1167 0.442009 41.2166 0.442009 41.3165C0.442009 41.4081 0.450202 41.5413 0.450202 41.6662C0.458387 41.9159 0.466579 42.1906 0.48295 42.4903C0.49932 43.0897 0.515672 43.7807 0.540227 44.5549C0.548413 44.813 0.556614 45.0794 0.556614 45.3624V45.4706L0.564782 45.5705C0.564782 45.6371 0.572983 45.7037 0.581168 45.7703C0.589354 45.9035 0.622084 46.0367 0.646639 46.1699C0.720306 46.4363 0.81034 46.7027 0.949488 46.9608C1.00678 47.094 1.09684 47.2105 1.17051 47.3437C1.21143 47.4103 1.26055 47.4686 1.30147 47.5269C1.3424 47.5851 1.3915 47.6517 1.44061 47.7017C1.48153 47.7683 1.53065 47.8349 1.57977 47.8932C1.63706 47.9514 1.69435 48.0014 1.75165 48.0513C1.80895 48.1013 1.8826 48.1429 1.94809 48.1845C2.02175 48.2262 2.08724 48.2678 2.16091 48.2928C2.44739 48.4343 2.74206 48.5259 3.02854 48.709C3.11039 48.734 3.18407 48.759 3.26592 48.7839C3.34777 48.8006 3.42961 48.8172 3.51147 48.8339C3.59332 48.8505 3.68335 48.8589 3.76521 48.8589C3.85524 48.8589 3.93711 48.8672 4.03533 48.8672C4.42004 48.8589 4.80474 48.8339 5.20581 48.8172C6.00796 48.7756 6.83468 48.8922 7.69412 48.7839C8.55357 48.5592 9.45395 49.0337 10.3789 48.7506C11.3038 48.6924 12.2615 48.709 13.2437 48.7173C14.2259 48.8921 15.2491 48.7173 16.2886 48.684C17.3281 48.8922 18.4004 48.8006 19.4972 48.6591C20.594 48.9421 21.7154 48.9005 22.8695 48.6341C24.0154 48.6258 25.1941 48.734 26.3891 48.6091C27.5842 48.5925 28.812 48.5342 30.0561 48.5841C31.3003 48.3927 32.569 48.401 33.8622 48.5675C35.1555 48.3594 36.4651 48.4426 37.7911 48.5508C39.1253 48.6674 40.4759 48.3677 41.8428 48.5342C43.2098 48.5508 44.6013 48.4842 46.0091 48.5175C47.417 48.6008 48.8412 48.7007 50.2818 48.5092C51.7224 48.4593 53.1794 48.3927 54.6527 48.5009C56.1261 48.2844 57.6076 48.376 59.1055 48.4926C60.6034 48.4593 62.1176 48.6091 63.6401 48.4926C64.0166 48.5009 64.4013 48.5009 64.786 48.4926L65.359 48.4842L65.6455 48.4759L65.8747 48.4593C66.1775 48.4176 66.4803 48.3427 66.7668 48.2262C67.0533 48.1013 67.3152 47.9431 67.569 47.7517C67.8227 47.5602 68.0355 47.3188 68.2074 47.044C68.3793 46.7693 68.5185 46.478 68.584 46.1616C68.6085 46.0867 68.6085 46.0034 68.6249 45.9202L68.6412 45.8036L68.6494 45.6788V45.5539C68.6494 45.5123 68.6576 45.479 68.6494 45.4207L68.6412 45.1293C68.633 44.738 68.6085 44.3551 68.5758 43.9638C68.5021 43.1896 68.5184 42.4154 68.543 41.6495L68.5512 41.3914C68.5512 41.3581 68.5512 41.3332 68.543 41.2999C68.5348 41.2416 68.5021 41.1833 68.453 41.1334C68.4039 41.0918 68.3466 41.0584 68.2893 41.0501C68.2729 41.0501 68.2565 41.0501 68.2402 41.0501C68.2402 41.0501 68.2074 41.0501 68.1829 41.0501H68.1092L67.8309 41.0585C66.333 40.8503 64.8433 41.125 63.3781 41.0501C61.9048 41.0668 60.4479 40.9336 59.0155 41.0418C57.5749 41.0751 56.1506 41.1167 54.7427 41.0335C53.3349 41.3498 51.9516 40.9502 50.5765 41.0168C49.2096 40.8836 47.8508 41.0335 46.5248 41.0002C45.1906 41.0584 43.881 40.8587 42.5959 40.9835C41.3026 40.9586 40.0339 41.0834 38.7898 40.9669C37.5456 41.125 36.326 40.8337 35.1228 40.9419C33.9278 40.9419 32.749 40.9502 31.6031 40.9169C30.4572 40.6755 29.3276 40.8753 28.2308 40.8919C27.134 40.867 26.0617 41.0335 25.0222 40.867C23.9827 40.8503 22.9678 40.7338 21.9773 40.8337C20.9869 40.867 20.0374 40.4757 19.1125 40.8004C18.1876 40.8587 17.2954 40.5506 16.4277 40.7671C15.5683 40.9669 14.7334 40.7421 13.9394 40.7338C13.1455 40.7254 12.3761 40.7088 11.6476 40.7005C8.3653 40.6505 5.77877 40.5922 4.01895 40.5257C2.27549 40.4507 1.33419 40.3841 1.33419 40.3259C1.33419 40.2509 2.49649 40.1843 4.65739 40.1177C6.81829 40.0511 9.96959 39.9845 13.964 39.9263C14.7579 39.9179 15.5929 39.7431 16.4523 39.893C17.3118 39.893 18.2121 39.7598 19.137 39.8597C20.062 39.6349 21.0196 39.818 22.0019 39.8264C22.9841 39.818 23.9991 39.893 25.0468 39.8014C26.0863 39.6682 27.1586 39.868 28.2554 39.7764C29.3522 39.9179 30.4736 39.8763 31.6277 39.7514C32.7736 39.893 33.9523 39.7265 35.1473 39.7265C36.3506 39.9346 37.5701 39.7931 38.8143 39.7015C40.0584 39.6266 41.3272 39.7348 42.6204 39.6849C43.9137 39.7265 45.2233 39.6349 46.5493 39.6682C47.8835 39.5683 49.2341 39.535 50.601 39.6515C51.968 39.5849 53.3595 39.6349 54.7673 39.6349C56.1752 39.5517 57.5994 39.6432 59.04 39.6266C60.4806 39.585 61.9376 39.8513 63.4027 39.6182C64.8761 39.5849 66.3576 39.6515 67.8555 39.6099L68.1337 39.6182H68.2074H68.2975C68.3793 39.6182 68.453 39.6266 68.5349 39.6432C68.8459 39.6932 69.1405 39.843 69.3779 40.0512C69.6153 40.2593 69.7954 40.534 69.8854 40.8337C69.9345 40.9835 69.9673 41.1417 69.9673 41.2999C69.9673 41.3915 69.9673 41.4247 69.9673 41.4747V41.6162C69.9673 42.3821 69.9673 43.1563 70 43.9305C69.9427 44.3218 69.91 44.7048 69.8936 45.096L69.8854 45.3874C69.8854 45.429 69.8772 45.4873 69.8772 45.5455L69.869 45.7204L69.8609 45.8869L69.8363 46.0534C69.8199 46.1616 69.8117 46.2781 69.779 46.3864C69.6971 46.8359 69.5334 47.2688 69.3206 47.6767C69.1078 48.0846 68.8377 48.4676 68.5021 48.7923C68.1665 49.1169 67.7736 49.375 67.348 49.5748C66.9224 49.7663 66.464 49.8745 65.9974 49.9161L65.6536 49.9328H65.359L64.786 49.9244C64.4013 49.9161 64.0248 49.9078 63.6401 49.8995C62.1176 49.9244 60.6034 49.9078 59.1055 49.8995C57.6076 49.9661 56.1179 49.7996 54.6527 49.8911C53.1794 49.991 51.7224 49.7829 50.2818 49.8828C48.8412 49.9494 47.417 49.9827 46.0091 49.8745C44.6013 49.8745 43.2098 49.6664 41.8428 49.8579C40.4759 49.8995 39.1171 50.1659 37.7911 49.8412C36.4569 49.9244 35.1473 49.6913 33.8622 49.8245C32.569 49.5915 31.3085 49.8162 30.0561 49.8079C28.812 49.7663 27.5842 49.683 26.3891 49.7829C25.1941 49.8911 24.0154 49.7246 22.8695 49.7579C21.7154 49.8911 20.594 49.5831 19.4972 49.733C18.4004 49.6997 17.3281 49.7496 16.2886 49.708C15.2491 50.0243 14.2341 49.708 13.2437 49.6747C12.2615 49.6331 11.3038 49.8828 10.3789 49.6414C9.45395 49.8828 8.56176 49.6747 7.69412 49.6081C6.83468 49.5415 5.99978 49.708 5.20581 49.5748C4.80474 49.658 4.42004 49.6331 4.03533 49.5998C3.94529 49.5914 3.8307 49.5748 3.72429 49.5581C3.61788 49.5415 3.51965 49.5332 3.41325 49.5082C3.31502 49.4832 3.20862 49.4666 3.1104 49.4416C3.01218 49.4166 2.91394 49.3916 2.81572 49.375C2.44738 49.2002 2.09543 49.042 1.7762 48.8339C1.69435 48.7839 1.62068 48.7257 1.53883 48.6757C1.46516 48.6258 1.38331 48.5675 1.31783 48.5009C1.25235 48.4426 1.17868 48.376 1.1132 48.3177C1.04772 48.2511 0.990423 48.1762 0.933127 48.1096C0.425643 47.5852 0.147348 46.9108 0.0654957 46.2698C0.0409401 46.1116 0.0163784 45.9535 0.00819321 45.7953C0.00819321 45.7204 0.00818522 45.6455 0 45.5622V45.4457V45.3374C0.00818522 45.0627 0.00820121 44.788 0.0163864 44.5299C0.0409421 43.7474 0.0573185 43.0564 0.0736889 42.4654C0.0818742 42.1657 0.0982266 41.8909 0.106412 41.6412C0.106412 41.5746 0.114605 41.5163 0.114605 41.458C0.114605 41.4247 0.114613 41.3998 0.122798 41.3665C0.122798 41.3332 0.130966 41.2999 0.130966 41.2666C0.147337 41.1334 0.188259 41.0168 0.229185 40.9169C0.327408 40.7088 0.466574 40.559 0.605723 40.4591C0.744872 40.3592 0.875828 40.3175 0.982236 40.2926C1.22779 40.2676 1.33419 40.3092 1.33419 40.3259Z" fill="#202020"/>
<path d="M34.8036 43.2062C34.8036 43.2978 34.6972 43.3727 34.5498 43.481C34.5253 43.4976 34.5007 43.5226 34.4761 43.5392C34.4516 43.5642 34.427 43.6058 34.3943 43.6058C34.3206 43.5143 34.4106 43.8306 34.3124 43.6808C34.2633 43.6475 34.2388 43.7057 34.2306 43.764C34.2224 43.814 34.1242 43.739 34.1488 43.8556C34.1979 43.9555 34.1488 43.9222 34.0996 43.8889C34.0505 43.8556 34.0014 43.8389 34.0751 43.9555C34.0833 44.0304 34.0505 44.0471 34.0096 44.072C33.8459 43.9971 33.9523 44.147 33.9523 44.1969C33.7559 44.122 33.7968 44.2219 33.9114 44.3301C33.6331 44.2469 33.6495 44.3384 33.8868 44.4716C33.8868 44.5133 33.764 44.5382 33.8786 44.6131C33.8868 44.6631 33.9359 44.713 33.8868 44.763C33.9769 44.788 34.026 44.8046 34.026 44.8296C34.026 44.8546 33.985 44.8712 33.9114 44.9129C34.116 44.9295 34.0505 44.9711 33.9605 45.0544C33.9195 45.096 33.9686 45.1043 34.0096 45.1126C34.0505 45.121 34.0915 45.121 34.0342 45.1876C34.0505 45.2375 34.1242 45.2458 34.1242 45.3041C34.1078 45.3541 34.0915 45.404 34.0996 45.429C34.1078 45.454 34.1487 45.4623 34.2306 45.4123C34.3043 45.4123 34.3779 45.379 34.3534 45.5039C34.5089 45.3457 34.4843 45.4373 34.4925 45.5705C34.5253 45.5622 34.5335 45.6038 34.558 45.6288C34.5826 45.6538 34.6071 45.6704 34.6399 45.6121C34.6644 45.6288 34.6971 45.6121 34.7217 45.6038C34.7462 45.5872 34.7708 45.5788 34.7954 45.6288C34.8199 45.6621 34.8527 45.6871 34.8854 45.6954C34.9181 45.7037 34.9427 45.6787 34.9591 45.6121C34.9673 45.5372 34.9918 45.5455 35.0246 45.5622C35.0573 45.5788 35.09 45.6038 35.1064 45.5705C35.1719 45.6621 35.1883 45.6205 35.1964 45.5872C35.2046 45.5455 35.1964 45.4873 35.2374 45.5039C35.2537 45.4873 35.2865 45.4956 35.3192 45.4873C35.352 45.4873 35.3765 45.4706 35.3602 45.4123C35.3683 45.379 35.3684 45.3541 35.3847 45.3291C35.4011 45.3124 35.4256 45.3041 35.4748 45.3041C35.3684 45.1876 35.3929 45.1876 35.442 45.1959C35.4911 45.2042 35.5812 45.2209 35.5648 45.1876C35.6303 45.1959 35.6467 45.1709 35.6385 45.1376C35.6303 45.1043 35.6139 45.071 35.6385 45.0544C35.6139 45.0211 35.6548 45.0127 35.6876 44.9878C35.7203 44.9711 35.7367 44.9462 35.6876 44.9129C35.704 44.8879 35.6794 44.8629 35.6712 44.8379C35.6548 44.813 35.663 44.788 35.7203 44.7713C35.6385 44.7463 35.6712 44.7297 35.7121 44.6964C35.7449 44.6714 35.7858 44.6381 35.7285 44.6215C35.7285 44.5715 35.6958 44.5299 35.7203 44.4799C35.8267 44.4217 35.8267 44.3884 35.8021 44.3717C35.7776 44.3551 35.7121 44.3551 35.6957 44.3384C35.6957 44.2802 35.532 44.3384 35.6548 44.2052C35.6466 44.1636 35.7039 44.0554 35.5975 44.0804C35.573 44.0804 35.6221 43.9971 35.6466 43.9472C35.6712 43.8972 35.6548 43.8639 35.5321 43.9721C35.4993 43.9805 35.5239 43.9222 35.5321 43.8722C35.5402 43.8306 35.532 43.7973 35.4584 43.8722C35.311 44.0138 35.4093 43.814 35.3765 43.7807C35.352 43.7474 35.3192 43.7224 35.2947 43.6974C35.0409 43.4477 34.8036 43.3394 34.8036 43.2062C34.8036 43.1396 34.8772 43.0564 35.0409 43.0148C35.2046 42.9732 35.4584 42.9565 35.7612 43.073C35.8185 43.098 35.974 42.9898 35.9495 43.1563C36.0068 43.1979 36.1459 43.148 36.1378 43.2729C36.3506 43.1563 36.2851 43.3561 36.326 43.4227C36.3915 43.481 36.3751 43.5892 36.5061 43.6142C36.6616 43.6225 36.547 43.7973 36.6616 43.8473C36.5798 43.9971 36.637 44.0554 36.7926 44.1136C36.7435 44.1802 36.7598 44.2302 36.8008 44.2718C36.8335 44.3134 36.8826 44.3551 36.8908 44.4134C36.7025 44.5466 36.858 44.6215 36.9399 44.738C36.9808 44.7963 36.9645 44.8546 36.9563 44.9129C36.9399 44.9711 36.9235 45.0211 36.9399 45.0877C36.8908 45.1959 36.9481 45.3291 36.8826 45.4456C36.9071 45.5206 36.9154 45.5872 36.899 45.6538C36.8826 45.7204 36.8335 45.7703 36.7517 45.7953C36.7517 45.9368 36.637 46.0284 36.5634 46.1283C36.5552 46.2032 36.5143 46.2615 36.4651 46.3031C36.416 46.3447 36.3587 46.378 36.3178 46.4363C36.2851 46.4946 36.195 46.5029 36.1214 46.5112C36.0477 46.5279 35.9986 46.5528 35.9986 46.686C35.9004 46.7859 35.7449 46.7943 35.6385 46.8858C35.4993 46.9108 35.3601 46.9191 35.2374 47.0107C35.1473 46.9108 35.0819 46.9025 35.0164 46.9275C34.9509 46.9524 34.8854 47.0107 34.8118 47.0607C34.7381 47.094 34.6644 47.094 34.5989 47.0856C34.5253 47.069 34.4598 47.044 34.3943 47.019C34.247 47.0107 34.116 46.9608 33.9932 46.8942C33.9196 46.9025 33.8622 46.8442 33.8131 46.7943C33.7558 46.7443 33.7149 46.6944 33.6331 46.6944C33.5512 46.7027 33.5103 46.6361 33.4694 46.5695C33.4284 46.5112 33.4039 46.4446 33.322 46.4363C33.2484 46.4196 33.1829 46.3863 33.1419 46.3364C33.0928 46.2864 33.0683 46.2199 33.0683 46.1366C33.0274 46.0867 33.0356 46.0034 33.0274 45.9368C33.0192 45.8702 32.9864 45.8202 32.88 45.8036C32.8309 45.7536 32.7327 45.7287 32.6836 45.6787C32.6345 45.6288 32.6263 45.5539 32.7573 45.454C32.7 45.404 32.7245 45.3374 32.7409 45.2708C32.7572 45.2042 32.7736 45.1459 32.7 45.096C32.8064 45.0211 32.7982 44.9711 32.7736 44.9212C32.7491 44.8712 32.6918 44.813 32.6918 44.7547C32.7409 44.6381 32.8227 44.5465 32.7409 44.43C32.6918 44.3717 32.7163 44.3134 32.7573 44.2718C32.79 44.2302 32.8391 44.1886 32.8309 44.1303C32.7818 44.0637 32.8391 44.0221 32.8964 43.9971C32.9537 43.9638 33.011 43.9472 32.9619 43.8639C33.0274 43.789 33.0356 43.6891 33.1174 43.6308C33.011 43.5059 33.0437 43.4643 33.1092 43.456C33.1747 43.4477 33.2647 43.4643 33.2975 43.4393C33.3466 43.4227 33.3302 43.3561 33.3384 43.3061C33.3466 43.2562 33.3794 43.2229 33.4858 43.2895C33.3875 43.0564 33.584 43.1563 33.674 43.173C33.764 43.1896 33.7395 43.0065 33.8622 43.0897C33.8377 42.9066 34.0178 43.1147 34.0423 43.0398C34.1406 43.1147 34.1488 43.0065 34.2061 43.0148C34.2388 42.9565 34.2961 42.9565 34.3534 43.0064C34.4025 43.0064 34.4434 43.0065 34.4843 43.0148C34.6071 43.0314 34.689 43.0647 34.7463 43.1063C34.7708 43.1147 34.8036 43.1563 34.8036 43.2062Z" fill="#202020"/>
<path d="M47.2451 8.84106C47.3188 8.79943 47.507 8.9493 47.7771 9.27397C47.8181 9.32392 47.8672 9.38218 47.9163 9.44878C47.9736 9.50706 48.0391 9.56532 48.0718 9.64857C48.0145 9.78177 48.3501 9.69854 48.2437 9.87336C48.2519 9.98158 48.3419 10.0482 48.4238 10.1231C48.5138 10.198 48.4729 10.3479 48.6202 10.3978C48.874 10.3895 48.522 10.7308 48.8249 10.6975C48.9395 10.7724 48.9885 10.8973 49.0458 11.0222C48.964 11.222 49.1768 11.2553 49.275 11.3635C49.1686 11.5883 49.3159 11.6715 49.5124 11.7298C49.3405 12.0045 49.4551 12.1127 49.758 12.1127C49.8398 12.2459 49.8235 12.4374 50.0117 12.5123C50.11 12.6455 50.2327 12.7621 50.2736 12.9286C50.5192 12.9785 50.5928 13.1367 50.5437 13.3615C50.8057 13.4114 50.8221 13.6029 50.8221 13.811C50.8139 14.0275 51.1576 14.0358 51.1085 14.2772C51.1167 14.3022 51.1331 14.3188 51.1413 14.3355C51.1495 14.3521 51.1494 14.3521 51.1494 14.3521H51.1576C51.1658 14.3604 51.174 14.3605 51.1822 14.3688C51.1986 14.3771 51.2067 14.3854 51.2067 14.4187C51.1904 14.4853 51.1822 14.5852 51.1985 14.6102C51.2231 14.5935 51.2477 14.5436 51.2722 14.4354C51.2886 14.3937 51.2968 14.3605 51.305 14.3438C51.3131 14.3272 51.3131 14.3355 51.3541 14.3771C51.4114 14.094 51.6324 14.0691 51.8615 14.0691C51.9352 14.0025 52.0416 13.9775 52.1399 13.9442C52.1644 13.9359 52.189 13.9276 52.2136 13.9109L52.2463 13.8943C52.2463 13.8943 52.2463 13.8943 52.2545 13.8943C52.2627 13.8859 52.2626 13.8693 52.2463 13.8443C52.2708 13.8526 52.2708 13.8193 52.2627 13.811C52.2545 13.7944 52.2462 13.786 52.3199 13.8027C52.3527 13.8027 52.3854 13.786 52.3854 13.7694C52.3854 13.7527 52.3527 13.7194 52.279 13.7278C52.1808 13.836 52.1971 13.4697 52.0662 13.3448C52.1398 13.0701 51.8124 13.0285 51.7715 12.8203C51.6569 12.6538 51.6815 12.4208 51.4851 12.3042C51.3541 12.1544 51.2231 12.0045 51.2067 11.7964C50.8466 11.7881 51.0922 11.4301 50.9367 11.2969C50.9612 11.0721 50.7402 10.9889 50.6829 10.814C50.5437 10.6892 50.6338 10.4311 50.4373 10.3395C50.3718 10.1731 50.1836 10.0898 50.2 9.88167C49.9872 9.81507 50.1508 9.5237 49.9708 9.44045C49.8889 9.29892 49.8071 9.16572 49.758 9.01587C49.889 8.7578 49.6434 8.72451 49.5534 8.60796C49.537 8.57466 49.5206 8.54137 49.4879 8.5164C49.4551 8.4831 49.4469 8.48308 49.4306 8.47476C49.406 8.46643 49.3978 8.45811 49.4388 8.36653C49.4306 8.33323 49.4387 8.28331 49.4306 8.23336C49.4224 8.19173 49.406 8.15009 49.3733 8.19172C49.3569 8.19172 49.3651 8.13344 49.3733 8.05852C49.3733 8.00857 49.3651 7.96695 49.3405 7.96695C49.3242 7.96695 49.2914 8.0169 49.2587 8.16674C49.2341 8.21669 49.2177 8.15843 49.1768 8.12513C49.1441 8.09183 49.1031 8.09182 49.1031 8.21669C49.1031 8.33324 49.095 8.33323 49.0622 8.31658C49.054 8.31658 49.0459 8.30827 49.0295 8.29994C49.0131 8.29994 48.9968 8.29994 48.9804 8.29161C48.9476 8.29161 48.9149 8.29162 48.8904 8.29994C48.7921 8.34157 48.6939 8.38319 48.612 8.42481C47.8017 8.78278 47.3024 8.9243 47.2369 8.80775C47.1633 8.68288 47.638 8.25001 48.4974 7.60899C48.522 7.59234 48.5384 7.56735 48.5547 7.54238L48.5793 7.50076C48.5875 7.48411 48.6039 7.46747 48.6202 7.45082C48.6857 7.38422 48.7676 7.32593 48.8658 7.35923C48.9394 7.3176 49.0131 7.23437 49.095 7.16777C49.1768 7.10117 49.2669 7.03455 49.3405 7.04288C49.4715 6.79313 49.6106 6.75151 49.717 6.73486C49.7498 6.82644 49.7744 6.91803 49.8071 6.98462C49.8644 7.06787 49.9053 7.18441 49.9626 7.28431C50.0117 7.38421 50.069 7.47577 50.1591 7.53404C50.2655 7.58399 50.3146 7.70887 50.3555 7.82542C50.3719 7.87537 50.3882 7.92531 50.4128 7.97526C50.4292 8.00856 50.4537 8.04187 50.4864 8.05852C50.4373 8.25831 50.5438 8.37488 50.732 8.44148C50.6911 8.64128 50.9121 8.69953 50.9858 8.84106C50.8875 9.0908 51.0921 9.1574 51.2477 9.2573C51.395 9.36552 51.3868 9.56532 51.5178 9.69852C51.5669 9.87334 51.7388 9.97325 51.7961 10.1481C51.968 10.2563 52.0907 10.3978 52.0826 10.6143C52.2299 10.7391 52.279 10.9306 52.3691 11.0971C52.5328 11.222 52.5491 11.4384 52.6637 11.5966C52.7947 11.7464 52.6637 12.0461 52.9666 12.1044C53.0894 12.2626 53.1303 12.4707 53.2694 12.6289C53.3104 12.7205 53.3431 12.8204 53.3922 12.9119C53.4004 12.9369 53.4168 12.9535 53.4331 12.9785L53.4986 13.0784C53.5477 13.1617 53.605 13.2366 53.6705 13.3198C53.6541 13.5196 53.7114 13.6612 53.8178 13.8277C53.9242 13.9858 54.088 14.1523 54.2435 14.3438C53.9897 14.5686 53.5886 14.7684 53.2448 14.9349C53.163 14.9848 53.0812 15.0431 53.0075 15.093L52.9093 15.1513L52.8438 15.1929C52.7537 15.2429 52.6637 15.2845 52.5737 15.3345C52.4346 15.4926 52.1808 15.451 52.0498 15.6342C51.9107 15.7674 51.7388 15.8423 51.5751 15.9089C51.4114 15.9755 51.264 16.0337 51.1085 16.1753C50.9857 16.2835 50.8548 16.3834 50.7238 16.4666C50.6092 16.2918 50.5028 16.0671 50.4291 15.8173C50.3391 15.6675 50.29 15.4677 50.2327 15.3095C50.2 15.2263 50.1672 15.1513 50.1263 15.0847C50.1181 15.0681 50.1017 15.0514 50.0936 15.0348C50.0772 15.0181 50.0608 15.0015 50.0526 15.0015C50.0281 14.9848 50.0035 14.9765 49.9708 14.9682C49.8398 14.8267 49.5288 14.8017 49.717 14.4853C49.5615 14.3688 49.6761 14.094 49.4715 14.0108C49.5861 13.7444 49.3078 13.7028 49.2341 13.5529C49.1932 13.3864 49.1768 13.2033 49.0049 13.1117C48.833 13.0285 48.8985 12.8037 48.7921 12.6871C48.6038 12.6205 48.7921 12.3292 48.5875 12.2792C48.5383 12.1377 48.4238 12.0378 48.3992 11.888C48.0636 11.9213 48.2683 11.6465 48.2192 11.5133C48.1946 11.3718 47.9081 11.3885 48.0554 11.1637C47.7935 11.172 47.9081 10.9639 47.8999 10.8307C47.8999 10.6892 47.7035 10.6809 47.7608 10.5227C47.5643 10.5144 47.7362 10.2896 47.638 10.2396C47.6871 10.0981 47.548 10.0648 47.5316 9.97325C47.4579 9.91498 47.4252 9.83172 47.4416 9.73182C47.417 9.6569 47.3924 9.58198 47.3679 9.5237C47.2123 9.12411 47.1715 8.88268 47.2451 8.84106Z" fill="#202020"/>
<path d="M26.4873 21.0453C26.561 21.0037 26.8803 21.3949 27.3959 22.1525C27.4778 22.2774 27.576 22.4189 27.6742 22.5604C27.7806 22.7019 27.8952 22.8518 27.9852 23.0266C27.9852 23.2597 28.37 23.268 28.3209 23.5511C28.3864 23.7675 28.5336 23.9423 28.6892 24.1338C28.8447 24.3169 28.8693 24.5917 29.0821 24.7665C29.4013 24.8747 29.123 25.3492 29.5077 25.4491C29.6959 25.6573 29.827 25.9153 29.9579 26.1817C29.9579 26.3566 30.0315 26.4814 30.1298 26.6063C30.1543 26.6396 30.1789 26.6646 30.2035 26.6895C30.2198 26.6979 30.2362 26.7145 30.2526 26.7228C30.2853 26.7395 30.3098 26.7561 30.3262 26.7728C30.2853 26.9143 30.3262 27.0392 30.3753 27.0975C30.449 27.0309 30.5309 26.9226 30.5718 26.8144C30.6045 26.881 30.6536 26.906 30.7109 26.9143C30.7273 26.9143 30.7355 26.9143 30.7519 26.9143H30.7682L30.801 26.906C30.8419 26.8893 30.8746 26.8727 30.9074 26.8477C31.0465 26.7561 31.153 26.6063 31.2348 26.3982C31.5213 26.215 31.8814 26.1401 32.127 25.8487C32.4216 25.6489 32.7081 25.4242 33.0519 25.2826C33.2729 24.933 33.6003 24.7499 34.0096 24.6916C34.2387 24.317 34.6153 24.1921 35.0082 24.0839C35.4011 23.984 35.6057 23.5261 36.0395 23.4595C36.3997 23.268 36.7189 23.0016 37.0954 22.8185C37.4965 22.677 37.9057 22.5521 38.184 22.1691C38.5278 21.9111 38.8634 21.628 39.2972 21.5031C39.5673 21.0952 39.993 20.9537 40.435 20.8288C40.7951 20.5708 41.2617 20.4792 41.5891 20.1462C41.6873 20.0963 41.7855 20.038 41.8837 19.9714L42.0229 19.8798L42.0556 19.8548V19.8465L42.0638 19.8382C42.0802 19.8132 42.072 19.8049 42.1621 19.8049C42.1866 19.7882 42.203 19.7383 42.1784 19.6883C42.1784 19.68 42.1702 19.6717 42.1702 19.6717L42.1457 19.63C42.1129 19.5801 42.0884 19.5302 42.0474 19.4885C41.982 19.397 41.9083 19.3054 41.8265 19.2221C41.4827 18.8975 41.4254 18.4063 41.1635 18.04C41.1144 17.5488 40.6641 17.2991 40.5086 16.8745C40.2713 16.4999 40.1812 16.0503 39.8702 15.734C39.6246 15.376 39.3791 15.0264 39.2481 14.6185C39.2236 14.6101 39.2072 14.6018 39.1826 14.5852L39.1581 14.5685C39.1499 14.5602 39.1499 14.5685 39.1417 14.5685C39.1253 14.5768 39.1172 14.5768 39.109 14.5852C39.0926 14.5935 39.0926 14.5935 39.1008 14.5852C39.109 14.5685 39.1335 14.4936 39.1335 14.4187C39.1253 14.3937 39.1008 14.3854 39.0844 14.4187C39.068 14.3937 39.0435 14.3854 39.0189 14.3937C39.0107 14.3937 38.9944 14.402 38.9862 14.4103L38.978 14.4187L38.9453 14.4437L38.8798 14.4853C38.7161 14.6018 38.5606 14.7267 38.3805 14.81C38.0694 15.0597 37.6356 15.0764 37.3655 15.3844C37.0217 15.5592 36.7598 15.8589 36.3833 15.9421C36.1459 16.2668 35.6876 16.2002 35.4338 16.4749C35.1228 16.6497 34.8363 16.8412 34.5252 16.9827C34.1078 16.9411 33.9195 17.2908 33.6494 17.4656C33.3547 17.6071 33.1665 17.9151 32.8145 17.9234C32.5362 18.065 32.2252 18.1232 32.0206 18.3563C31.7832 18.5395 31.3494 18.3397 31.2757 18.7643C31.0711 18.9557 30.6864 18.8225 30.5718 19.1389C30.449 19.4469 30.1298 19.372 29.9169 19.4802C29.7041 19.5884 29.5077 19.6966 29.3112 19.7965C27.5842 20.6873 26.561 21.1452 26.4955 21.0369C26.4219 20.9121 27.5432 20.0962 29.5241 18.7975C29.7205 18.6644 29.8515 18.3896 30.1462 18.3896C30.3672 18.2564 30.5309 18.015 30.8174 17.9568C30.9401 17.6238 31.2757 17.6404 31.5377 17.4989C31.7832 17.3407 32.0779 17.2491 32.2989 17.016C32.5035 16.7413 32.8718 16.758 33.1092 16.5082C33.4612 16.4666 33.7313 16.2668 33.9604 15.9838C34.3206 15.9255 34.5416 15.6091 34.8527 15.4343C35.2619 15.4343 35.4993 15.1263 35.7776 14.8599C36.0559 14.6102 36.4324 14.5103 36.7352 14.2688C37.0872 14.1107 37.3737 13.8276 37.7339 13.6611C37.8812 13.5196 38.0367 13.3864 38.2004 13.2782L38.2659 13.2365L38.3559 13.1866C38.4378 13.1366 38.5278 13.095 38.6096 13.0534C38.7815 12.9701 38.9453 12.8952 39.109 12.837C39.2809 12.7121 39.4609 12.5955 39.641 12.4873C39.7801 12.7287 39.9193 12.9785 40.0584 13.2282C40.1812 13.453 40.304 13.6861 40.4268 13.9109C40.7051 14.2355 40.836 14.6518 41.0652 15.0181C41.3108 15.3677 41.3026 15.8838 41.7201 16.1502C41.9656 16.5165 42.1211 16.9411 42.3831 17.3074C42.5795 17.7153 42.776 18.1232 43.0543 18.4895C43.0624 18.6144 43.087 18.731 43.1279 18.8392C43.1525 18.8975 43.1688 18.9474 43.2016 18.9974L43.2589 19.0973L43.3407 19.2221C43.5535 19.5634 43.8155 19.9131 44.0938 20.3127C43.7663 20.5458 43.3817 20.7789 43.0052 20.9953L42.866 21.0786L42.7514 21.1369L42.604 21.2118L42.3012 21.3616C41.9247 21.6114 41.5318 21.8278 41.1389 22.0359C40.7869 22.319 40.3286 22.4022 40.0011 22.7019C39.6737 23.0099 39.199 23.0516 38.8798 23.3513C38.5442 23.626 38.2004 23.8674 37.783 23.984C37.4228 24.1921 36.9645 24.2254 36.7107 24.6C36.3833 24.8414 36.1623 25.2743 35.6712 25.1911C35.3683 25.4575 34.9181 25.4575 34.6562 25.7655C34.2142 25.7572 33.9932 26.1401 33.674 26.3149C33.3302 26.4648 32.9783 26.5813 32.7245 26.8477C32.4708 27.1224 32.086 27.1557 31.8159 27.3555C31.5704 27.6552 31.2348 27.497 30.7437 27.9549C30.5063 28.0798 30.2853 28.213 30.0561 28.3545C29.9252 28.1297 29.786 27.8883 29.6796 27.6469C29.565 27.6053 29.4668 27.5054 29.3849 27.3972C29.344 27.3389 29.3113 27.2806 29.2785 27.2223C29.2622 27.189 29.2458 27.1474 29.2376 27.1141C29.1967 26.9643 29.1967 26.7894 29.1394 26.6562C29.033 26.3815 28.6728 26.2567 28.7465 25.8987C28.4027 25.7738 28.4518 25.4408 28.3781 25.1827C28.3126 24.9247 28.0426 24.7915 28.0426 24.5168C27.7806 24.3919 27.8952 24.0672 27.7315 23.9007C27.7151 23.651 27.5269 23.5261 27.4532 23.3429C27.3223 23.1931 27.2404 23.0183 27.2076 22.8351C27.134 22.6769 27.0603 22.5271 27.003 22.3856C26.5856 21.5698 26.4137 21.0869 26.4873 21.0453Z" fill="#202020"/>
<path d="M16.3213 27.0144C16.395 26.9727 16.5833 27.1226 16.8534 27.4472C16.8943 27.5055 16.9434 27.5638 16.9925 27.6221C17.0498 27.6803 17.1153 27.7386 17.148 27.8219C17.0907 27.9551 17.4181 27.8718 17.3199 28.0466C17.3199 28.1549 17.4181 28.2214 17.5 28.2964C17.59 28.3713 17.5409 28.5212 17.6964 28.5711C17.9502 28.5628 17.5982 28.9041 17.901 28.8708C18.0156 28.9457 18.0648 29.0706 18.1139 29.1955C18.032 29.3953 18.2449 29.4286 18.3431 29.5368C18.2367 29.7616 18.384 29.8448 18.5804 29.9031C18.4085 30.1778 18.5231 30.286 18.826 30.286C18.9078 30.4192 18.8915 30.6107 19.0797 30.6856C19.1779 30.8188 19.3007 30.9354 19.3417 31.1019C19.5872 31.1518 19.6609 31.31 19.6118 31.5431C19.8737 31.593 19.89 31.7845 19.89 31.9926C19.8819 32.2091 20.2257 32.2174 20.1766 32.4588C20.1847 32.4838 20.2011 32.5004 20.2093 32.5171L20.2175 32.5337L20.2257 32.5421C20.2339 32.5504 20.242 32.5504 20.2502 32.5587C20.2666 32.5671 20.2748 32.5754 20.2748 32.6087C20.2584 32.6753 20.2502 32.7752 20.2666 32.8001C20.2911 32.7835 20.3157 32.7335 20.3403 32.6336C20.3566 32.592 20.3648 32.5587 20.373 32.5421C20.3812 32.5254 20.3812 32.5337 20.4221 32.5754C20.4794 32.2923 20.7004 32.2674 20.9296 32.2674C21.0114 32.2008 21.1097 32.1758 21.2079 32.1425C21.3307 32.0925 21.3307 32.1008 21.3061 32.0426C21.3307 32.0426 21.3306 32.0176 21.3225 32.0093C21.3143 31.9926 21.3061 31.9843 21.3798 32.0009C21.4207 32.0009 21.4453 31.9843 21.4453 31.9676C21.4453 31.951 21.4125 31.9177 21.3388 31.926C21.2406 32.0343 21.2652 31.6763 21.126 31.5431C21.1997 31.2684 20.8723 31.2267 20.8314 31.0186C20.7168 30.8521 20.7332 30.619 20.5449 30.5025C20.4139 30.3526 20.2911 30.2028 20.2666 29.9947C19.9064 29.9863 20.152 29.6284 19.9965 29.4952C20.021 29.2704 19.8 29.1871 19.7427 29.0123C19.6036 28.8874 19.6936 28.6294 19.4972 28.5378C19.4317 28.3713 19.2434 28.2881 19.2598 28.0799C19.047 28.0133 19.2107 27.722 19.0306 27.6387C18.9488 27.4972 18.8669 27.364 18.8178 27.2141C18.9487 26.9561 18.7032 26.9228 18.6132 26.8062C18.5968 26.7729 18.5804 26.7396 18.5477 26.7146C18.5313 26.7063 18.5149 26.6813 18.5067 26.6813L18.4822 26.673C18.4577 26.6647 18.4495 26.6564 18.4986 26.5648C18.4904 26.5315 18.4986 26.4816 18.4904 26.4316C18.4822 26.39 18.4658 26.3567 18.4331 26.39C18.4167 26.39 18.4249 26.3317 18.4331 26.2485C18.4331 26.2068 18.4249 26.1569 18.4004 26.1569C18.384 26.1569 18.3512 26.2152 18.3185 26.3567C18.2939 26.4066 18.2776 26.34 18.2367 26.3151C18.2039 26.2818 18.163 26.2818 18.163 26.4066C18.163 26.5232 18.1548 26.5232 18.1221 26.5065C18.1139 26.5065 18.1057 26.4982 18.0893 26.4899C18.073 26.4899 18.0566 26.4899 18.0402 26.4816C18.0075 26.4816 17.9747 26.4816 17.9502 26.4899C17.8519 26.5315 17.7537 26.5731 17.6719 26.6148C16.8615 26.9644 16.3623 27.1142 16.2968 26.9977C16.2231 26.8728 16.6978 26.4399 17.5573 25.7989C17.5818 25.7823 17.5982 25.7573 17.6146 25.7323L17.6391 25.6907C17.6473 25.6741 17.6637 25.6574 17.6801 25.6407C17.7456 25.5741 17.8274 25.5159 17.9256 25.5492C17.9993 25.5075 18.0729 25.4243 18.1548 25.3577C18.2366 25.2911 18.3267 25.2245 18.4004 25.2328C18.5313 24.9831 18.6623 24.9415 18.7687 24.9248C18.8014 25.0164 18.826 25.1079 18.8588 25.1745C18.916 25.2578 18.957 25.3744 19.0143 25.4742C19.0634 25.5741 19.1207 25.6657 19.2107 25.7323C19.3089 25.7823 19.3662 25.9071 19.4071 26.0237L19.4399 26.1153C19.4481 26.1486 19.4563 26.1569 19.4644 26.1735C19.4808 26.2068 19.5053 26.2401 19.5381 26.2568C19.489 26.4566 19.5954 26.5731 19.7836 26.6397C19.7427 26.8395 19.9638 26.8978 20.0374 27.0393C19.9392 27.2808 20.1438 27.3557 20.2993 27.4556C20.4466 27.5638 20.4385 27.7636 20.5694 27.8885C20.6185 28.0633 20.7905 28.1632 20.8478 28.338C21.0196 28.4462 21.1424 28.5878 21.1342 28.8042C21.2815 28.9291 21.3306 29.1205 21.4207 29.287C21.5844 29.4119 21.6008 29.6284 21.7154 29.7865C21.8463 29.9364 21.7154 30.2361 22.0182 30.2944C22.141 30.4525 22.1819 30.6606 22.3211 30.8188C22.3538 30.9104 22.3947 31.0103 22.4438 31.1019C22.4766 31.1601 22.5912 31.3516 22.714 31.5098C22.6976 31.7096 22.7549 31.8511 22.8613 32.0093C22.9677 32.1675 23.1314 32.3339 23.2869 32.5254C23.0332 32.7502 22.6321 32.95 22.2802 33.1165C21.8955 33.3662 21.8054 33.4079 21.6008 33.5077C21.4616 33.6659 21.2079 33.6243 21.0769 33.8075C20.9378 33.9407 20.7659 34.0156 20.6022 34.0822C20.4385 34.1488 20.2912 34.1987 20.1356 34.3486C20.0129 34.4568 19.8819 34.5567 19.7509 34.6399C19.6363 34.4651 19.5299 34.2403 19.4644 33.9906C19.3744 33.8407 19.3253 33.6409 19.268 33.4828C19.2353 33.3995 19.2025 33.3246 19.1616 33.258C19.1534 33.2414 19.137 33.2247 19.1288 33.2081L19.1043 33.1831C19.0961 33.1748 19.0961 33.1748 19.0879 33.1748C19.0634 33.1581 19.0388 33.1498 19.0061 33.1415C18.8751 32.9999 18.5641 32.975 18.7523 32.6586C18.5968 32.5421 18.7114 32.2673 18.5067 32.1841C18.6213 31.9177 18.3431 31.8761 18.2694 31.7262C18.2203 31.5597 18.2121 31.3766 18.0402 31.285C17.8683 31.2017 17.9338 30.977 17.8274 30.8604C17.6391 30.7938 17.8274 30.5025 17.6228 30.4525C17.5737 30.311 17.459 30.2111 17.4345 30.0613C17.0989 30.0946 17.2954 29.8198 17.2544 29.6866C17.2299 29.5451 16.9434 29.5618 17.0907 29.337C16.8288 29.3453 16.9434 29.1372 16.9352 29.004C16.9352 28.8708 16.7388 28.8541 16.7961 28.696C16.5996 28.6876 16.7715 28.4629 16.6733 28.4129C16.7224 28.2714 16.5832 28.2381 16.5668 28.1465C16.4932 28.0883 16.4605 28.005 16.4768 27.9051C16.4523 27.8302 16.4196 27.7553 16.4032 27.697C16.2886 27.2974 16.2476 27.056 16.3213 27.0144Z" fill="#202020"/>
<path d="M20.2011 19.2306C20.2748 19.1889 20.5858 19.5636 21.0851 20.2878C21.167 20.4127 21.257 20.5376 21.3471 20.6791C21.4535 20.8123 21.5599 20.9538 21.6417 21.1286C21.6335 21.3534 22.0183 21.3617 21.9691 21.6281C22.0264 21.8363 22.1738 22.0028 22.3211 22.1776C22.4684 22.3524 22.4848 22.6188 22.6976 22.7853C23.0169 22.8852 22.7304 23.3514 23.1069 23.4346C23.287 23.6344 23.4097 23.8842 23.5407 24.1339C23.5325 24.4669 23.819 24.6334 23.9991 24.8748C23.9663 25.2411 24.1955 25.4576 24.4738 25.6657C24.3838 26.0819 24.5802 26.34 24.9731 26.4899C25.145 26.7729 25.2187 27.1226 25.4888 27.3557C25.677 27.647 25.8898 27.9217 26.029 28.2547C26.3646 28.4712 26.5365 28.7875 26.5856 29.1954C26.9458 29.4119 27.0603 29.7782 27.1585 30.1694C27.2486 30.5607 27.6906 30.7439 27.7479 31.1684C27.928 31.5181 28.1735 31.8344 28.3454 32.2007C28.4109 32.4005 28.4682 32.592 28.5664 32.7751C28.6155 32.8667 28.6647 32.95 28.7301 33.0332C28.7383 33.0499 28.7465 33.0499 28.7465 33.0499L28.7629 33.0582C28.7711 33.0582 28.7792 33.0665 28.7874 33.0665C28.8038 33.0665 28.8283 33.0665 28.8447 33.0499C28.8774 33.0582 28.902 33.0499 28.9102 33.0499C28.9347 33.0166 28.9348 33.0249 28.9839 33.0582C28.943 33.0249 29.0493 32.9167 29.123 32.8501C29.2049 32.7835 29.2949 32.7252 29.3849 32.6752C29.5732 32.5753 29.7778 32.5171 29.9906 32.4588C30.3426 32.209 30.7846 32.1258 31.0956 31.8011C31.1939 31.7512 31.2839 31.7012 31.374 31.6346L31.5049 31.5431C31.5131 31.5347 31.5131 31.5264 31.5213 31.5181C31.5377 31.4931 31.5295 31.4848 31.6195 31.4848C31.6522 31.4681 31.6604 31.4265 31.6441 31.3766C31.6359 31.3682 31.6359 31.3599 31.6277 31.3433C31.6031 31.2933 31.5704 31.2517 31.5377 31.2017C31.4722 31.1102 31.4067 31.0269 31.3248 30.952C30.9892 30.644 30.9483 30.1695 30.6864 29.8198C30.6454 29.3453 30.2035 29.1122 30.0643 28.7043C29.8352 28.3463 29.7533 27.9134 29.4586 27.6137C29.2212 27.2724 28.9839 26.9394 28.8611 26.5481C28.3945 26.3567 28.5337 25.8072 28.2799 25.5075C28.1981 25.0996 27.8788 24.8415 27.7233 24.4919C27.486 24.1922 27.4778 23.7593 27.1831 23.5012C27.0276 23.1682 26.7329 22.9101 26.6675 22.5439C26.3564 22.3108 26.4301 21.8612 26.1682 21.6198C25.9963 21.3201 25.8244 21.0371 25.6934 20.729C25.7425 20.3211 25.4069 20.138 25.235 19.8799C25.1041 19.5969 24.8094 19.4054 24.8012 19.0641C24.6702 18.7977 24.6211 18.4897 24.3919 18.2899C24.3101 18.1733 24.3183 18.0068 24.2937 17.8653C24.2855 17.832 24.2856 17.807 24.2774 17.7737C24.2692 17.7487 24.261 17.7321 24.2528 17.7154C24.2282 17.6821 24.1791 17.6738 24.1137 17.7238C24.0809 17.7071 24.0809 17.6655 24.0728 17.5989C24.0646 17.5323 24.0563 17.4574 24.04 17.3908C23.9991 17.3908 23.9418 17.4324 23.8927 17.5573C23.8354 17.7071 23.8108 17.7154 23.7617 17.7071C23.7372 17.7071 23.7044 17.6988 23.6716 17.6905C23.6143 17.6988 23.5571 17.7154 23.508 17.7487C23.3115 17.8486 23.1151 17.9485 22.9268 18.0484C21.2652 18.9059 20.283 19.3388 20.2175 19.2222C20.1438 19.0974 21.2161 18.3065 23.1069 17.0578C23.156 17.0245 23.1969 16.9829 23.2378 16.9412C23.3033 16.883 23.377 16.8164 23.4507 16.7581C23.598 16.6415 23.7862 16.525 23.9418 16.5167C24.0645 16.4417 24.1955 16.3502 24.3347 16.2419C24.4656 16.4168 24.6129 16.6249 24.703 16.9079C24.793 16.9495 24.8667 17.0245 24.9404 17.116C24.9731 17.1577 25.0059 17.2076 25.0304 17.2576C25.0468 17.2826 25.0631 17.3159 25.0713 17.3325L25.0877 17.3824C25.1368 17.5156 25.1614 17.6572 25.2268 17.7821C25.3742 18.0235 25.456 18.3148 25.6852 18.523C25.9471 18.7144 25.9226 19.0807 26.16 19.3055C26.1927 19.6468 26.3891 19.9132 26.6593 20.1296C26.7002 20.4876 27.0112 20.6957 27.1749 20.9954C27.1667 21.395 27.4614 21.6281 27.7151 21.8945C27.9525 22.1692 28.0426 22.5355 28.2718 22.8352C28.4191 23.1766 28.681 23.4596 28.8447 23.8093C29.1148 24.0923 29.344 24.4086 29.4341 24.8082C29.6878 25.1162 29.8351 25.4909 30.0316 25.8405C30.3017 26.1485 30.4245 26.5481 30.6455 26.8978C30.8828 27.2308 30.8665 27.7303 31.2675 27.98C31.5049 28.3297 31.6523 28.7376 31.906 29.0872C32.0943 29.4785 32.2825 29.8698 32.5526 30.2111C32.5608 30.336 32.5854 30.4442 32.6181 30.5524C32.6345 30.6024 32.659 30.6523 32.6836 30.7022C32.7245 30.7772 32.7736 30.8688 32.8228 30.9437C33.0274 31.2683 33.2811 31.6096 33.5512 31.9926C33.2402 32.2174 32.8719 32.4421 32.5117 32.6503L32.2416 32.8001L32.0943 32.875L31.7996 33.0166C31.4394 33.258 31.0629 33.4661 30.6864 33.6659C30.5227 33.7991 30.3262 33.8907 30.1298 33.9823C30.0316 34.0239 29.9334 34.0738 29.8433 34.1238C29.7451 34.182 29.696 34.2153 29.5077 34.3569C29.3276 34.4984 29.123 34.6149 28.9348 34.7232C28.7383 34.8314 28.5501 34.923 28.37 35.0145C28.2145 34.6982 28.0671 34.4151 27.8788 34.1654L27.7151 33.9323C27.666 33.8574 27.6169 33.7741 27.5596 33.6992C27.5023 33.616 27.4451 33.5327 27.3878 33.4411C27.2813 33.2663 27.1995 33.0832 27.1504 32.875C26.9539 32.5254 26.9376 32.0758 26.5692 31.8344C26.34 31.5181 25.9226 31.31 26.0126 30.8188C25.7589 30.5274 25.7671 30.0862 25.4724 29.8281C25.4888 29.3869 25.1205 29.1871 24.9486 28.8708C24.8094 28.5378 24.703 28.1965 24.4492 27.9467C24.1873 27.7053 24.1628 27.3223 23.9745 27.0559C23.6962 26.8395 23.8026 26.3983 23.5162 26.2068C23.3852 25.9155 23.1969 25.674 23.0823 25.391C22.6649 25.2911 22.7958 24.8748 22.6813 24.6168C22.583 24.3504 22.231 24.2338 22.3047 23.8842C21.9691 23.7759 22.0182 23.4513 21.9528 23.2015C21.8873 22.9518 21.6253 22.8269 21.6253 22.5605C21.3716 22.444 21.4862 22.1276 21.3307 21.9695C21.3225 21.728 21.1342 21.6115 21.0687 21.4283C20.946 21.2868 20.8641 21.1203 20.8396 20.9455C20.7659 20.7956 20.7004 20.6541 20.6431 20.5209C20.2912 19.7384 20.1274 19.2805 20.2011 19.2306Z" fill="#202020"/>
<path d="M21.5271 21.5779C21.6008 21.5363 21.8546 21.8027 22.2393 22.3355C22.3047 22.4271 22.3702 22.5186 22.4439 22.6269C22.5257 22.7268 22.6158 22.8266 22.6731 22.9598C22.6404 23.143 23.0005 23.1014 22.9268 23.3345C22.9596 23.501 23.0824 23.6175 23.197 23.7424C23.3197 23.8756 23.3034 24.0837 23.4916 24.1919C23.7781 24.2419 23.4671 24.6498 23.8027 24.6748C23.95 24.8163 24.0401 25.0078 24.1301 25.1992C24.0892 25.474 24.3429 25.5739 24.4739 25.757C24.4084 26.0567 24.5966 26.2149 24.8422 26.3481C24.7112 26.6977 24.8749 26.8892 25.2187 26.9641C25.3497 27.1723 25.3742 27.447 25.6116 27.6135C25.7589 27.8299 25.9308 28.0297 26.0209 28.2878C26.3155 28.4293 26.4465 28.6624 26.4383 28.9871C26.7493 29.1286 26.8148 29.4116 26.8721 29.7113C26.913 30.0194 27.3141 30.1192 27.3141 30.4606C27.3468 30.5272 27.3878 30.5938 27.4287 30.6521C27.4942 30.7603 27.5597 30.8768 27.6333 30.985C27.7725 31.2181 27.9198 31.4595 28.0344 31.701L28.1244 31.9507C27.8952 32.0506 27.6906 32.1422 27.5105 32.2504C27.3305 32.3586 27.175 32.4835 27.0276 32.6667L26.9458 32.7249L26.9212 32.7416L26.913 32.7499L26.8885 32.7666L26.7984 32.8415C26.7329 32.8914 26.6757 32.9414 26.6102 32.983C26.4792 33.0663 26.3401 33.1412 26.1764 33.1745C26.0127 33.5241 25.6935 33.5991 25.3579 33.6657C25.0959 33.8571 24.744 33.8904 24.523 34.1568C24.4247 34.1901 24.1137 34.4066 23.8682 34.5731C23.6062 34.7479 23.3279 34.9227 23.0742 35.0143C22.935 34.6979 22.8041 34.4066 22.6649 34.1485C22.5339 33.8987 22.3457 33.599 22.2393 33.5324C21.961 33.316 21.9692 32.9331 21.7645 32.6833C21.7809 32.3004 21.388 32.1589 21.298 31.8508C21.1261 31.5844 21.0852 31.2431 20.8396 31.0267C20.6514 30.7769 20.4712 30.5272 20.3976 30.2191C19.9801 30.1109 20.1684 29.6531 19.9638 29.4366C19.9311 29.112 19.6609 28.9371 19.5463 28.6707C19.3581 28.4543 19.3908 28.1046 19.1453 27.9298C19.0307 27.6717 18.7851 27.5052 18.7605 27.2055C18.4904 27.0474 18.6132 26.6811 18.3922 26.5063C18.2695 26.2815 18.1303 26.065 18.0403 25.8319C18.1303 25.4906 17.8356 25.3824 17.7047 25.1909C17.6556 25.0827 17.5737 24.9995 17.5 24.9079C17.3936 24.758 17.2872 24.5666 17.2872 24.4001C17.1644 24.1586 17.1235 23.9505 16.9926 23.7424C17.058 23.7008 17.1235 23.6508 17.1645 23.5925C17.2872 23.501 17.5246 23.4594 17.6965 23.4261C17.8684 23.3844 17.9748 23.3428 18.0157 23.1264C18.0321 23.1097 18.0484 23.1014 18.0648 23.093C18.0812 23.0847 18.0894 23.0764 18.0975 23.0764C18.1221 23.0681 18.1467 23.0598 18.1712 23.0514C18.2203 23.0431 18.2776 23.0431 18.3267 23.0348C18.4332 23.0265 18.5232 22.9932 18.5478 22.8516C18.6051 22.5852 18.8751 22.6935 19.0225 22.6102C19.178 22.5353 19.3172 22.4604 19.4645 22.3938C20.725 21.7777 21.4781 21.478 21.5435 21.5946C21.6172 21.7195 20.8233 22.3438 19.4154 23.3012C19.2762 23.4011 19.2025 23.6342 18.9734 23.6009C18.8915 23.6425 18.826 23.7257 18.7605 23.7923C18.7278 23.8256 18.6869 23.8589 18.646 23.8756C18.6214 23.8839 18.605 23.9006 18.5805 23.9006C18.5723 23.9006 18.556 23.9089 18.5478 23.9089C18.5396 23.9089 18.5314 23.9089 18.5232 23.9006C18.5477 24.0171 18.5478 24.0338 18.4987 24.0338C18.4577 24.0338 18.3759 24.0255 18.3267 24.0504C18.3104 24.0588 18.294 24.0754 18.2694 24.0837C18.2858 24.1337 18.294 24.2003 18.4004 24.2502C18.4905 24.2752 18.4823 24.2918 18.4823 24.3418C18.5232 24.45 18.556 24.5666 18.6542 24.6498C18.6542 24.9245 18.8015 25.116 19.0307 25.2659C19.0389 25.5489 19.3008 25.6904 19.4236 25.9152C19.3745 26.2482 19.6282 26.398 19.8329 26.5895C20.0293 26.781 20.0702 27.0723 20.2503 27.2888C20.3485 27.5552 20.5695 27.7467 20.6841 28.0131C20.9133 28.2129 21.0852 28.4459 21.1261 28.7623C21.3307 28.9871 21.4289 29.2701 21.5763 29.5365C21.7973 29.7613 21.8709 30.0693 22.0428 30.3274C22.2311 30.5771 22.1574 30.985 22.5176 31.1432C22.6977 31.4013 22.8041 31.7176 22.9923 31.9757C23.1233 32.2671 23.2624 32.5668 23.4752 32.8248C23.4834 33.0663 23.4589 33.0662 23.4998 33.1079C23.5326 33.1328 23.5817 33.1079 23.6062 33.0579C23.6308 33.008 23.639 32.9913 23.6471 32.9913C23.6717 32.983 23.6226 33.0329 23.8272 32.9247C24.0973 32.7416 24.3838 32.5834 24.6621 32.4419C24.9077 32.2171 25.2596 32.2005 25.4806 31.9674C25.5952 31.8425 25.7425 31.7925 25.8899 31.7343C25.9635 31.7093 26.0372 31.676 26.1027 31.6427C26.1354 31.6261 26.1682 31.6094 26.2009 31.5844L26.2255 31.5678L26.2336 31.5595C26.2336 31.5511 26.2336 31.5511 26.2336 31.5428C26.2336 31.4762 26.1928 31.4679 26.2746 31.4762C26.291 31.4762 26.3074 31.4762 26.3237 31.4679C26.3155 31.4512 26.3565 31.4263 26.3646 31.3846C26.3646 31.3763 26.3646 31.368 26.3646 31.3513C26.3646 31.343 26.3646 31.343 26.3564 31.3347L26.3401 31.3097C26.2991 31.2514 26.2419 31.2015 26.16 31.1599C25.9799 30.9268 25.6116 30.8019 25.7426 30.394C25.5297 30.1859 25.5952 29.8196 25.3415 29.6531C25.407 29.2951 25.0795 29.1702 24.9568 28.9288C24.8667 28.6707 24.8013 28.4043 24.5885 28.2295C24.3675 28.063 24.3838 27.755 24.2365 27.5552C23.9991 27.4053 24.1464 27.039 23.9009 26.9142C23.8108 26.6894 23.6553 26.5229 23.5816 26.2981C23.2051 26.2648 23.3688 25.9152 23.287 25.7154C23.2215 25.5073 22.9023 25.4573 23.0087 25.166C22.7058 25.116 22.7877 24.8413 22.7549 24.6498C22.7222 24.4583 22.4848 24.3834 22.5176 24.167C22.2884 24.1004 22.4275 23.8256 22.3048 23.7174C22.3211 23.5259 22.1574 23.451 22.1165 23.3095C22.0183 23.2013 21.961 23.0847 21.9528 22.9432C21.9037 22.8267 21.8546 22.7184 21.8137 22.6185C21.5599 21.9775 21.4535 21.6196 21.5271 21.5779Z" fill="#202020"/>
<path d="M40.967 7.02626C41.0407 6.98464 41.3517 7.35925 41.851 8.08351C41.9329 8.20838 42.0229 8.33326 42.113 8.47478C42.2112 8.60798 42.3258 8.74951 42.4076 8.92433C42.3994 9.1491 42.7842 9.15743 42.735 9.42383C42.7923 9.63195 42.9397 9.79845 43.087 9.97327C43.2343 10.1481 43.2507 10.4145 43.4635 10.5727C43.7746 10.6726 43.4963 11.1388 43.8728 11.222C44.0529 11.4218 44.1756 11.6715 44.3066 11.9213C44.2984 12.2543 44.5849 12.4208 44.765 12.6622C44.7322 13.0285 44.9614 13.2449 45.2397 13.4531C45.1497 13.8693 45.3461 14.1274 45.739 14.2772C45.9109 14.5603 45.9764 14.9099 46.2547 15.143C46.4429 15.4344 46.6558 15.7091 46.7867 16.0421C47.1223 16.2585 47.2942 16.5749 47.3433 16.9828C47.7035 17.1993 47.8181 17.5656 47.9163 17.9568C48.0063 18.3481 48.4483 18.5396 48.5056 18.9558C48.6857 19.3054 48.9312 19.6218 49.1031 19.9881C49.1686 20.1796 49.2259 20.3794 49.3241 20.5625C49.3732 20.6541 49.4224 20.7373 49.4878 20.8206C49.496 20.8289 49.5042 20.8456 49.5206 20.8622L49.5615 20.9205C49.586 20.9538 49.6188 20.9954 49.6434 21.0287C49.7007 21.1036 49.7661 21.1785 49.8398 21.2535C50.0199 21.5282 50.2163 21.8196 50.3964 22.1193C50.0362 22.3524 49.6188 22.5938 49.1932 22.7686C49.0213 22.9351 48.9885 22.9934 48.9067 23.0683C48.8248 23.1349 48.7348 23.1932 48.6447 23.2431C48.4565 23.343 48.2437 23.4013 48.039 23.4596C47.6871 23.7093 47.2451 23.7926 46.9341 24.1172C46.8358 24.1672 46.7458 24.2171 46.6557 24.2837L46.5248 24.3753L46.2711 24.5418C45.9273 24.7666 45.5507 24.9997 45.2151 25.1412C45.0269 24.7333 44.8468 24.367 44.6667 24.0257C44.6176 23.9424 44.5685 23.8508 44.5276 23.7759C44.4949 23.726 44.4703 23.6843 44.4376 23.6344C44.3721 23.5428 44.3066 23.4596 44.2248 23.3763C43.8892 23.0683 43.8482 22.5938 43.5863 22.2441C43.5535 21.7696 43.1115 21.5365 42.9642 21.1286C42.7432 20.7706 42.6532 20.3377 42.3503 20.038C42.1129 19.6967 41.8838 19.3637 41.761 18.9725C41.2944 18.781 41.4336 18.2399 41.1798 17.9319C41.098 17.5239 40.7788 17.2659 40.6232 16.9162C40.3859 16.6165 40.3777 16.1836 40.083 15.9256C39.9193 15.5926 39.6328 15.3345 39.5592 14.9682C39.2481 14.7351 39.3218 14.2855 39.0599 14.0441C38.888 13.7444 38.7161 13.4531 38.5851 13.1534C38.6342 12.7454 38.2987 12.5623 38.135 12.3042C38.004 12.0212 37.7093 11.838 37.7011 11.4884C37.5702 11.222 37.521 10.914 37.2919 10.7142C37.21 10.5976 37.2182 10.4395 37.1936 10.2896C37.1855 10.2563 37.1855 10.223 37.1609 10.1731C37.1445 10.1314 37.12 10.0898 37.0954 10.0482C37.0381 9.97327 36.9563 9.89833 36.8253 9.82341C36.7434 9.71518 36.6943 9.59865 36.6698 9.49875C36.637 9.39885 36.6289 9.30728 36.5961 9.21571C36.7435 9.14911 36.8417 9.09083 36.8744 8.97428C36.9317 8.82443 37.12 8.71622 37.3 8.64962C37.3901 8.61632 37.4883 8.58301 37.562 8.55804C37.6193 8.54971 37.6766 8.53306 37.7257 8.49976C37.9303 8.39986 38.1186 8.29997 38.3068 8.20007C39.9684 7.34261 40.9506 6.90971 41.0161 7.02626C41.0898 7.15113 40.0175 7.942 38.1186 9.19073C38.0695 9.22403 38.0286 9.26565 37.9876 9.30727C37.9631 9.34057 37.9548 9.36554 37.9467 9.38219C37.9221 9.42381 37.8976 9.44879 37.7748 9.43214C37.7339 9.45711 37.7175 9.48209 37.7093 9.51539C37.783 9.59032 37.8321 9.62363 37.8075 9.69023C37.8812 9.70688 37.9221 9.7152 37.9467 9.73185C37.9548 9.74017 37.9631 9.7485 37.9712 9.75682C37.9712 9.76514 37.9712 9.75681 37.9794 9.77346L37.9958 9.82341C38.0449 9.94828 38.0695 10.0981 38.135 10.223C38.2823 10.4644 38.3641 10.7558 38.5851 10.9639C38.8471 11.1554 38.8225 11.5217 39.0599 11.7465C39.0926 12.0878 39.2891 12.3542 39.5592 12.5706C39.6083 12.9203 39.9111 13.1367 40.0748 13.4364C40.0667 13.836 40.3613 14.0691 40.6151 14.3355C40.8606 14.6102 40.9425 14.9765 41.1716 15.2762C41.319 15.6175 41.5809 15.9006 41.7446 16.2502C42.0147 16.5333 42.2357 16.8496 42.3258 17.2492C42.5795 17.5572 42.7268 17.9318 42.9233 18.2815C43.1934 18.5895 43.3162 18.9891 43.5372 19.3388C43.7746 19.6718 43.7582 20.1712 44.1593 20.421C44.3884 20.7706 44.544 21.1786 44.7977 21.5282C44.986 21.9195 45.1742 22.3107 45.4443 22.652C45.4525 22.7769 45.4771 22.8851 45.5098 22.9934C45.5262 23.0433 45.5507 23.0933 45.5753 23.1432C45.5835 23.1599 45.5917 23.1682 45.5999 23.1765C45.6408 23.2181 45.6981 23.2015 45.7308 23.1599C45.7636 23.1016 45.7717 23.0933 45.7881 23.085C45.7963 23.085 45.7963 23.085 45.8045 23.085L45.9518 23.01L46.2465 22.8685C46.6066 22.6271 46.9831 22.419 47.3597 22.2192C47.5234 22.0776 47.7199 21.9944 47.9163 21.9028C48.0145 21.8612 48.1045 21.8113 48.1946 21.7613C48.2437 21.7363 48.2846 21.7113 48.3256 21.678C48.3829 21.6364 48.3747 21.6364 48.3747 21.6198C48.3747 21.5865 48.3746 21.5865 48.391 21.5865C48.4074 21.5865 48.4401 21.5865 48.4729 21.5865C48.4893 21.5698 48.481 21.5365 48.4319 21.5199C48.4156 21.5115 48.4074 21.5115 48.3992 21.5115H48.3828H48.3747C48.3747 21.5115 48.3747 21.5115 48.3665 21.4949C48.3092 21.4117 48.2519 21.3284 48.1946 21.2368C48.0882 21.062 48.0063 20.8788 47.9572 20.6707C47.7608 20.3211 47.7444 19.8715 47.3842 19.6301C47.1551 19.3138 46.7376 19.1057 46.8277 18.6145C46.5739 18.3231 46.5821 17.8819 46.2874 17.6238C46.3038 17.1826 45.9355 16.9828 45.7636 16.6665C45.6244 16.3335 45.518 15.9922 45.2642 15.7424C45.0023 15.501 44.9778 15.118 44.7895 14.8516C44.5112 14.6352 44.6176 14.194 44.3393 14.0025C44.2084 13.7111 44.0119 13.4697 43.9055 13.1867C43.4881 13.0868 43.619 12.6705 43.4963 12.4125C43.398 12.1461 43.0461 12.0295 43.1197 11.6799C42.7841 11.5716 42.8332 11.2386 42.7678 10.9972C42.7023 10.7475 42.4403 10.6226 42.4485 10.3645C42.1948 10.248 42.3094 9.93163 42.1539 9.77346C42.1457 9.53204 41.9574 9.4155 41.8919 9.23235C41.7692 9.09083 41.6873 8.92434 41.6628 8.74952C41.5891 8.59967 41.5236 8.44981 41.4663 8.32494C41.0571 7.53408 40.8852 7.07621 40.967 7.02626Z" fill="#202020"/>
<path d="M42.293 9.37367C42.3666 9.33205 42.6204 9.59844 43.0133 10.1312C43.0788 10.2228 43.1442 10.3144 43.2179 10.4226C43.2998 10.5225 43.3898 10.6224 43.4471 10.7556C43.4144 10.9387 43.7745 10.9054 43.7009 11.1302C43.7336 11.2967 43.8564 11.4133 43.971 11.5381C44.0938 11.6713 44.0774 11.8794 44.2656 11.9877C44.5521 12.0376 44.2411 12.4455 44.5767 12.4705C44.724 12.612 44.814 12.8035 44.9041 12.9867C44.8631 13.2614 45.1169 13.3613 45.2479 13.5444C45.1824 13.8441 45.3707 14.0023 45.608 14.1355C45.4771 14.4851 45.6407 14.6683 45.9845 14.7515C46.1155 14.9597 46.1483 15.2344 46.3774 15.4009C46.5166 15.6173 46.6967 15.8171 46.7867 16.0752C47.0814 16.2167 47.2123 16.4581 47.2041 16.7745C47.5152 16.916 47.5807 17.199 47.638 17.4987C47.6789 17.8068 48.0799 17.915 48.0799 18.248C48.1127 18.3146 48.1536 18.3812 48.1945 18.4394C48.1945 18.4478 48.2027 18.4561 48.2027 18.4561L48.2109 18.4644L48.2191 18.4728L48.2355 18.4894C48.2518 18.506 48.2682 18.5227 48.2764 18.5643C48.2764 18.5893 48.2764 18.6226 48.2764 18.6559C48.2928 18.6809 48.3173 18.6892 48.3501 18.6725C48.3828 18.6476 48.4155 18.5976 48.3992 18.5144C48.3828 18.5144 48.4647 18.4478 48.522 18.3978C48.5793 18.3479 48.6447 18.2979 48.7102 18.2563C48.8412 18.173 48.9804 18.0981 49.1441 18.0648C49.3078 17.7152 49.627 17.6403 49.9626 17.582C50.2163 17.3905 50.5764 17.3572 50.7974 17.0908C50.8302 17.0742 50.8711 17.0575 50.9038 17.0325L50.9284 17.0159C50.9366 17.0076 50.9448 17.0076 50.9448 17.0076C50.9448 17.0076 50.9448 17.0076 50.953 16.9993C50.9611 16.9909 50.9612 16.9743 50.9612 16.966C50.9693 16.941 50.9611 16.941 51.043 16.941C51.0757 16.9327 51.0921 16.8994 51.0839 16.8661C51.0676 16.8161 51.0676 16.8494 50.9038 16.6912C50.6256 16.4748 50.6337 16.0918 50.4291 15.8421C50.4455 15.4591 50.0526 15.3176 49.9626 15.0096C49.7907 14.7432 49.7498 14.4019 49.5042 14.1854C49.3159 13.9357 49.1358 13.686 49.0622 13.3779C48.6447 13.2697 48.833 12.8118 48.6284 12.5954C48.5956 12.2707 48.3255 12.0959 48.2109 11.8295C48.0227 11.613 48.0554 11.2634 47.8099 11.0886C47.6953 10.8305 47.4497 10.664 47.4251 10.3643C47.155 10.2062 47.2778 9.83987 47.0568 9.66505C46.934 9.44027 46.7949 9.2238 46.7048 8.99071C46.7949 8.64939 46.5002 8.54117 46.3693 8.3497C46.3201 8.24148 46.2383 8.15823 46.1646 8.06666C46.1319 8.03336 46.1237 8.02504 46.1564 7.91682C46.1401 7.85022 46.1319 7.71702 46.0909 7.65875C46.0664 7.6754 46.0419 7.70036 46.0173 7.75031C45.9764 7.79193 45.9518 7.7087 45.8863 7.68372C45.829 7.65042 45.7472 7.68371 45.7799 7.8502C45.7799 7.85853 45.7717 7.85854 45.7717 7.86687C45.7635 7.87519 45.7553 7.88351 45.739 7.88351C45.7144 7.89183 45.6899 7.90016 45.6653 7.90848C45.6162 7.91681 45.5589 7.9168 45.5098 7.92512C45.4034 7.93345 45.3134 7.96675 45.2888 8.10827C45.2315 8.37467 44.9614 8.26645 44.814 8.3497C44.6585 8.42462 44.5112 8.49956 44.3721 8.56616C43.1115 9.1822 42.3585 9.48188 42.293 9.36534C42.2193 9.24046 43.0133 8.61611 44.4212 7.65875C44.5603 7.55885 44.6258 7.32574 44.8632 7.35904C44.945 7.30909 45.0105 7.23418 45.076 7.16758C45.1087 7.13428 45.1497 7.10098 45.1906 7.08433C45.2151 7.076 45.2315 7.05935 45.2561 7.05935C45.2888 7.05103 45.3216 7.04271 45.3543 7.03438C45.4361 6.85123 45.5998 6.75132 45.7472 6.68473C45.9027 6.61813 46.05 6.59316 46.1892 6.50991C46.2628 6.45996 46.3447 6.41833 46.4184 6.37671C46.5411 6.61813 46.6476 6.85123 46.8276 7.03438C46.9586 7.1426 47.0568 7.33406 47.1305 7.50888C47.1714 7.6171 47.2042 7.73367 47.3024 7.81692C47.3024 8.09164 47.4497 8.28311 47.6789 8.43295C47.6871 8.716 47.949 8.8492 48.0718 9.08229C48.0227 9.41529 48.2764 9.56513 48.4811 9.75661C48.6775 9.94808 48.7184 10.2394 48.8985 10.4559C48.9967 10.714 49.2177 10.9138 49.3323 11.1802C49.5615 11.38 49.7334 11.613 49.7743 11.9294C49.9789 12.1542 50.0771 12.4372 50.2245 12.7036C50.4455 12.9284 50.5191 13.2364 50.691 13.4945C50.8793 13.7442 50.8056 14.1521 51.1658 14.3103C51.3459 14.5684 51.4441 14.8847 51.6405 15.1428C51.7715 15.4425 51.9106 15.7339 52.1234 15.9919C52.0825 16.1418 52.2299 16.4581 52.3854 16.6912C52.5409 16.9326 52.7537 17.1907 52.9747 17.4821H52.9665C52.7455 17.6569 52.4754 17.8234 52.1971 17.9816C52.058 18.0565 51.9188 18.1398 51.7797 18.2064L51.6733 18.2646C51.6569 18.273 51.6405 18.2813 51.6323 18.2813L51.6078 18.2979L51.4932 18.3479C51.2231 18.531 50.9448 18.6892 50.6583 18.8307C50.4127 19.0555 50.0608 19.0721 49.8398 19.3052C49.7252 19.4301 49.5779 19.4801 49.4305 19.5383C49.3569 19.5633 49.2832 19.5966 49.2177 19.6299C49.144 19.6715 49.1113 19.6965 48.9721 19.8047C48.6038 20.0878 48.1618 20.3875 47.7771 20.554C47.728 20.4457 47.6789 20.3292 47.638 20.2043C47.4988 19.9629 47.3924 19.6715 47.286 19.4218C47.2614 19.3635 47.2287 19.2969 47.2041 19.247L47.155 19.1637C47.1386 19.1387 47.1223 19.1054 47.1141 19.0971C47.0732 19.0388 47.0159 18.9806 46.934 18.9473C46.754 18.7142 46.3856 18.5893 46.5166 18.1814C46.3038 17.9733 46.3693 17.607 46.1155 17.4405C46.181 17.0825 45.8536 16.9576 45.7308 16.7162C45.6407 16.4581 45.5753 16.1917 45.3624 16.0169C45.1414 15.8504 45.1578 15.5424 45.0105 15.3426C44.7731 15.1927 44.9205 14.8265 44.6749 14.7016C44.5849 14.4851 44.4293 14.302 44.3557 14.0856C43.9792 14.0523 44.1347 13.7026 44.0528 13.5028C43.9873 13.2947 43.6681 13.2447 43.7746 12.9534C43.4717 12.9034 43.5535 12.6287 43.5126 12.4372C43.4799 12.2374 43.2507 12.1708 43.2752 11.9544C43.046 11.8878 43.1852 11.6131 43.0624 11.5048C43.0788 11.3134 42.9151 11.2384 42.8742 11.0969C42.7677 10.9887 42.7186 10.8722 42.7104 10.7306C42.6613 10.6141 42.6122 10.5058 42.5713 10.4059C42.3257 9.77326 42.2193 9.41529 42.293 9.37367Z" fill="#202020"/>
</svg>
