<svg width="25" height="24" viewBox="0 0 25 24" fill="none" xmlns="http://www.w3.org/2000/svg">
<path d="M20.5 2C20.5 2 18.5 6.68839 18.5 10.5714C18.5 11.8147 18.926 12.855 19.5 13.8912C20.1606 15.0836 21.0171 16.2704 21.6457 17.7543C22.1446 18.932 22.5 20.2968 22.5 22" stroke="#87CEDD" stroke-width="1.5" stroke-linecap="round" stroke-linejoin="round"/>
<path d="M4.5 2C4.5 2 6.5 6.68839 6.5 10.5714C6.5 11.8147 6.07398 12.855 5.50001 13.8912C4.83945 15.0836 3.98291 16.2704 3.35426 17.7543C2.85537 18.932 2.5 20.2968 2.5 22" stroke="#87CEDD" stroke-width="1.5" stroke-linecap="round" stroke-linejoin="round"/>
<path d="M6.5 13H18.5" stroke="#87CEDD" stroke-width="1.5" stroke-linecap="round"/>
<path d="M12.5 22C13 20.5 15.5 17.5 21.5 17.5" stroke="#87CEDD" stroke-width="1.5" stroke-linecap="round"/>
<path d="M12.5 22C12 20.5 9.5 17.5 3.5 17.5" stroke="#87CEDD" stroke-width="1.5" stroke-linecap="round"/>
</svg>
