<svg width="47" height="48" viewBox="0 0 47 48" fill="none" xmlns="http://www.w3.org/2000/svg">
<rect width="47" height="48" rx="23.5" fill="#87CEDD"/>
<path d="M31.5 14C31.5 14 29.5 18.6884 29.5 22.5714C29.5 23.8147 29.926 24.855 30.5 25.8912C31.1606 27.0836 32.0171 28.2704 32.6457 29.7543C33.1446 30.932 33.5 32.2968 33.5 34" stroke="#202020" stroke-width="1.5" stroke-linecap="round" stroke-linejoin="round"/>
<path d="M15.5 14C15.5 14 17.5 18.6884 17.5 22.5714C17.5 23.8147 17.074 24.855 16.5 25.8912C15.8394 27.0836 14.9829 28.2704 14.3543 29.7543C13.8554 30.932 13.5 32.2968 13.5 34" stroke="#202020" stroke-width="1.5" stroke-linecap="round" stroke-linejoin="round"/>
<path d="M17.5 25H29.5" stroke="#202020" stroke-width="1.5" stroke-linecap="round"/>
<path d="M23.5 34C24 32.5 26.5 29.5 32.5 29.5" stroke="#202020" stroke-width="1.5" stroke-linecap="round"/>
<path d="M23.5 34C23 32.5 20.5 29.5 14.5 29.5" stroke="#202020" stroke-width="1.5" stroke-linecap="round"/>
</svg>
