<svg width="76" height="88" viewBox="0 0 76 88" fill="none" xmlns="http://www.w3.org/2000/svg">
<path d="M43.8179 68.5433C43.8485 68.5024 44.369 68.9012 45.3285 69.709C45.8082 70.1078 46.4002 70.6089 47.1044 71.2019C47.4515 71.4985 47.8291 71.8257 48.2374 72.1632C48.6661 72.5313 49.1254 72.9301 49.6153 73.3494C49.6255 73.8709 49.6358 74.4231 49.646 75.0059C49.6562 75.9671 49.6766 77.0102 49.697 78.1146C49.7276 79.2189 49.7582 80.3949 49.7378 81.6425C49.697 81.9492 49.697 82.2662 49.7174 82.5934C49.7174 82.6753 49.7276 82.7571 49.7276 82.8287C49.7276 82.9105 49.748 82.9718 49.7582 83.0536C49.7684 83.1252 49.7786 83.1968 49.7888 83.2683L49.8501 83.4831C49.8807 83.6262 49.942 83.7592 49.993 83.8921C50.044 84.025 50.1155 84.158 50.1767 84.2909C50.2175 84.3523 50.2482 84.4239 50.2788 84.4852L50.3298 84.5874L50.391 84.6795C50.4319 84.7409 50.4625 84.8124 50.5033 84.884C50.5442 84.9556 50.585 85.017 50.6258 85.0885C50.8095 85.3442 51.0443 85.5589 51.2995 85.7532C51.4321 85.835 51.5648 85.9475 51.7077 86.0088L51.9221 86.1213C51.9935 86.152 52.0752 86.1827 52.1466 86.2134C52.4528 86.3463 52.7794 86.4179 53.1061 86.4792C53.4429 86.5201 53.7797 86.5406 54.1166 86.5099C54.1982 86.4997 54.2901 86.4997 54.3717 86.4895L54.6269 86.4485C54.8004 86.4281 54.9637 86.377 55.1372 86.3463C55.4741 86.2542 55.8007 86.1418 56.1171 85.9679C56.2804 85.8964 56.4131 85.7839 56.5662 85.6918C56.6989 85.5794 56.852 85.4771 56.9744 85.3442C57.2296 85.0988 57.4338 84.792 57.5766 84.4647C57.6991 84.1273 57.791 83.7899 57.8624 83.4524C57.8726 83.3706 57.9033 83.2786 57.9135 83.1968C57.9237 83.115 57.9339 83.0229 57.9441 82.9309C57.9645 82.7366 57.9747 82.5116 57.9951 82.3071C58.0666 81.4584 58.1278 80.5994 57.9543 79.7302C57.8829 77.9816 57.9033 76.1717 57.9135 74.3106C57.9645 73.8402 57.9951 73.38 58.0053 72.8994C58.0156 72.6642 58.0156 72.429 58.0053 72.1938L57.9951 71.836C57.9951 71.7133 57.9747 71.6212 57.9747 71.5189C57.8727 70.6907 57.4337 69.9442 56.8009 69.392C56.7703 69.3511 56.7295 69.3 56.6887 69.2591L56.5662 69.1159L56.311 68.8398C56.1375 68.6557 55.964 68.4819 55.7905 68.3081C55.4332 67.9604 55.0556 67.6332 54.6677 67.3059C53.892 66.6617 53.0652 66.0584 52.2181 65.4653C51.5342 64.6677 50.7789 63.9417 49.9522 63.2668C49.1356 62.5817 48.2476 61.9681 47.3494 61.2216C46.9616 60.7819 46.5941 60.3013 46.3185 59.7286C46.0429 59.156 45.8898 58.5425 45.8082 57.9494C45.6449 56.753 45.6857 55.6077 45.6449 54.4624C45.7163 52.1821 45.7776 49.8915 45.9 47.5396C45.8184 46.3636 45.7776 45.1876 45.7878 43.9912C45.7878 43.6947 45.798 43.3981 45.798 43.0914C45.8082 42.8459 45.8082 42.6005 45.8184 42.3551L45.8286 41.9358V41.8336V41.7825C45.8286 41.762 45.8184 41.7416 45.849 41.7416L46.043 41.6598C46.3083 41.5473 46.5635 41.445 46.8289 41.3325L47.0228 41.2507L47.227 41.1485C47.5025 41.0155 47.7781 40.8826 48.0537 40.7497C50.044 39.3181 52.2385 38.1728 54.4738 37.0377C56.7193 35.9129 58.7504 34.3279 61.098 33.2133C62.2208 32.5793 63.3435 31.9146 64.4765 31.2602L64.895 31.0148C65.0072 30.9329 65.1195 30.8716 65.2318 30.7898C65.4359 30.6262 65.6502 30.4523 65.8136 30.2478C66.1504 29.849 66.4158 29.3786 66.5178 28.8776C66.6505 28.3765 66.6505 27.8345 66.4872 27.3335C66.3341 26.8222 66.0381 26.3416 65.6196 25.953C65.2114 25.5746 64.6908 25.2883 64.1396 25.1349C63.5885 24.9713 62.9863 24.9611 62.4351 25.0736C61.8737 25.1452 61.3327 25.3292 60.853 25.6156C60.2712 25.9632 59.6793 26.3211 59.0873 26.6688C57.9033 27.3642 56.6989 28.0391 55.4638 28.673C53.1877 30.2887 50.6973 31.5772 48.1762 32.8656C47.5638 33.2235 46.9616 33.5712 46.3287 33.9291L45.4714 34.4097L45.257 34.5324C45.2162 34.5733 45.1856 34.5222 45.155 34.5017L45.0631 34.4199L44.6854 34.1029L44.3078 33.7962L44.2057 33.7143C44.1751 33.6939 44.1445 33.6735 44.1138 33.6428C43.9812 33.5507 43.8587 33.4587 43.7158 33.3769C42.6237 32.702 41.307 32.3032 39.9597 32.1805C38.6226 31.976 37.2345 32.0169 35.9076 32.2419C35.2441 32.3543 34.5807 32.5282 33.9479 32.7327C33.6315 32.8452 33.315 32.9576 33.019 33.0906L32.7945 33.1928L32.5699 33.3053L32.1107 33.5507L31.8861 33.6735L31.7738 33.7348L31.7228 33.7655C31.7024 33.7757 31.6819 33.7962 31.6717 33.7757L30.794 33.2542L30.3142 32.9576C29.9978 32.7633 29.6916 32.5793 29.3752 32.385C28.7526 32.0066 28.13 31.6385 27.5074 31.2704C26.2519 30.5444 24.9965 29.8388 23.7104 29.1946C21.1281 27.9164 18.7805 26.2802 16.2901 24.9304C15.9941 24.7259 15.6981 24.5316 15.4021 24.3476C15.249 24.2453 15.1265 24.184 14.9938 24.1124C14.9326 24.0715 14.8611 24.0408 14.7897 24.0203L14.5855 23.9385C14.0242 23.734 13.4219 23.6829 12.83 23.7442C12.238 23.8056 11.6766 24.0101 11.1867 24.2964C10.9417 24.4294 10.7172 24.6134 10.513 24.7975C10.4212 24.8998 10.3191 24.9918 10.2272 25.094C10.1456 25.2065 10.0435 25.2986 9.97206 25.4213C9.67606 25.8814 9.49231 26.3927 9.4719 26.9347C9.45149 27.2006 9.49231 27.4664 9.53314 27.7323C9.57397 27.8652 9.59441 27.9982 9.65565 28.1209L9.72707 28.3151L9.81893 28.4992C10.0741 28.9798 10.4824 29.3888 10.9519 29.6956C11.0131 29.7365 11.0642 29.7672 11.1356 29.8081L11.3602 29.9308L11.8093 30.1762C12.1053 30.3398 12.4115 30.4932 12.7075 30.6466C15.0857 31.9555 17.4434 33.2542 19.6889 34.6756C22.1794 35.6572 24.2106 37.3854 26.4969 38.6023C27.0379 38.9602 27.589 39.2976 28.1402 39.6248C28.4158 39.7885 28.7016 39.9521 28.9669 40.0952L29.0588 40.1361L29.1098 40.1668L29.2017 40.2077C29.3242 40.269 29.4569 40.3202 29.5793 40.3815L29.957 40.5452L30.008 40.5656L30.0285 40.5758C30.0387 40.5758 30.0489 40.5861 30.0387 40.5963V40.6985V40.9031L30.0489 41.7313L30.0591 42.2017C30.0693 42.5187 30.0693 42.8357 30.0795 43.1527C30.0999 43.7867 30.1101 44.4105 30.1101 45.0342C30.2326 47.5293 30.0999 50.004 30.3959 52.4275C30.4469 53.6443 30.549 54.851 30.5592 56.1088C30.5694 56.4155 30.5388 56.7427 30.5286 57.0597C30.498 57.387 30.4673 57.704 30.3959 58.0312C30.2632 58.6856 30.0182 59.3503 29.6508 59.9127C29.365 60.5263 28.9465 61.0273 28.5178 61.4773L28.1912 61.8045C28.0789 61.9067 27.9667 62.009 27.8544 62.1113C27.6298 62.3158 27.4053 62.4999 27.1807 62.6941C26.2723 63.4406 25.3639 64.1257 24.5372 64.9131C22.8122 66.3652 21.1383 67.8172 19.5052 69.2284C19.2603 69.392 19.0969 69.5147 18.9234 69.6783C18.8418 69.7601 18.7601 69.8419 18.6887 69.934C18.6274 70.026 18.5458 70.118 18.4845 70.21C18.2396 70.5986 18.0967 71.0486 18.0661 71.4985C18.0661 71.611 18.0559 71.7132 18.0661 71.8462L18.0763 72.245C18.0865 72.5109 18.0967 72.7767 18.1069 73.0324C18.1273 73.5539 18.1477 74.0754 18.1477 74.5969C18.1171 76.6727 18.3212 78.6872 18.1171 80.6608C18.1069 81.1516 18.0967 81.6425 18.0865 82.1231C18.0763 82.3685 18.0763 82.6037 18.0661 82.8491C18.0661 83.0741 18.0661 83.2581 18.1069 83.4626C18.1681 83.8614 18.311 84.25 18.5253 84.5977C18.7397 84.9454 19.0357 85.2419 19.3623 85.4669C19.9951 85.9577 20.7198 86.3667 21.5364 86.5201C21.9446 86.5917 22.3631 86.6224 22.7612 86.5406C23.1593 86.469 23.5471 86.3156 23.8533 86.06C24.2003 85.8861 24.527 85.7021 24.8332 85.4669C25.1292 85.2419 25.4149 84.9863 25.6395 84.6795C25.8538 84.383 26.0376 84.0455 26.1192 83.6774C26.1498 83.5853 26.1499 83.4933 26.1601 83.4013L26.1805 83.2683C26.1805 83.2274 26.1805 83.1763 26.1805 83.1354C26.1805 83.0434 26.1703 82.9616 26.1601 82.8593C26.1499 82.7571 26.1294 82.6548 26.1192 82.5525C25.8743 80.9266 26.1499 79.3519 26.1601 77.8487C26.1805 76.2841 26.1907 74.781 26.2009 73.3391C26.2009 73.3187 26.2009 73.2982 26.2009 73.2778C27.4155 72.2143 28.5587 71.202 29.6406 70.251C30.1611 69.801 30.6613 69.3613 31.1512 68.9318C31.4472 68.6762 31.733 68.4205 32.0188 68.1649L32.08 68.1138C32.1004 68.124 32.131 68.1342 32.1515 68.1445L32.2944 68.216C32.3862 68.2672 32.4781 68.3081 32.5699 68.349C32.6618 68.3899 32.7537 68.441 32.8353 68.4819C32.8864 68.5126 32.9068 68.5126 32.9476 68.533L33.0497 68.574C34.1214 69.0341 35.1829 69.3 36.1729 69.4431C37.163 69.5863 38.0714 69.6067 38.888 69.5863C39.7045 69.5556 40.419 69.4534 41.0314 69.3409C41.3376 69.2795 41.6234 69.2182 41.8684 69.1466C42.1235 69.075 42.3481 69.0136 42.5522 68.9421C42.7563 68.8705 42.9299 68.8091 43.083 68.758C43.2361 68.7069 43.3586 68.6455 43.4606 68.6148C43.6648 68.533 43.777 68.5023 43.7872 68.5228C43.7974 68.5433 43.7056 68.6046 43.5219 68.7273C43.43 68.7785 43.3075 68.8602 43.1646 68.9318C43.0115 69.0034 42.838 69.0852 42.6441 69.1773C42.4399 69.2591 42.2154 69.3409 41.9602 69.4329C41.7051 69.5147 41.4192 69.5965 41.113 69.6886C40.4904 69.8419 39.7555 69.9851 38.9186 70.0567C38.0816 70.118 37.1324 70.1385 36.1015 70.026C35.0706 69.9135 33.9376 69.6783 32.7843 69.2181L32.672 69.1773C32.6414 69.167 32.5904 69.1466 32.5802 69.1364L32.4475 69.075L32.3148 69.0136L32.2433 68.983L32.2127 68.9625L32.1821 68.9932C32.0086 69.1568 31.8351 69.3204 31.6513 69.484C31.1818 69.9237 30.6817 70.3737 30.1815 70.8441C29.2119 71.7337 28.1912 72.6745 27.0991 73.6766C27.1093 74.9957 27.1297 76.3864 27.1399 77.8385C27.1501 79.3417 27.3645 80.9164 27.1807 82.5423V82.8491C27.1807 82.9616 27.1705 83.0843 27.1705 83.1968C27.1705 83.2581 27.1705 83.3195 27.1603 83.3706L27.1297 83.5444C27.1093 83.6569 27.0991 83.7796 27.0685 83.8921C26.9766 84.3625 26.7827 84.8124 26.5377 85.2317C26.0376 86.06 25.2415 86.7349 24.3228 87.0723C23.9044 87.3382 23.4246 87.512 22.9245 87.6041C22.4244 87.7063 21.914 87.6961 21.4037 87.6347C20.383 87.4916 19.4032 87.0519 18.5866 86.377C18.1783 86.0395 17.8109 85.6407 17.5251 85.1703C17.2393 84.6999 17.0454 84.1784 16.9535 83.6263C16.9025 83.3604 16.8923 83.0638 16.8821 82.7979C16.8821 82.5525 16.8821 82.3173 16.8718 82.0719C16.8616 81.5913 16.8514 81.1005 16.8208 80.6096C16.6575 78.6361 16.9025 76.6114 16.7902 74.5458C16.831 74.0243 16.8616 73.5028 16.8821 72.9812C16.8923 72.7154 16.9025 72.4597 16.9025 72.1938V71.7951C16.9025 71.6519 16.9127 71.4883 16.9229 71.3451C16.9739 70.7316 17.1576 70.1282 17.4434 69.5761C17.5149 69.4431 17.5965 69.3102 17.6782 69.1773C17.7598 69.0443 17.8619 68.9216 17.9538 68.7989C18.1477 68.5535 18.3723 68.3183 18.556 68.1342C20.2912 66.8049 21.8426 65.1995 23.5777 63.7474C24.527 63.1134 25.415 62.3976 26.2417 61.6204C27.0583 60.8433 27.8544 60.0048 28.3137 59.1049C28.5383 58.655 28.6914 58.1948 28.7934 57.6835C28.8445 57.4279 28.8649 57.162 28.9057 56.8859L28.9363 56.4666C28.9465 56.3337 28.9567 56.1803 28.9567 56.0372C28.9771 54.8919 28.9261 53.6853 28.8342 52.4684C28.7526 50.0347 28.5179 47.5498 28.5076 45.024C28.4668 44.39 28.426 43.756 28.4056 43.122C28.3954 42.805 28.3852 42.488 28.375 42.1711L28.3647 41.6904C28.3647 41.6802 28.3647 41.6802 28.3647 41.6802V41.67V41.6495C28.3647 41.6393 28.3545 41.6291 28.3443 41.6291L28.3239 41.6189L28.1402 41.5166C27.8544 41.353 27.589 41.1894 27.3032 41.0258C26.752 40.6883 26.2111 40.3509 25.6701 39.993C23.3838 38.7761 21.1485 37.4161 18.8418 36.097C16.4942 34.8699 14.2181 33.428 11.8501 32.0987C11.5541 31.9351 11.2581 31.7612 10.9621 31.5976L10.5232 31.342L10.3089 31.209C10.2374 31.1681 10.1456 31.0966 10.0639 31.0454C9.39026 30.5955 8.80846 29.982 8.4206 29.2559L8.27772 28.9798C8.23689 28.8878 8.19605 28.7856 8.16543 28.6935C8.08377 28.5095 8.03274 28.3049 7.9715 28.1004C7.87964 27.6914 7.81842 27.2824 7.83883 26.8631C7.84904 26.0246 8.09399 25.1963 8.49205 24.4498C8.59412 24.2657 8.73701 24.1124 8.8697 23.9385C9.00239 23.7749 9.15549 23.6318 9.30859 23.4784C9.625 23.2023 9.96182 22.9466 10.3293 22.7524C11.054 22.3433 11.8603 22.1081 12.6769 22.057C13.4934 21.9956 14.3303 22.0979 15.1163 22.374L15.4021 22.4865C15.5041 22.5274 15.596 22.5683 15.6879 22.6092C15.8716 22.7012 16.0655 22.8035 16.2084 22.8853C16.5146 23.0591 16.8208 23.2329 17.1372 23.3966C19.5767 24.8384 22.0263 26.2904 24.5678 27.6505C25.7416 28.489 26.9868 29.2355 28.2525 29.9308C28.8853 30.2785 29.5283 30.6262 30.1713 30.9636C30.4979 31.1272 30.8144 31.3011 31.141 31.4749L31.6105 31.7203C31.6411 31.7306 31.6615 31.7306 31.6717 31.7306C31.6921 31.7203 31.7126 31.6999 31.7126 31.6897L31.9677 31.5465L32.2331 31.4135C32.5904 31.2397 32.9578 31.0966 33.3355 30.9636C34.0805 30.708 34.8359 30.5239 35.6014 30.4012C37.1324 30.166 38.6736 30.1762 40.1842 30.4114C40.9395 30.5137 41.6949 30.6773 42.4399 30.9125C43.1748 31.1477 43.8995 31.4544 44.5834 31.8635C44.7569 31.9555 44.9202 32.0782 45.0835 32.1907C45.1243 32.2214 45.1652 32.2419 45.206 32.2725L45.3182 32.3543L45.3489 32.3748C45.3795 32.4157 45.4101 32.385 45.4408 32.3748C46.0532 32.0271 46.6758 31.6794 47.2882 31.3317C49.697 29.849 52.2283 28.6322 54.5861 27.1494C55.7598 26.4029 56.9744 25.7485 58.1788 25.094C58.7811 24.7668 59.3833 24.4396 59.9753 24.1021C60.6795 23.7136 61.4552 23.4682 62.2412 23.3557C63.813 23.1512 65.4869 23.6113 66.7118 24.7157C67.314 25.2679 67.7937 25.9735 68.0591 26.7711C68.3245 27.5585 68.3448 28.4276 68.1407 29.2252C67.9774 30.0331 67.5691 30.7591 67.0384 31.342C66.773 31.6385 66.4668 31.8839 66.1504 32.1089C65.9871 32.2214 65.8238 32.3134 65.6605 32.4054L65.2215 32.6406C64.0682 33.2644 62.9352 33.9086 61.8737 34.6551C59.6588 35.9947 57.6073 37.5388 55.2291 38.4489C53.0959 39.7884 50.8095 40.7701 48.7784 42.1199C48.4926 42.2426 48.217 42.3653 47.9516 42.4983L47.7475 42.6005L47.5331 42.7028C47.4821 42.7232 47.4413 42.7335 47.3903 42.7539L47.3494 42.7641C47.3392 42.7744 47.3494 42.7846 47.3392 42.7948V42.8664V43.1118C47.3392 43.4083 47.3392 43.7151 47.3494 44.0117C47.3698 45.2183 47.4107 46.4045 47.38 47.5907C47.2576 49.9528 47.033 52.2639 47.0636 54.5135C47.0943 55.6384 47.0432 56.7325 47.1657 57.7244C47.227 58.2152 47.3392 58.6754 47.5331 59.0947C47.7169 59.5139 48.0231 59.9025 48.3599 60.2706C49.1254 60.9864 49.8807 61.7022 50.636 62.3976C51.4117 63.1134 52.1874 63.819 53.0448 64.4121C53.8307 65.0972 54.6167 65.7516 55.3822 66.4163C55.7598 66.7537 56.1477 67.081 56.5253 67.4082C56.7091 67.5718 56.8928 67.7456 57.0765 67.9093L57.3521 68.1649L57.4848 68.2876C57.5256 68.3285 57.5767 68.3694 57.6277 68.4308C58.1176 68.7375 58.5157 69.1875 58.7913 69.709C59.0668 70.2305 59.22 70.8134 59.2404 71.3962V71.611C59.2404 71.6826 59.2404 71.7644 59.2404 71.8155L59.22 72.1734C59.1996 72.4086 59.1791 72.6438 59.1689 72.879C59.1383 73.3494 59.1077 73.8198 59.0975 74.2901C59.0464 76.1512 59.3526 77.9612 59.0567 79.7098C59.1995 80.5892 59.2097 81.4481 59.1791 82.2867C59.1689 82.5014 59.1587 82.6957 59.1383 82.9309L59.0975 83.299C59.0872 83.4217 59.0464 83.5342 59.026 83.6569C58.9035 84.1273 58.7198 84.567 58.4749 84.9658C58.2299 85.3544 57.9543 85.7225 57.6277 86.0293C57.4746 86.1929 57.3011 86.3259 57.1275 86.469C56.9438 86.5917 56.7703 86.7349 56.5764 86.8371C56.1987 87.0621 55.7905 87.2257 55.3822 87.3382C55.1781 87.3791 54.9637 87.4405 54.7596 87.4507L54.4431 87.4711C54.3411 87.4711 54.2288 87.4609 54.137 87.4609C53.7287 87.5325 53.3102 87.512 52.9019 87.4507C52.5039 87.3689 52.1058 87.2462 51.7486 87.0621C51.0239 86.7042 50.4319 86.2031 49.9113 85.6407C49.8603 85.5589 49.7991 85.4873 49.748 85.4055C49.697 85.3237 49.6562 85.2419 49.6051 85.1601L49.5337 85.0374L49.4724 84.9147L49.35 84.6693C49.2785 84.4954 49.207 84.3318 49.1458 84.158C49.0948 83.9841 49.0335 83.8103 49.0029 83.6263L48.9519 83.3604C48.9417 83.2683 48.9417 83.1865 48.9315 83.0945C48.9213 83.0127 48.9111 82.9105 48.9111 82.8287V82.5934C48.9111 82.2764 48.9009 81.9595 48.9111 81.6425C48.8702 80.3949 48.8804 79.2189 48.9621 78.1146C48.9825 77.0102 48.9927 75.9671 49.0131 75.0059C49.0233 74.5151 49.0336 74.0447 49.0438 73.605C48.2068 72.8176 47.4617 72.1223 46.8187 71.5189C46.1552 70.8849 45.5836 70.3532 45.1345 69.9135C44.2363 69.0546 43.7873 68.5842 43.8179 68.5433Z" fill="#202020"/>
<path d="M38.0103 11.1357C38.0103 11.1868 37.8674 11.2482 37.6122 11.3198C37.4795 11.3607 37.3264 11.3811 37.1427 11.4323C36.959 11.4834 36.7446 11.5447 36.5099 11.6061C36.3568 11.6572 36.1934 11.7186 36.0097 11.7799C35.9281 11.8208 35.8362 11.8515 35.7444 11.8924C35.6525 11.9333 35.5606 11.9742 35.4586 12.0049C35.2136 11.9435 35.1523 12.3832 34.8666 12.2912C34.7543 12.3117 34.642 12.3628 34.5399 12.4242C34.4889 12.4548 34.4379 12.4855 34.3868 12.5264C34.346 12.5673 34.295 12.6082 34.2439 12.6491C34.0602 12.823 33.754 12.8229 33.6213 13.1093C33.6009 13.3035 33.4478 13.324 33.2845 13.3547C33.1314 13.3854 32.9885 13.4467 32.9987 13.6717C32.9171 13.7944 32.815 13.8966 32.7231 14.0091C32.6313 14.1216 32.519 14.2239 32.4067 14.3261C32.223 14.367 32.1311 14.4897 32.0597 14.6431C31.9882 14.7863 31.9474 14.9499 31.876 15.0931C31.4983 15.226 31.3962 15.5737 31.4269 15.9623C31.3146 16.0032 31.2227 16.0543 31.1411 16.1156C31.0696 16.177 31.0084 16.2486 30.988 16.3406C30.9369 16.5144 30.9676 16.7087 31.0594 16.9235C31.0084 17.0871 30.9471 17.2507 30.8859 17.4245C30.8553 17.5063 30.8349 17.5984 30.8144 17.6904C30.8042 17.7824 30.8144 17.8745 30.8451 17.9665C30.8349 18.1506 30.8144 18.3346 30.8144 18.5187C30.8144 18.7028 30.8042 18.8868 30.7634 19.0709C30.8145 19.1629 30.8655 19.2549 30.8961 19.347C30.9267 19.439 30.9471 19.531 30.9574 19.6231C30.9574 19.7151 30.9573 19.8071 30.9369 19.9094C30.9267 20.0014 30.9063 20.1037 30.8655 20.2059C30.9471 20.2877 30.9982 20.3798 31.039 20.4718C31.0594 20.5127 31.0696 20.5639 31.0798 20.6048C31.1002 20.6559 31.1105 20.6968 31.1207 20.7479C31.1615 20.932 31.1513 21.1365 31.1411 21.3512C31.1411 21.5557 31.2636 21.7296 31.3758 21.9034C31.4983 22.0773 31.631 22.2306 31.6208 22.4556C31.6412 22.5067 31.6616 22.5476 31.682 22.5988C31.7126 22.6397 31.733 22.6806 31.7637 22.7317C31.8249 22.8135 31.876 22.9055 31.9372 22.9873C32.0495 23.1612 32.1822 23.3248 32.2842 23.4986C32.3251 23.6009 32.3659 23.7032 32.4169 23.7952C32.468 23.8872 32.5292 23.9793 32.6006 24.0611C32.6721 24.1429 32.7435 24.2247 32.8354 24.286C32.9273 24.3474 33.0293 24.3883 33.1518 24.4189C33.3355 24.5416 33.509 24.6644 33.6928 24.7768C33.8765 24.8893 34.0296 25.0427 34.1827 25.2063C34.6828 25.2166 34.9993 25.5029 35.3565 25.7994C35.4688 25.8301 35.5708 25.871 35.6729 25.9119C35.775 25.9528 35.8668 26.0142 35.9791 26.0551C36.1934 26.1266 36.4078 26.2084 36.6425 26.1778C36.8569 26.2289 37.0916 26.2391 37.3162 26.2494C37.5407 26.2391 37.7653 26.2391 38.0001 26.3107C38.2246 26.3414 38.4593 26.3619 38.6941 26.3619C38.9187 26.3414 39.1432 26.28 39.3575 26.1778C39.5617 26.0551 39.776 26.0039 40.0006 25.9835C40.1129 25.9733 40.2251 25.9528 40.3272 25.9221C40.4395 25.8914 40.5415 25.8608 40.6436 25.7994C40.7763 25.8199 40.8886 25.7994 40.9804 25.7585C41.0825 25.7176 41.1744 25.6563 41.2662 25.5847L41.3989 25.4824C41.4397 25.4415 41.4806 25.4109 41.5214 25.37C41.6031 25.2984 41.6949 25.237 41.8072 25.2063C41.9909 25.0939 42.1746 24.9814 42.3686 24.8689C42.5625 24.7666 42.7258 24.6132 42.8381 24.4189C42.9095 24.3371 42.981 24.2656 43.0524 24.1735C43.1137 24.0917 43.1851 24.0099 43.2463 23.9281C43.3178 23.8463 43.3893 23.7747 43.4607 23.7032C43.5322 23.6316 43.6036 23.5497 43.6954 23.4884C43.6648 23.2021 43.8077 23.0691 43.9608 22.9158C44.0425 22.8442 44.1241 22.7828 44.2058 22.701C44.2466 22.6601 44.2874 22.6295 44.3079 22.5886C44.3283 22.5476 44.3589 22.4965 44.3691 22.4454C44.5324 22.292 44.6243 22.1079 44.6753 21.9136C44.7264 21.7091 44.757 21.5148 44.8488 21.3308C44.8692 21.1263 44.9509 20.9524 45.0427 20.7684C45.0632 20.7275 45.0836 20.6763 45.104 20.6252C45.1142 20.5741 45.1244 20.5332 45.1346 20.482C45.1448 20.3798 45.155 20.2878 45.1244 20.1855C45.1448 20.0935 45.155 19.9912 45.1652 19.8992C45.1652 19.8071 45.155 19.7049 45.155 19.6129C45.155 19.5208 45.155 19.4186 45.1652 19.3265C45.1754 19.2345 45.2061 19.1425 45.2265 19.0504C45.1244 18.8664 45.155 18.6823 45.1857 18.4983C45.2265 18.3142 45.2367 18.1199 45.1448 17.9563C45.1346 17.8643 45.1142 17.7824 45.104 17.6904C45.0836 17.6086 45.0632 17.5166 45.0427 17.4348C44.9917 17.2609 44.9713 17.0871 44.9305 16.9235C45.0121 16.7087 44.9611 16.5349 44.8794 16.3917C44.8386 16.3099 44.7876 16.2486 44.7263 16.177C44.6651 16.1054 44.6141 16.0441 44.5732 15.9725C44.4712 15.6453 44.1037 15.4919 44.1241 15.1033C44.0527 14.9601 43.971 14.817 43.8996 14.6738C43.8179 14.5409 43.7363 14.4079 43.5832 14.3364C43.4607 14.2443 43.4505 14.0603 43.3892 13.8967C43.3382 13.7331 43.2259 13.6308 42.9912 13.6819C42.8585 13.6103 42.8074 13.457 42.736 13.324C42.6543 13.2013 42.5625 13.0888 42.3686 13.1195C42.0215 13.1502 41.9501 12.8025 41.7459 12.6593C41.6949 12.6184 41.6439 12.5878 41.5928 12.5571C41.5418 12.5264 41.4908 12.4957 41.4397 12.465C41.3377 12.4037 41.2356 12.3526 41.1336 12.2912C40.2251 11.8004 39.4188 11.5856 38.8676 11.4425C38.3165 11.3095 38.0103 11.2175 38.0103 11.1357C38.0103 11.0948 38.1123 11.0539 38.2961 11.013C38.3879 10.9925 38.5104 10.9823 38.6533 10.9618C38.7247 10.9618 38.7962 10.9414 38.8778 10.9414C38.9595 10.9414 39.0513 10.9414 39.1432 10.9516C39.8781 10.9619 41.0008 11.1255 42.2563 11.7902C42.5012 11.9231 42.8789 11.8924 43.0116 12.2401C43.1341 12.3321 43.2872 12.3935 43.4301 12.4753C43.573 12.5571 43.6955 12.6593 43.7771 12.8229C43.9915 12.8332 44.1343 12.9354 44.2364 13.0786C44.3385 13.2217 44.4099 13.3956 44.5222 13.5285C44.6549 13.6512 44.7366 13.8046 44.8386 13.958C44.9407 14.1114 45.0632 14.2443 45.2061 14.3773C45.5327 14.6125 45.5429 15.0624 45.798 15.3692C45.798 15.4817 45.8185 15.5737 45.8389 15.6759C45.8695 15.768 45.9001 15.86 45.941 15.9623C46.0226 16.1463 46.1349 16.3201 46.2778 16.494C46.2676 16.7189 46.3186 16.9133 46.4003 17.1178C46.4411 17.22 46.4819 17.3121 46.5228 17.4143C46.5534 17.5166 46.584 17.6188 46.5942 17.7313C46.4921 17.9665 46.5227 18.1812 46.5636 18.396C46.6044 18.6107 46.6861 18.8255 46.7473 19.0504C46.7779 19.1629 46.7779 19.2754 46.7779 19.3879C46.7779 19.5004 46.7575 19.6128 46.7473 19.7356C46.7371 19.848 46.7167 19.9707 46.7065 20.0832C46.6861 20.1957 46.6758 20.3184 46.6656 20.4309C46.635 20.5434 46.6146 20.6661 46.6044 20.7786L46.584 20.9524L46.5534 21.1262C46.5125 21.3614 46.4717 21.6069 46.3798 21.8318C46.3594 22.0772 46.3084 22.3329 46.2267 22.5681C46.1451 22.8033 46.0022 23.018 45.8287 23.2123C45.8082 23.2737 45.7878 23.335 45.7674 23.3964C45.7368 23.4577 45.7164 23.5089 45.6858 23.5702C45.6245 23.6827 45.5633 23.7952 45.4919 23.8974C45.3592 24.1224 45.1856 24.3065 45.0325 24.5212C44.9713 24.6439 44.9101 24.7564 44.8284 24.8587C44.7468 24.9609 44.6549 25.053 44.563 25.145L44.2772 25.4211C44.1854 25.5131 44.0833 25.5949 43.9914 25.687C43.8179 25.8915 43.573 26.0142 43.3382 26.1369C43.1035 26.2596 42.8891 26.4232 42.736 26.6789C42.2971 27.0061 41.7766 27.1799 41.2866 27.4355L40.8886 27.5583C40.7559 27.5992 40.6232 27.6503 40.4905 27.6708C40.2149 27.7321 39.9598 27.8241 39.6842 27.9162C39.378 27.8241 39.1126 27.8446 38.837 27.8957C38.5614 27.9366 38.2858 28.0184 38.0001 28.09C37.7143 28.1207 37.4285 28.1104 37.1427 28.09C36.8569 28.0491 36.5813 27.9878 36.3057 27.9264C36.0301 27.8855 35.7546 27.8037 35.4892 27.7423C35.3565 27.7116 35.2238 27.6503 35.0911 27.6094L34.7032 27.456C34.5603 27.4355 34.4379 27.3742 34.3154 27.3128C34.1929 27.2515 34.0704 27.1799 33.9582 27.0981L33.7846 26.9958C33.7336 26.9549 33.6724 26.914 33.6111 26.8833C33.4989 26.8118 33.3764 26.7504 33.2437 26.6993C32.9783 26.6175 32.7844 26.413 32.5904 26.2289C32.3863 26.0449 32.223 25.8403 31.9882 25.7074C31.8759 25.6358 31.7637 25.5642 31.6616 25.4722C31.5596 25.3802 31.4677 25.2984 31.3758 25.1961C31.284 25.1041 31.2023 25.0018 31.1207 24.8893C31.0492 24.7769 30.988 24.6541 30.9369 24.5314C30.7838 24.3269 30.6818 24.0815 30.5797 23.8463C30.5287 23.7236 30.4674 23.6214 30.396 23.5191C30.3551 23.468 30.3143 23.4168 30.2735 23.3759C30.2327 23.3248 30.1816 23.2839 30.1306 23.243C29.9979 23.0282 29.7938 22.8442 29.6713 22.6192C29.5488 22.3943 29.4774 22.1488 29.5794 21.8625C29.4672 21.6478 29.457 21.3921 29.4263 21.1467C29.4161 21.0854 29.4161 21.024 29.4059 20.9729C29.4059 20.9115 29.3957 20.8502 29.3957 20.799C29.3753 20.6763 29.3447 20.5638 29.2936 20.4616C29.3447 20.3389 29.3651 20.2162 29.3651 20.1037C29.3753 19.9912 29.3651 19.8787 29.3345 19.7662C29.3141 19.6538 29.2834 19.5413 29.263 19.4288C29.2426 19.3163 29.212 19.2038 29.2222 19.0913C29.263 18.8664 29.3141 18.6414 29.3345 18.4267C29.3651 18.2119 29.4059 17.9972 29.3651 17.7722C29.3447 17.6597 29.3549 17.5473 29.3753 17.445C29.3957 17.3427 29.4365 17.2405 29.4774 17.1382C29.559 16.9337 29.6407 16.7394 29.6917 16.5451C29.6815 16.3202 29.804 16.1463 29.9265 15.9725C29.9775 15.8907 30.0489 15.8089 30.1 15.7168C30.151 15.635 30.1816 15.5328 30.1816 15.4305C30.3756 15.0829 30.5388 14.7352 30.7736 14.4386C30.7124 14.1728 30.8349 14.0194 30.988 13.9069C31.1411 13.7944 31.3248 13.7126 31.4677 13.6001C31.6106 13.4876 31.6718 13.3138 31.7637 13.1604C31.8555 13.007 31.9882 12.8945 32.2026 12.8945C32.223 12.6798 32.3353 12.5468 32.4884 12.4753C32.6415 12.4037 32.815 12.3832 32.9579 12.3219C33.2437 12.1992 33.3968 11.8822 33.7132 11.872C33.7438 11.7901 33.7948 11.739 33.8561 11.6981C33.9173 11.6674 33.9888 11.6572 34.0602 11.647C34.2031 11.6265 34.346 11.6265 34.4481 11.5447C34.7339 11.5447 34.9074 11.3607 35.1422 11.3095C35.2442 11.2482 35.3463 11.2073 35.4483 11.1766C35.5606 11.1562 35.6627 11.1561 35.775 11.1664C35.9791 11.1357 36.1628 11.0948 36.3363 11.0743C36.6017 11.0539 36.8365 11.0437 37.0406 11.0437C37.2447 11.0437 37.4081 11.0744 37.5509 11.0846C37.8674 11.0335 38.0103 11.0846 38.0103 11.1357Z" fill="#202020"/>
<path d="M76 6.42176C76 6.53424 75.9387 6.63649 75.8264 6.72852C75.806 6.74897 75.7856 6.75919 75.7652 6.77964C75.7448 6.81032 75.7244 6.841 75.6937 6.82055C75.6733 6.67739 75.6427 7.08643 75.6121 6.86146C75.5815 6.80011 75.5508 6.86147 75.5304 6.90237C75.4998 6.9535 75.4692 6.81032 75.4386 6.94325C75.408 7.21935 75.3773 6.63649 75.3365 6.98417C75.3059 7.05575 75.2651 7.0353 75.2345 7.02508C75.1936 6.81034 75.163 7.02505 75.1222 7.06596C75.0813 6.81031 75.0405 6.9228 74.9997 7.09663C74.9589 6.74896 74.918 6.80009 74.8772 7.12731C74.8364 7.13754 74.7955 7.00463 74.7445 7.15802C74.7037 7.17847 74.6526 7.25005 74.6118 7.18869C74.5608 7.42389 74.52 7.41365 74.4689 7.20913C74.4179 7.46478 74.3771 7.36251 74.326 7.22957C74.275 7.08641 74.224 7.45456 74.1729 7.25004C74.1219 7.22959 74.0709 7.31139 74.0198 7.27049C73.9688 7.16823 73.9177 7.05575 73.8667 7.28072C73.8157 7.34208 73.7647 7.42386 73.7034 7.29093C73.6524 7.5568 73.5912 7.44432 73.5401 7.30116C73.4891 7.34206 73.4278 7.158 73.3768 7.30116C73.3156 7.26026 73.2645 7.42387 73.2033 7.30116C73.142 7.21936 73.091 7.13755 73.0298 7.30116C72.9787 7.475 72.9175 7.22958 72.8562 7.30116C72.8052 7.04552 72.744 7.38296 72.6929 7.29093C72.6419 7.31138 72.5807 7.14779 72.5296 7.28072C72.4786 7.32162 72.4276 7.37274 72.3765 7.27049C72.3255 7.65906 72.2745 7.16824 72.2234 7.25004C72.1724 7.08643 72.1214 7.27048 72.0703 7.22957C72.0193 7.30115 71.9682 7.04552 71.9274 7.20913C71.8764 7.17846 71.8356 7.33185 71.7845 7.18869C71.7335 7.38298 71.6927 7.02508 71.6518 7.15802C71.611 7.15802 71.56 7.16821 71.5192 7.12731C71.4783 6.82054 71.4375 7.07618 71.3967 7.09663C71.3559 7.06596 71.315 7.27047 71.2742 7.06596C71.2334 7.04551 71.1925 6.91259 71.1619 7.02508C71.1211 7.06598 71.0905 6.58536 71.0598 6.98417C71.0292 7.05575 70.9884 6.67738 70.9578 6.94325C70.9272 7.18867 70.8966 6.9126 70.8659 6.90237C70.8353 6.89215 70.8149 6.87169 70.7843 6.86146C70.5393 6.72853 70.4066 6.57514 70.4066 6.41153C70.4066 6.22746 70.5801 6.06384 70.8761 5.92068C70.9067 5.91045 70.9374 5.69573 70.968 5.8798C70.9986 5.8798 71.0292 5.71618 71.0701 5.83889C71.1007 5.56279 71.1415 5.78775 71.1721 5.79797C71.213 5.78775 71.2436 5.86955 71.2844 5.75706C71.3252 5.59345 71.3661 5.83887 71.4069 5.72639C71.4477 5.90022 71.4885 5.8491 71.5294 5.69571C71.5702 5.85932 71.611 5.65481 71.6621 5.66503C71.7029 5.92068 71.7539 5.74684 71.7947 5.63436C71.8356 5.54233 71.8866 5.67527 71.9376 5.61392C71.9887 5.66505 72.0295 5.54232 72.0805 5.59345C72.1316 5.47074 72.1826 5.42985 72.2336 5.57301C72.2847 5.4912 72.3357 5.55257 72.3867 5.55257C72.4378 5.45031 72.4888 5.56278 72.5398 5.54233C72.5909 5.4912 72.6521 5.81842 72.7032 5.53209C72.7542 5.49119 72.8154 5.57302 72.8665 5.52189C72.9175 5.56279 72.9787 5.59346 73.04 5.51165C73.1012 5.79798 73.1523 5.62414 73.2135 5.51165C73.2645 5.42985 73.3257 5.47075 73.387 5.51165C73.438 5.48098 73.4993 5.50144 73.5503 5.52189C73.6115 5.44008 73.6626 5.64458 73.7136 5.53209C73.7646 5.40939 73.8259 5.65481 73.8769 5.54233C73.928 5.46052 73.979 5.41963 74.03 5.55257C74.0811 5.55257 74.1321 5.8082 74.1832 5.57301C74.2342 5.52188 74.2852 5.19464 74.3362 5.59345C74.3873 5.49119 74.4383 5.78776 74.4791 5.61392C74.5302 5.90024 74.571 5.62413 74.622 5.63436C74.6731 5.68549 74.7139 5.78774 74.7547 5.66503C74.7956 5.5321 74.8466 5.73661 74.8874 5.69571C74.9282 5.5321 74.9691 5.91045 75.0099 5.72639C75.0507 5.76729 75.0916 5.69571 75.1324 5.75706C75.1732 5.36848 75.214 5.75707 75.2446 5.79797C75.2855 5.8491 75.3161 5.54234 75.3467 5.83889C75.3773 5.54234 75.4182 5.79799 75.4488 5.8798C75.4794 5.9616 75.51 5.75707 75.5406 5.92068C75.5713 5.71616 75.6019 6.03317 75.6223 5.96159C75.6529 6.09452 75.6733 5.97182 75.704 6.0025C75.7244 5.9616 75.755 5.9718 75.7754 6.04338C75.7958 6.06383 75.8162 6.07408 75.8367 6.09453C75.9387 6.20701 76 6.3195 76 6.42176Z" fill="#202020"/>
<path d="M62.0677 6.42176C62.0677 6.53424 61.537 6.63649 60.5673 6.72852C60.404 6.73875 60.2305 6.75919 60.0468 6.77964C59.8631 6.81032 59.6589 6.841 59.4548 6.82055C59.2404 6.67739 59.0261 7.08643 58.7913 6.86146C58.5566 6.80011 58.3218 6.86147 58.0667 6.90237C57.8115 6.9535 57.5461 6.81032 57.2705 6.94325C56.9949 7.21935 56.7092 6.63649 56.4132 6.98417C56.1172 7.05575 55.8109 7.0353 55.5047 7.02508C55.1883 6.81034 54.8719 7.02505 54.5351 7.06596C54.1983 6.81031 53.8615 6.9228 53.5144 7.09663C53.1674 6.74896 52.8101 6.80009 52.4427 7.12731C52.0752 7.13754 51.7078 7.00463 51.3199 7.15802C50.9423 7.17847 50.5544 7.25005 50.1564 7.18869C49.7583 7.42389 49.3602 7.41365 48.952 7.20913C48.5437 7.46478 48.1252 7.36251 47.7067 7.22957C47.2781 7.08641 46.8494 7.45456 46.4207 7.25004C45.9818 7.22959 45.5429 7.31139 45.0938 7.27049C44.6447 7.16823 44.1956 7.05575 43.7363 7.28072C43.277 7.34208 42.8177 7.42386 42.3482 7.29093C41.8786 7.5568 41.4091 7.44432 40.9294 7.30116C40.4497 7.34206 39.97 7.158 39.4902 7.30116C39.0003 7.26026 38.5206 7.42387 38.0205 7.30116C37.5305 7.21936 37.0406 7.13755 36.5507 7.30116C36.0709 7.475 35.581 7.22958 35.1115 7.30116C34.6318 7.04552 34.1623 7.38296 33.6928 7.29093C33.2233 7.31138 32.7639 7.14779 32.3046 7.28072C31.8453 7.32162 31.3962 7.37274 30.9471 7.27049C30.498 7.65906 30.0592 7.16824 29.6203 7.25004C29.1814 7.08643 28.7527 7.27048 28.3342 7.22957C27.9157 7.30115 27.4972 7.04552 27.0787 7.20913C26.6705 7.17846 26.2622 7.33185 25.8641 7.18869C25.4661 7.38298 25.0782 7.02508 24.7006 7.15802C24.3229 7.15802 23.9453 7.16821 23.5778 7.12731C23.2104 6.82054 22.8531 7.07618 22.5061 7.09663C22.1591 7.06596 21.812 7.27047 21.4854 7.06596C21.1486 7.04551 20.8322 6.91259 20.5158 7.02508C20.1993 7.06598 19.8932 6.58536 19.6074 6.98417C19.3114 7.05575 19.0256 6.67738 18.75 6.94325C18.4744 7.18867 18.209 6.9126 17.9538 6.90237C17.6987 6.89215 17.4537 6.87169 17.2292 6.86146C15.1368 6.72853 13.9426 6.57514 13.9426 6.41153C13.9426 6.22746 15.4225 6.06384 17.9538 5.92068C18.209 5.91045 18.4744 5.69573 18.75 5.8798C19.0256 5.8798 19.3114 5.71618 19.6074 5.83889C19.9034 5.56279 20.2096 5.78775 20.5158 5.79797C20.8322 5.78775 21.1486 5.86955 21.4854 5.75706C21.812 5.59345 22.1591 5.83887 22.5061 5.72639C22.8531 5.90022 23.2104 5.8491 23.5778 5.69571C23.9453 5.85932 24.3127 5.65481 24.7006 5.66503C25.0782 5.92068 25.4661 5.74684 25.8641 5.63436C26.2622 5.54233 26.6603 5.67527 27.0787 5.61392C27.487 5.66505 27.9055 5.54232 28.3342 5.59345C28.7527 5.47074 29.1916 5.42985 29.6203 5.57301C30.0592 5.4912 30.498 5.55257 30.9471 5.55257C31.3962 5.45031 31.8453 5.56278 32.3046 5.54233C32.7639 5.4912 33.2233 5.81842 33.6928 5.53209C34.1623 5.49119 34.6318 5.57302 35.1115 5.52189C35.5912 5.56279 36.0709 5.59346 36.5507 5.51165C37.0406 5.79798 37.5203 5.62414 38.0205 5.51165C38.5104 5.42985 39.0003 5.47075 39.4902 5.51165C39.9802 5.48098 40.4599 5.50144 40.9294 5.52189C41.4091 5.44008 41.8786 5.64458 42.3482 5.53209C42.8177 5.40939 43.277 5.65481 43.7363 5.54233C44.1956 5.46052 44.6447 5.41963 45.0938 5.55257C45.5429 5.55257 45.9818 5.8082 46.4207 5.57301C46.8596 5.52188 47.2883 5.19464 47.7067 5.59345C48.1252 5.49119 48.5437 5.78776 48.952 5.61392C49.3602 5.90024 49.7685 5.62413 50.1564 5.63436C50.5544 5.68549 50.9423 5.78774 51.3199 5.66503C51.6976 5.5321 52.0752 5.73661 52.4427 5.69571C52.8101 5.5321 53.1674 5.91045 53.5144 5.72639C53.8615 5.76729 54.2085 5.69571 54.5351 5.75706C54.8617 5.36848 55.1883 5.75707 55.5047 5.79797C55.8211 5.8491 56.1172 5.54234 56.4132 5.83889C56.7092 5.54234 56.9949 5.79799 57.2705 5.8798C57.5461 5.9616 57.8115 5.75707 58.0667 5.92068C58.3218 5.71616 58.5668 6.03317 58.7913 5.96159C59.0261 6.09452 59.2404 5.97182 59.4548 6.0025C59.6691 5.9616 59.8631 5.9718 60.0468 6.04338C60.2305 6.06383 60.404 6.07408 60.5673 6.09453C61.537 6.20701 62.0677 6.3195 62.0677 6.42176Z" fill="#202020"/>
<path d="M5.60357 6.42176C5.60357 6.53424 5.54231 6.63649 5.43004 6.72852C5.40962 6.74897 5.38921 6.75919 5.3688 6.77964C5.34838 6.81032 5.32796 6.841 5.29734 6.82055C5.27693 6.67739 5.24632 7.08643 5.2157 6.86146C5.18508 6.80011 5.16465 6.86147 5.13403 6.90237C5.10341 6.9535 5.07279 6.81032 5.04217 6.94325C5.01155 7.21935 4.98092 6.63649 4.9401 6.98417C4.90948 7.05575 4.86867 7.0353 4.83805 7.02508C4.79723 6.81034 4.76659 7.02505 4.72576 7.06596C4.68494 6.81031 4.64411 6.9228 4.60329 7.09663C4.56246 6.74896 4.52164 6.80009 4.48081 7.12731C4.43998 7.13754 4.39915 7.00463 4.34811 7.15802C4.30729 7.17847 4.25625 7.25005 4.21542 7.18869C4.16439 7.42389 4.12358 7.41365 4.07254 7.20913C4.02151 7.46478 3.98067 7.36251 3.92963 7.22957C3.8786 7.08641 3.82757 7.45456 3.77654 7.25004C3.7255 7.22959 3.67447 7.31139 3.62344 7.27049C3.57241 7.16823 3.52137 7.05575 3.46013 7.28072C3.40909 7.34208 3.35805 7.42386 3.29681 7.29093C3.24578 7.5568 3.18454 7.44432 3.1335 7.30116C3.08247 7.34206 3.02122 7.158 2.97019 7.30116C2.90895 7.26026 2.85793 7.42387 2.79669 7.30116C2.73545 7.21936 2.6844 7.13755 2.62316 7.30116C2.56192 7.475 2.51088 7.22958 2.45985 7.30116C2.39861 7.04552 2.34757 7.38296 2.29653 7.29093C2.2455 7.31138 2.18426 7.14779 2.13322 7.28072C2.08219 7.32162 2.03118 7.37274 1.96994 7.27049C1.91891 7.65906 1.86785 7.16824 1.81681 7.25004C1.76578 7.08643 1.71475 7.27048 1.66372 7.22957C1.61268 7.30115 1.56166 7.04552 1.52084 7.20913C1.4698 7.17846 1.42896 7.33185 1.37793 7.18869C1.3371 7.38298 1.28606 7.02508 1.24523 7.15802C1.20441 7.15802 1.15337 7.16821 1.11254 7.12731C1.07171 6.82054 1.03089 7.07618 0.990063 7.09663C0.949235 7.06596 0.908413 7.27047 0.867586 7.06596C0.826759 7.04551 0.796153 6.91259 0.755326 7.02508C0.714499 7.06598 0.683872 6.58536 0.653251 6.98417C0.622631 7.05575 0.581797 6.67738 0.551177 6.94325C0.520557 7.18867 0.48994 6.9126 0.459319 6.90237C0.428699 6.89215 0.398061 6.87169 0.377647 6.86146C0.132684 6.72853 0 6.57514 0 6.41153C0 6.22746 0.173538 6.06384 0.469536 5.92068C0.500157 5.91045 0.530773 5.69573 0.561394 5.8798C0.592014 5.8798 0.62261 5.71618 0.663437 5.83889C0.694058 5.56279 0.734891 5.78775 0.765512 5.79797C0.806339 5.78775 0.836975 5.86955 0.877803 5.75706C0.91863 5.59345 0.959452 5.83887 1.00028 5.72639C1.04111 5.90022 1.08193 5.8491 1.12276 5.69571C1.16358 5.85932 1.20442 5.65481 1.25545 5.66503C1.29628 5.92068 1.34732 5.74684 1.38814 5.63436C1.43918 5.54233 1.47999 5.67527 1.53102 5.61392C1.58206 5.66505 1.6229 5.54232 1.67393 5.59345C1.72497 5.47074 1.776 5.42985 1.82703 5.57301C1.87806 5.4912 1.92909 5.55257 1.98013 5.55257C2.03116 5.45031 2.0822 5.56278 2.14344 5.54233C2.19447 5.4912 2.24551 5.81842 2.30675 5.53209C2.35779 5.49119 2.41903 5.57302 2.47006 5.52189C2.5211 5.56279 2.58234 5.59346 2.63338 5.51165C2.69462 5.79798 2.74563 5.62414 2.80688 5.51165C2.86812 5.42985 2.91916 5.47075 2.98041 5.51165C3.04165 5.48098 3.09268 5.50144 3.14372 5.52189C3.19475 5.44008 3.256 5.64458 3.30703 5.53209C3.35806 5.40939 3.41928 5.65481 3.47031 5.54233C3.52135 5.46052 3.57238 5.41963 3.63363 5.55257C3.68466 5.55257 3.73572 5.8082 3.78675 5.57301C3.83779 5.52188 3.88881 5.19464 3.93985 5.59345C3.99088 5.49119 4.03169 5.78776 4.08273 5.61392C4.13376 5.90024 4.1746 5.62413 4.22564 5.63436C4.26647 5.68549 4.3175 5.78774 4.35833 5.66503C4.39916 5.5321 4.45017 5.73661 4.49099 5.69571C4.53182 5.5321 4.57268 5.91045 4.6135 5.72639C4.65433 5.76729 4.69515 5.69571 4.73598 5.75706C4.77681 5.36848 4.80741 5.75707 4.84824 5.79797C4.88907 5.8491 4.91969 5.54234 4.95031 5.83889C4.98093 5.54234 5.02177 5.79799 5.05239 5.8798C5.08301 5.9616 5.11363 5.75707 5.14425 5.92068C5.17487 5.71616 5.20547 6.03317 5.22589 5.96159C5.25651 6.09452 5.27694 5.97182 5.30756 6.0025C5.32797 5.9616 5.3586 5.9718 5.37901 6.04338C5.39943 6.06383 5.41984 6.07408 5.44025 6.09453C5.54232 6.20701 5.60357 6.3195 5.60357 6.42176Z" fill="#202020"/>
<path d="M9.75772 0.705548C9.87 0.705548 9.97208 1.0737 10.0639 1.74859C10.0742 1.86108 10.0946 1.98379 10.115 2.1065C10.1456 2.23944 10.1762 2.37237 10.166 2.51553C10.0231 2.65869 10.4314 2.81205 10.2068 2.97567C10.1456 3.13928 10.2068 3.30289 10.2477 3.48695C10.2987 3.66079 10.1558 3.84486 10.2885 4.03915C10.5641 4.23344 9.98227 4.42775 10.3293 4.63226C10.4007 4.83678 10.3803 5.05152 10.3701 5.26626C10.1558 5.481 10.3701 5.70597 10.411 5.94116C10.1558 6.17635 10.2681 6.41155 10.4416 6.64674C10.0946 6.89216 10.1456 7.13755 10.4722 7.3932C10.4824 7.64884 10.3497 7.9045 10.5028 8.17037C10.5232 8.43623 10.5947 8.70211 10.5335 8.97821C10.7682 9.2543 10.758 9.53038 10.5539 9.8167C10.809 10.103 10.707 10.3893 10.5743 10.6859C10.4314 10.9824 10.7988 11.279 10.5947 11.5858C10.5845 11.7391 10.6049 11.8925 10.6151 12.0459L10.6253 12.2402C10.6253 12.2504 10.6253 12.2709 10.6151 12.2811C10.5743 12.3118 10.5335 12.3629 10.513 12.414C10.4926 12.4652 10.4926 12.5061 10.5232 12.5061C10.5641 12.4856 10.6151 12.4549 10.6661 12.4038C10.7172 12.3731 10.758 12.3322 10.7682 12.322C10.7784 12.322 10.7886 12.322 10.7886 12.322V12.3323C10.7886 12.3323 10.7886 12.3322 10.7886 12.3425L10.8192 12.3527C10.8601 12.3629 10.9009 12.3732 10.9417 12.3936C11.2683 12.1277 11.595 12.2402 11.9216 12.3834C12.2482 12.3425 12.585 12.5265 12.9218 12.3834C12.9525 12.4038 12.9729 12.3731 12.9831 12.3527C12.9933 12.3322 12.9933 12.322 13.0749 12.3834C13.1158 12.4038 13.1566 12.3936 13.1668 12.3527C13.177 12.322 13.1566 12.2607 13.0749 12.23C12.9014 11.8925 13.1464 11.5551 13.0749 11.2279C13.3301 10.9006 12.9933 10.5632 13.0852 10.2462C13.0647 9.91897 13.2281 9.60197 13.0954 9.28497C13.0443 8.96797 13.0035 8.65096 13.1056 8.34419C12.7177 8.03741 13.2076 7.73065 13.126 7.42387C13.2893 7.1171 13.1056 6.82055 13.1464 6.524C13.0749 6.22746 13.3199 5.94116 13.1668 5.65484C13.1974 5.36852 13.0443 5.09242 13.1872 4.81632C12.9933 4.54023 13.3505 4.27435 13.2178 4.00848C13.2178 3.74261 13.2076 3.48695 13.2485 3.23131C13.5445 2.97567 13.2995 2.73027 13.2791 2.48485C13.3097 2.23943 13.1056 2.00424 13.3097 1.77927L13.3199 1.73836C13.3199 1.72813 13.3199 1.72814 13.3301 1.71792L13.3505 1.67701C13.3607 1.64633 13.3811 1.62589 13.3913 1.59521C13.4118 1.54409 13.4118 1.47248 13.3505 1.47248C13.3403 1.45203 13.371 1.40093 13.4118 1.33957C13.4526 1.26799 13.5138 1.18616 13.5343 1.12481C13.5138 1.09413 13.4322 1.11461 13.2791 1.27822C13.2076 1.31912 13.2179 1.23729 13.1872 1.18616C13.1566 1.13503 13.0954 1.10437 13.0137 1.23731C12.9525 1.48273 12.7279 1.20662 12.5544 1.1964C12.3809 1.17594 12.2074 1.16571 12.0441 1.15548C10.5947 1.02255 9.76794 0.86916 9.76794 0.705548C9.76794 0.521485 10.7886 0.357893 12.5544 0.214732C12.7381 0.204506 12.8708 -0.0102432 13.1974 0.17382C13.3403 0.17382 13.5036 0.13292 13.6771 0.112468C13.8404 0.0920168 14.0242 0.0817898 14.1365 0.143144C14.3508 0.030661 14.5243 0 14.657 0C14.657 0.224967 14.5651 0.511279 14.5549 0.72602C14.5651 1.0737 14.4835 1.4725 14.5958 1.77927C14.7591 2.00424 14.5141 2.24966 14.6264 2.48485C14.4529 2.73027 14.5039 2.97567 14.657 3.23131C14.4835 3.48695 14.6978 3.74261 14.6876 4.00848C14.4325 4.27435 14.606 4.54023 14.7183 4.81632C14.8101 5.09242 14.6774 5.36852 14.7387 5.65484C14.6876 5.94116 14.7999 6.22746 14.7591 6.524C14.8816 6.82055 14.9224 7.1171 14.7795 7.42387C14.8611 7.73065 14.7999 8.03741 14.7999 8.34419C14.902 8.65096 14.7897 8.96797 14.8101 9.28497C14.8611 9.60197 14.5345 9.92919 14.8203 10.2462C14.8612 10.5734 14.7795 10.9006 14.8305 11.2279C14.7897 11.5551 14.7591 11.8925 14.8407 12.23C14.6978 12.5368 14.6672 12.8026 14.6978 13.1094C14.7182 13.4162 14.7897 13.7638 14.8407 14.1422C14.2691 14.224 13.5547 14.1831 12.9321 14.1422C12.5952 14.1729 12.2584 14.1524 11.9318 14.1422C11.6052 14.224 11.2786 14.0195 10.9519 14.132C10.9111 14.1524 10.8703 14.1524 10.8295 14.1626H10.7988H10.7376H10.6253C10.4722 14.1626 10.3191 14.1422 10.1762 14.1218C9.88021 14.0911 9.62504 14.0604 9.28822 14.1218C9.14532 14.1422 9.00244 14.1524 8.85955 14.1626C8.81872 13.7434 8.80851 13.2219 8.92079 12.7413C8.92079 12.5981 8.94118 12.4549 8.96159 12.3118C8.9718 12.2811 8.97182 12.23 8.98203 12.2198L9.00243 12.1584C9.01263 12.1175 9.02284 12.0766 9.03305 12.0459C9.06367 11.8925 9.07389 11.7391 8.95141 11.5858C8.90037 11.279 8.57374 10.9824 8.97181 10.6859C8.86974 10.3893 9.15552 10.103 8.99221 9.8167C9.278 9.53038 9.00244 9.2543 9.01264 8.97821C9.06368 8.70211 9.16575 8.43623 9.04326 8.17037C8.91058 7.9045 9.11471 7.64884 9.07388 7.3932C8.91057 7.13755 9.28822 6.89216 9.1045 6.64674C9.14533 6.40132 9.08409 6.16613 9.13512 5.94116C8.74726 5.71619 9.13513 5.49122 9.17596 5.26626C9.2372 5.05152 8.92076 4.83678 9.21676 4.63226C8.92076 4.42775 9.17594 4.23344 9.2576 4.03915C9.33925 3.84486 9.13513 3.66079 9.29843 3.48695C9.0943 3.31312 9.41069 3.13928 9.33924 2.97567C9.47193 2.81205 9.34945 2.65869 9.38008 2.51553C9.32904 2.37237 9.34946 2.22921 9.42091 2.1065C9.44132 1.97357 9.45152 1.86108 9.47193 1.74859C9.55359 1.0737 9.65565 0.705548 9.75772 0.705548Z" fill="#202020"/>
<path d="M9.75771 3.93692C9.86999 3.93692 9.97208 4.16189 10.0639 4.58115C10.0844 4.65273 10.0945 4.72431 10.115 4.80612C10.1456 4.88792 10.1762 4.96973 10.166 5.06176C10.0231 5.15379 10.4314 5.24582 10.2068 5.34808C10.1456 5.45034 10.2068 5.55262 10.2477 5.65487C10.2987 5.76736 10.1558 5.87983 10.2885 5.99231C10.5641 6.11502 9.98226 6.22749 10.3293 6.36042C10.4007 6.48313 10.3803 6.61607 10.3701 6.749C10.1558 6.88194 10.3701 7.02513 10.411 7.15806C10.1558 7.30122 10.2681 7.44437 10.4416 7.59776C10.0946 7.75115 10.1456 7.90451 10.4722 8.0579C10.4824 8.21129 10.3497 8.3749 10.5028 8.53851C10.5232 8.70212 10.5947 8.85553 10.5334 9.03959C10.7682 9.33614 10.758 9.74515 10.5538 9.94967C10.7886 10.3587 10.7172 10.6859 10.6049 10.8598C10.5641 10.8496 10.5334 10.8393 10.4926 10.8291C10.2681 10.7575 10.166 10.8189 10.0333 10.8598C9.90063 10.9109 9.73732 10.9518 9.52298 10.8495C9.34946 10.8393 9.18613 10.8598 9.02282 10.87C8.94117 10.8802 8.84931 10.8802 8.76765 10.8802C8.71662 10.8802 8.67581 10.8802 8.62477 10.87C8.43084 10.7677 8.23691 10.6553 8.04298 10.8802C7.84905 10.9416 7.65513 11.0234 7.45099 10.8905C7.25706 11.1563 7.05293 11.0438 6.84879 10.9007C6.79776 10.9109 6.7467 10.9109 6.69567 10.9007L6.61403 10.8802L6.47112 10.8598C6.28739 10.8393 6.11388 10.8291 5.89954 10.9007C5.71581 10.8802 5.51169 10.9109 5.30756 10.9313C5.10342 10.9518 4.87885 10.962 4.74616 10.9007C4.78699 10.6655 4.82784 10.4508 4.83805 10.2565C4.84826 10.0622 4.82782 9.89855 4.74616 9.73494C4.66451 9.57133 4.67474 9.35659 4.70536 9.1623L4.72576 9.01912C4.73597 8.98845 4.73595 8.96801 4.74616 8.93733C4.75637 8.8862 4.75637 8.83508 4.74616 8.78395C5.00133 8.57944 4.66452 8.37492 4.75638 8.18063C4.73596 7.97612 4.89928 7.78181 4.7666 7.58752C4.71556 7.39323 4.67474 7.19894 4.77681 7.00465C4.38895 6.81036 4.87887 6.62631 4.79721 6.44224C4.96052 6.25818 4.77679 6.07411 4.81762 5.89005C4.74617 5.70598 5.00136 5.53216 4.83805 5.35832C4.85846 5.27651 4.81764 5.18448 4.80743 5.10267C4.79722 5.06177 4.79721 5.02087 4.79721 4.97997C4.79721 4.96974 4.80741 4.91861 4.81762 4.87771C4.82782 4.8368 4.83804 4.80611 4.85845 4.76521C4.76659 4.60159 4.80741 4.44822 4.84824 4.32551C4.89927 4.19257 4.9503 4.09032 4.87886 3.91648C4.87886 3.68129 4.86867 3.43586 4.89929 3.23134C4.94012 3.23134 4.98094 3.24158 5.02177 3.24158C5.29735 3.39497 5.4096 3.4052 5.51167 3.37452C5.60353 3.34384 5.6954 3.28248 5.80768 3.27226C5.94037 3.29271 6.04243 3.24159 6.15471 3.22114C6.26698 3.20069 6.39969 3.20067 6.52217 3.30293C6.55279 3.30293 6.5834 3.31317 6.60381 3.31317C6.62422 3.32339 6.64466 3.32338 6.65486 3.33361C6.69569 3.34383 6.72629 3.36429 6.75691 3.37452C6.82835 3.39497 6.88961 3.39496 6.96106 3.33361C7.09374 3.2927 7.22644 3.77332 7.34892 3.37452C7.4714 3.30294 7.59387 3.6813 7.71635 3.41543C7.82862 3.17001 7.94092 3.44609 8.05319 3.45631C8.16547 3.46654 8.26752 3.487 8.35938 3.49722C9.24738 3.63016 9.75771 3.78355 9.75771 3.94716C9.75771 4.13122 9.12491 4.29485 8.05319 4.43801C7.94092 4.44823 7.82862 4.66295 7.71635 4.47889C7.60407 4.47889 7.48161 4.64251 7.34892 4.5198C7.22644 4.79589 7.09374 4.57094 6.96106 4.56071C6.88961 4.57094 6.82835 4.55046 6.75691 4.54024C6.72629 4.54024 6.68548 4.54024 6.65486 4.54024C6.63445 4.54024 6.61402 4.55048 6.60381 4.56071C6.5936 4.57094 6.59361 4.58116 6.58341 4.59139C6.56299 4.67319 6.55279 4.65274 6.52217 4.62206C6.49155 4.59138 6.45071 4.56071 6.45071 4.62206C6.31803 4.44822 6.22618 4.49935 6.33845 4.65274C6.30783 4.63229 6.28741 4.61185 6.267 4.60162C6.23638 4.5914 6.25678 4.64251 6.2874 4.68341C6.31802 4.72432 6.34864 4.77545 6.34864 4.78568C6.21595 4.73455 6.19554 4.76522 6.22616 4.80612C6.25678 4.84702 6.32822 4.89817 6.37926 4.91862C6.38947 4.92884 6.39969 4.92883 6.39969 4.93906C6.4099 4.94928 6.40988 4.93906 6.40988 4.96973C6.40988 5.01064 6.4099 5.05153 6.39969 5.09244C6.38949 5.17424 6.36907 5.26628 6.39969 5.34808C6.34866 5.52192 6.46092 5.706 6.42009 5.87984C6.54258 6.0639 6.58339 6.24795 6.4405 6.43201C6.52215 6.61607 6.46093 6.81038 6.46093 6.99444C6.563 7.18873 6.4507 7.383 6.47112 7.57729C6.52215 7.77158 6.19554 7.96588 6.48133 8.1704C6.52216 8.37491 6.44052 8.5692 6.49155 8.77371L6.46093 8.92709L6.45071 8.99868C6.45071 8.99868 6.4507 9.00892 6.4405 9.00892C6.4405 9.02937 6.45071 9.04982 6.48133 9.03959C6.33844 9.11117 6.30783 9.16228 6.33845 9.1725C6.35887 9.18273 6.4303 9.15205 6.48133 9.11115C6.5834 9.02934 6.54258 9.07025 6.55279 9.11115C6.5732 9.10092 6.58342 9.09072 6.59362 9.10095H6.60381H6.67527L6.82836 9.11115C7.0325 9.02934 7.23663 9.23387 7.43056 9.12139C7.6347 8.99868 7.82864 9.25433 8.02257 9.13162C8.2165 9.04982 8.41044 9.00889 8.60437 9.14183C8.6554 9.14183 8.69621 9.16229 8.74725 9.18274C8.75746 9.20319 8.76767 9.22364 8.78808 9.24409C8.81871 9.27477 8.85951 9.28501 8.82889 9.1623C8.8391 9.13162 8.79827 9.03959 8.76765 8.99868C8.74724 8.95778 8.73704 8.97821 8.94118 9.1725C8.94118 9.16228 8.93096 9.16229 8.93096 9.15206C8.91055 9.12139 8.96158 9.15207 8.9922 9.1623C9.02282 9.17252 9.04325 9.15206 8.9718 9.09071C9.1147 9.14184 9.11468 9.10095 9.08406 9.07027C9.05344 9.02937 8.982 8.99867 8.9922 8.98845C9.04324 8.83506 9.1453 8.66124 9.02282 8.49763C8.89013 8.33402 9.09427 8.1704 9.05344 8.01702C8.89013 7.86363 9.26778 7.71023 9.08406 7.55685C9.12489 7.40346 9.06368 7.26031 9.11471 7.11715C8.72685 6.97399 9.11469 6.84106 9.15552 6.70812C9.21676 6.57519 8.90035 6.44225 9.19635 6.31954C8.90035 6.19683 9.15553 6.07411 9.23719 5.9514C9.31884 5.83891 9.11468 5.72644 9.27799 5.61396C9.07386 5.50148 9.39028 5.3992 9.31883 5.30717C9.45152 5.20491 9.32904 5.11288 9.35966 5.02085C9.30863 4.92882 9.32905 4.84701 9.4005 4.76521C9.41071 4.6834 9.43111 4.61182 9.45152 4.54024C9.55359 4.16189 9.65565 3.93692 9.75771 3.93692Z" fill="#202020"/>
<path d="M66.2218 0.705374C66.3341 0.705374 66.4362 1.07352 66.5281 1.74842C66.5485 1.8609 66.5587 1.98362 66.5791 2.10633C66.6097 2.23926 66.6403 2.37219 66.6301 2.51535C66.4872 2.65851 66.8955 2.81188 66.671 2.97549C66.6097 3.1391 66.671 3.30272 66.7118 3.48678C66.7628 3.66062 66.6199 3.84469 66.7526 4.03898C67.0282 4.23327 66.4464 4.42758 66.7934 4.63209C66.8751 4.83661 66.8445 5.05134 66.8343 5.26608C66.6199 5.48082 66.8343 5.70579 66.8649 5.94099C66.6097 6.17618 66.722 6.41137 66.8955 6.64656C66.5485 6.89198 66.5995 7.13738 66.9261 7.39302C66.9363 7.64867 66.8036 7.90432 66.9567 8.17019C66.9772 8.43606 67.0486 8.70194 66.9874 8.97803C67.2221 9.25413 67.2119 9.5302 67.0078 9.81652C67.2629 10.1028 67.1609 10.3892 67.0282 10.6857C66.8853 10.9823 67.2527 11.2788 67.0486 11.5856C67.0384 11.739 67.0588 11.8924 67.069 12.0458L67.0792 12.1582V12.2196V12.3116C67.0792 12.4548 67.0792 12.5979 67.069 12.7309C67.0282 12.9456 66.9874 13.1399 66.967 13.3342C66.9465 13.5285 66.9465 13.733 66.9771 13.9784C66.8853 13.9989 66.7934 14.0398 66.7118 14.0807C66.4464 14.1114 66.1606 14.1522 65.8646 14.1625C65.7115 14.1727 65.5584 14.1625 65.4053 14.1625L65.293 14.1523L65.2318 14.142L65.2012 14.1318C65.1603 14.1216 65.1195 14.1114 65.0787 14.0909C64.7521 14.3568 64.4255 14.2443 64.0988 14.1011C63.7722 14.142 63.4354 13.958 63.0986 14.1011C62.7924 14.0807 62.476 14.1113 62.1493 14.1318C61.8227 14.1522 61.4757 14.1625 61.2103 14.1011C61.2511 13.7432 61.2919 13.416 61.3022 13.1092C61.3124 12.8024 61.292 12.5263 61.2103 12.2093C61.0368 11.8719 61.2817 11.5345 61.2103 11.2072C61.4655 10.88 61.1287 10.5426 61.2205 10.2256C61.2001 9.89835 61.3634 9.58135 61.2307 9.26435C61.1797 8.94736 61.1388 8.63034 61.2409 8.32357C60.8531 8.0168 61.343 7.71003 61.2614 7.40326C61.4247 7.09649 61.2409 6.79994 61.2818 6.50339C61.2103 6.20684 61.4553 5.92052 61.3022 5.63419C61.3328 5.34787 61.1797 5.07177 61.3226 4.79567C61.1287 4.51958 61.4859 4.25373 61.3532 3.98786C61.3532 3.72199 61.343 3.46634 61.3838 3.2107C61.6798 2.95505 61.4349 2.70962 61.4144 2.4642C61.4451 2.21879 61.2409 1.98359 61.4451 1.75863L61.4553 1.64616L61.4757 1.51322C61.4859 1.42119 61.5063 1.33938 61.5165 1.25757C61.5369 1.09396 61.5369 0.93036 61.4757 0.725845C61.4655 0.613362 61.4961 0.531556 61.5471 0.470201C61.588 0.408847 61.6492 0.36793 61.6696 0.29635C61.8125 0.327027 61.8942 0.306582 61.8942 0.14297C62.0269 0.102067 62.2412 0.183869 62.4045 0.234998C62.578 0.286127 62.7005 0.316816 62.823 0.183882C63.1394 -0.0615364 63.2823 0.214536 63.466 0.224762C63.6395 0.234988 63.813 0.255448 63.9662 0.265674C65.4155 0.398609 66.2423 0.551998 66.2423 0.71561C66.2423 0.899673 65.2216 1.0633 63.4558 1.20646C63.2925 1.21668 63.0577 1.4314 63.0067 1.24734C62.9557 1.24734 62.925 1.28827 62.9046 1.30872C62.874 1.3394 62.8536 1.34962 62.7618 1.27804C62.8128 1.39053 62.823 1.42119 62.7924 1.42119C62.7924 1.45187 62.7005 1.42118 62.6903 1.47231C62.7005 1.56434 62.6087 1.61546 62.7311 1.75863C62.8944 1.98359 62.6495 2.22901 62.7618 2.4642C62.5882 2.70962 62.6291 2.95505 62.7924 3.2107C62.6189 3.46634 62.8332 3.72199 62.823 3.98786C62.5678 4.25373 62.7413 4.51958 62.8536 4.79567C62.9455 5.07177 62.8128 5.34787 62.874 5.63419C62.823 5.92052 62.9352 6.20684 62.8944 6.50339C63.0169 6.79994 63.0577 7.09649 62.9149 7.40326C62.9965 7.71003 62.9353 8.0168 62.9353 8.32357C63.0373 8.63034 62.9251 8.94736 62.9455 9.26435C62.9965 9.58135 62.6699 9.90858 62.9557 10.2256C62.9965 10.5528 62.9148 10.88 62.9659 11.2072C62.9353 11.5345 62.8944 11.8719 62.9659 12.2093C62.823 12.24 62.8026 12.3116 62.823 12.3423C62.8434 12.373 62.9148 12.3628 62.9659 12.3321C63.0781 12.2503 63.0373 12.2912 63.0883 12.3321C63.4252 12.3014 63.762 12.3219 64.0886 12.3321C64.4152 12.2503 64.7419 12.4548 65.0685 12.3423C65.1093 12.3321 65.1501 12.3218 65.191 12.3116H65.2216C65.2318 12.3116 65.242 12.3321 65.2624 12.3525C65.293 12.3832 65.3543 12.4139 65.3339 12.3628C65.3339 12.3423 65.3237 12.3321 65.3135 12.3218C65.2624 12.2503 65.2624 12.2707 65.3747 12.2707C65.3747 12.2605 65.3951 12.2502 65.4155 12.24C65.4257 12.2298 65.4257 12.24 65.4359 12.2196L65.4563 12.1582C65.4665 12.1173 65.4768 12.0764 65.487 12.0458C65.5176 11.8924 65.5278 11.739 65.4053 11.5856C65.3543 11.2788 65.0277 10.9823 65.4257 10.6857C65.3237 10.3892 65.6196 10.1028 65.4461 9.81652C65.7319 9.5302 65.4563 9.25413 65.4666 8.97803C65.5176 8.70194 65.6197 8.43606 65.4972 8.17019C65.3645 7.90432 65.5686 7.64867 65.5278 7.39302C65.3645 7.13738 65.7421 6.89198 65.5584 6.64656C65.5992 6.40115 65.5278 6.16595 65.589 5.94099C65.2012 5.71602 65.589 5.49105 65.6299 5.26608C65.6911 5.05134 65.3747 4.83661 65.6707 4.63209C65.3747 4.42758 65.6299 4.23327 65.7115 4.03898C65.7932 3.84469 65.589 3.66062 65.7523 3.48678C65.5482 3.31294 65.8646 3.1391 65.7932 2.97549C65.9259 2.81188 65.8034 2.65851 65.834 2.51535C65.783 2.37219 65.8034 2.22904 65.8748 2.10633C65.8952 1.97339 65.9054 1.8609 65.9258 1.74842C66.0075 1.07352 66.1096 0.705374 66.2218 0.705374Z" fill="#202020"/>
<path d="M66.2218 3.93695C66.3341 3.93695 66.4362 4.16192 66.5281 4.58117C66.5485 4.65275 66.5587 4.72433 66.5791 4.80614C66.6097 4.88795 66.6403 4.96975 66.6301 5.06178C66.4872 5.15382 66.8955 5.24585 66.6709 5.3481C66.6097 5.45036 66.671 5.55264 66.7118 5.6549C66.7628 5.76738 66.6199 5.87985 66.7526 5.99233C67.0282 6.11504 66.4464 6.22751 66.7934 6.36044C66.8751 6.48315 66.8445 6.61609 66.8343 6.74903C66.6199 6.88196 66.8343 7.02515 66.8649 7.15808C66.6097 7.30124 66.722 7.4444 66.8955 7.59778C66.5485 7.75117 66.5995 7.90454 66.9261 8.05792C66.9363 8.21131 66.8036 8.37492 66.9567 8.53853C66.9771 8.70215 67.0486 8.876 66.9874 9.02938C67.2221 9.07028 67.2119 9.00892 67.0078 9.15209C67.2425 9.06005 67.1711 9.06005 67.0588 9.21344L67.0384 9.24411C66.9976 9.31569 67.069 9.25434 67.12 9.21344C67.1711 9.16231 67.1915 9.12142 67.1609 9.22367C67.1813 9.2339 67.2017 9.21346 67.2221 9.20323C67.2323 9.19301 67.2425 9.193 67.2527 9.193C67.3038 9.193 67.3446 9.19301 67.3956 9.20323C67.5896 9.30549 67.7835 9.41796 67.9774 9.193C68.1713 9.13164 68.3653 9.04983 68.5694 9.18276C68.7736 8.91689 68.9675 9.02937 69.1716 9.17253C69.2227 9.1623 69.2737 9.1623 69.3247 9.17253C69.3451 9.17253 69.3758 9.18277 69.3962 9.193C69.3962 9.193 69.4064 9.20321 69.4064 9.21344C69.4268 9.23389 69.4574 9.24411 69.4472 9.17253C69.4676 9.19298 69.4778 9.1623 69.4676 9.14185C69.4676 9.1214 69.4574 9.11117 69.5288 9.17253C69.5697 9.2032 69.6105 9.21345 69.6207 9.193C69.6309 9.17255 69.6105 9.13164 69.5288 9.09073C69.4472 9.0396 69.4574 9.04984 69.488 9.03962C69.4982 9.03962 69.5084 9.03961 69.5084 9.02938C69.5186 9.00893 69.5186 8.97825 69.5288 8.95779C69.539 8.90666 69.539 8.85554 69.5288 8.80441C69.784 8.5999 69.4472 8.39539 69.5391 8.2011C69.5186 7.99658 69.682 7.80228 69.5493 7.60799C69.5084 7.4137 69.4574 7.21943 69.5595 7.02514C69.1716 6.83085 69.6615 6.64677 69.5799 6.46271C69.7432 6.27864 69.5595 6.0946 69.6003 5.91054C69.5288 5.72648 69.784 5.55262 69.6207 5.37878C69.6411 5.29697 69.6105 5.20494 69.5901 5.12314C69.5799 5.08223 69.5799 5.04134 69.5901 5.00043C69.5901 4.96976 69.6003 4.97998 69.6105 4.96976C69.6207 4.96976 69.6309 4.95954 69.6514 4.94932C69.5595 4.93909 69.5901 4.92887 69.6411 4.88796C69.6922 4.84706 69.7432 4.78569 69.6718 4.80614C69.6718 4.76524 69.6616 4.73456 69.682 4.6732C69.682 4.6732 69.682 4.663 69.6718 4.663C69.784 4.50961 69.7432 4.49938 69.6922 4.53006C69.6411 4.56073 69.5697 4.62209 69.5391 4.63232C69.5186 4.61187 69.4778 4.66299 69.4472 4.68344C69.4166 4.70389 69.4064 4.7039 69.386 4.60164C69.3758 4.60164 69.3758 4.59141 69.3656 4.59141L69.3145 4.57094C69.2839 4.56071 69.2431 4.54028 69.2124 4.53006C69.141 4.50961 69.0798 4.50958 69.0083 4.57094C68.8756 4.61184 68.7429 4.13125 68.6205 4.53006C68.498 4.60164 68.3755 4.22328 68.253 4.48915C68.1407 4.73456 68.0285 4.45846 67.9162 4.44823C67.8039 4.42778 67.7018 4.41758 67.61 4.40735C66.722 4.27442 66.2116 4.12103 66.2116 3.95742C66.2116 3.77335 66.8445 3.60973 67.9264 3.46657C68.0387 3.45634 68.1509 3.24159 68.2632 3.42566C68.3857 3.42566 68.498 3.26207 68.6307 3.38478C68.7531 3.10868 68.8858 3.33364 69.0185 3.34387C69.0899 3.33364 69.1512 3.35408 69.2227 3.36431C69.2533 3.36431 69.2941 3.36431 69.3247 3.36431C69.3451 3.36431 69.3553 3.35409 69.3757 3.34387C69.4064 3.33364 69.4268 3.32342 69.4574 3.31319C69.5799 3.23138 69.7024 3.25184 69.8146 3.28251C69.9269 3.31319 70.029 3.34387 70.1821 3.28251C70.3454 3.45635 70.5597 3.40522 70.9782 3.25184C70.9986 3.27229 71.019 3.29273 71.0395 3.30295C71.0088 3.44611 71.0292 3.52793 71.0599 3.63019C71.0905 3.72222 71.1211 3.81424 71.1211 3.93695C70.9884 4.15169 70.968 4.28464 70.9986 4.40735C71.0292 4.53006 71.1007 4.65274 71.1518 4.79591C71.162 4.83681 71.1722 4.8675 71.1824 4.9084C71.1926 4.93908 71.1926 4.99022 71.1926 5.01067C71.1926 5.05157 71.1926 5.09247 71.1824 5.13337C71.1722 5.21518 71.1518 5.30721 71.1824 5.38902C71.1313 5.56285 71.2538 5.74691 71.2028 5.92074C71.3253 6.10481 71.3661 6.28888 71.2232 6.47294C71.3048 6.65701 71.2436 6.85128 71.2436 7.03535C71.3457 7.22964 71.2334 7.42393 71.2538 7.61822C71.3048 7.81251 70.9782 8.00682 71.264 8.21133C71.3048 8.41585 71.2232 8.61013 71.2742 8.81465L71.2538 8.96803C71.2538 8.99871 71.2436 9.01914 71.2436 9.04982L71.2334 9.193C71.2334 9.37706 71.2436 9.57136 71.2742 9.77587C71.1313 9.90881 71.1109 10.0622 71.1313 10.2565C71.1517 10.4508 71.2232 10.6962 71.2742 10.9518C70.9578 11.0336 70.4985 10.9927 70.1005 10.9518C69.9167 10.9621 69.7126 10.9723 69.5187 10.9723H69.3757H69.2941L69.141 10.962C68.9369 11.0438 68.7327 10.8393 68.5388 10.9518C68.3346 11.0745 68.1407 10.8189 67.9468 10.9416C67.7529 11.0234 67.5589 11.0643 67.365 10.9314C67.314 10.9314 67.2732 10.9109 67.2221 10.8905C67.1405 10.87 67.0588 10.8496 66.9771 10.8291C66.8138 10.7984 66.671 10.7882 66.4566 10.9109C66.2831 10.9416 66.0483 11.0336 65.8442 11.0643C65.6401 11.1052 65.4461 11.0848 65.4767 10.8905C65.4461 10.9007 65.4053 10.9007 65.3849 10.9109C65.3645 10.778 65.4155 10.5837 65.4461 10.4099C65.4767 10.236 65.4972 10.0929 65.4257 9.9906C65.5686 9.76564 65.5686 9.63271 65.538 9.48955C65.5074 9.35662 65.4461 9.21344 65.4461 9.06006C65.4971 8.87599 65.5992 8.72262 65.4767 8.55901C65.344 8.39539 65.5482 8.23178 65.5074 8.07839C65.3441 7.92501 65.7217 7.77161 65.538 7.61822C65.5788 7.46484 65.5074 7.32168 65.5686 7.17852C65.1808 7.03536 65.5686 6.90243 65.6094 6.7695C65.6707 6.63656 65.3543 6.50362 65.6503 6.38092C65.3543 6.25821 65.6094 6.13548 65.6911 6.01277C65.7728 5.90029 65.5686 5.78782 65.7319 5.67534C65.5278 5.56285 65.8442 5.46061 65.7727 5.36858C65.9054 5.26632 65.783 5.17426 65.8136 5.08222C65.7625 4.99019 65.783 4.90839 65.8544 4.82658C65.8748 4.74478 65.885 4.67322 65.9054 4.60164C66.0075 4.16194 66.1096 3.93695 66.2218 3.93695Z" fill="#202020"/>
<path d="M69.8249 86.9804C69.8249 87.0929 69.1207 87.1951 67.8346 87.2871C67.6203 87.2974 67.3855 87.3178 67.1405 87.3382C66.8955 87.3689 66.6302 87.3996 66.3546 87.3792C66.079 87.236 65.783 87.645 65.4768 87.4201C65.1706 87.3587 64.8542 87.4201 64.5174 87.461C64.1806 87.5121 63.8335 87.3689 63.4661 87.5019C63.0986 87.778 62.7312 87.1951 62.3331 87.5428C61.9452 87.6144 61.537 87.5939 61.1287 87.5837C60.7102 87.3689 60.2917 87.5837 59.8529 87.6144C59.414 87.3587 58.9649 87.4712 58.5056 87.645C58.0462 87.2974 57.5665 87.3485 57.0868 87.6757C56.6071 87.6859 56.1069 87.553 55.6068 87.7064C55.1067 87.7268 54.5861 87.7984 54.0656 87.7371C53.545 87.9723 53.0041 87.962 52.4631 87.7575C51.9221 88.0132 51.371 87.9109 50.8096 87.778C50.2482 87.6348 49.6869 88.0029 49.1051 87.7984C48.5335 87.7882 47.9415 87.8598 47.3597 87.8189C46.7677 87.7166 46.1655 87.6041 45.5633 87.8291C44.9611 87.8905 44.3487 87.9723 43.7261 87.8393C43.1034 88.1052 42.4808 87.9927 41.848 87.8495C41.2152 87.8904 40.5824 87.7064 39.9393 87.8495C39.2963 87.8086 38.6533 87.9722 38.0001 87.8495C37.3468 87.7677 36.7038 87.6859 36.0608 87.8495C35.4177 88.0234 34.7849 87.778 34.1521 87.8495C33.5193 87.5939 32.8966 87.9314 32.274 87.8393C31.6514 87.8598 31.039 87.6962 30.4368 87.8291C29.8346 87.87 29.2324 87.9211 28.6404 87.8189C28.0484 88.2074 27.4666 87.7166 26.8848 87.7984C26.3132 87.6348 25.7417 87.8189 25.1803 87.778C24.6189 87.8496 24.0677 87.6041 23.5268 87.7575C22.9858 87.7268 22.4551 87.8802 21.9243 87.7371C21.4038 87.9314 20.8832 87.5735 20.3831 87.7064C19.8829 87.7064 19.3828 87.7166 18.9031 87.6757C18.4234 87.3689 17.9436 87.6246 17.4843 87.645C17.025 87.6144 16.5759 87.8189 16.137 87.6144C15.6981 87.5939 15.2695 87.461 14.8612 87.5837C14.4427 87.6246 14.0446 87.144 13.6568 87.5428C13.2689 87.6144 12.8913 87.236 12.5238 87.5019C12.1564 87.7473 11.8094 87.4712 11.4725 87.461C11.1357 87.4508 10.8193 87.4303 10.5131 87.4201C7.74705 87.2871 6.16498 87.1337 6.16498 86.9701C6.16498 86.7861 8.11449 86.6225 11.4725 86.4793C11.8094 86.4691 12.1564 86.2543 12.5238 86.4384C12.8811 86.4384 13.2587 86.2748 13.6568 86.3975C14.0446 86.1214 14.4427 86.3464 14.8612 86.3566C15.2797 86.3464 15.6981 86.4384 16.137 86.3259C16.5759 86.1623 17.025 86.4077 17.4843 86.2952C17.9436 86.4691 18.4234 86.4179 18.9031 86.2646C19.3828 86.4282 19.8829 86.2237 20.3831 86.2339C20.8832 86.4895 21.4038 86.3157 21.9243 86.2032C22.4449 86.1112 22.9858 86.2441 23.5268 86.1828C24.0677 86.2339 24.6189 86.1112 25.1803 86.1623C25.7417 86.0396 26.3132 85.9987 26.8848 86.1419C27.4564 86.06 28.0484 86.1214 28.6404 86.1214C29.2324 86.0191 29.8346 86.1316 30.4368 86.1112C31.039 86.06 31.6514 86.3873 32.274 86.1009C32.8966 86.06 33.5193 86.1418 34.1521 86.0907C34.7849 86.1316 35.4177 86.1623 36.0608 86.0907C36.7038 86.377 37.3468 86.2032 38.0001 86.0907C38.6533 86.0089 39.2963 86.0498 39.9393 86.0907C40.5824 86.06 41.2152 86.0805 41.848 86.0907C42.4808 86.0089 43.1034 86.2134 43.7261 86.1009C44.3487 85.9782 44.9611 86.2339 45.5633 86.1112C46.1655 86.0294 46.7677 85.9884 47.3597 86.1214C47.9517 86.1214 48.5335 86.377 49.1051 86.1419C49.6869 86.0907 50.2482 85.7635 50.8096 86.1623C51.371 86.06 51.9221 86.3566 52.4631 86.1828C53.0041 86.4691 53.5348 86.193 54.0656 86.2032C54.5861 86.2646 55.1067 86.3566 55.6068 86.2339C56.1069 86.1009 56.6071 86.3055 57.0868 86.2646C57.5665 86.1009 58.0462 86.4793 58.5056 86.2952C58.9649 86.3361 59.414 86.2748 59.8529 86.3259C60.2917 85.9373 60.7204 86.3259 61.1287 86.3566C61.5472 86.4077 61.9452 86.101 62.3331 86.3975C62.721 86.101 63.0986 86.3566 63.4661 86.4384C63.8335 86.5202 64.1806 86.3157 64.5174 86.4793C64.8542 86.2748 65.1706 86.5918 65.4768 86.5202C65.783 86.6531 66.079 86.5304 66.3546 86.5611C66.6302 86.5202 66.8955 86.5304 67.1405 86.6122C67.3855 86.6327 67.6203 86.6429 67.8346 86.6634C69.1207 86.7656 69.8249 86.8679 69.8249 86.9804Z" fill="#202020"/>
</svg>
