<svg width="22" height="22" viewBox="0 0 22 22" fill="none" xmlns="http://www.w3.org/2000/svg">
<path d="M8.95027 5.64888L8.68717 4.94655L8.95027 5.64888ZM10.4005 4.23419L11.0987 4.50809V4.50809L10.4005 4.23419ZM7.81963 10.0739L7.35384 10.6618H7.35384L7.81963 10.0739ZM8.47961 5.8252L8.74272 6.52754L8.47961 5.8252ZM9.16621 12.1801L8.41781 12.2291V12.2291L9.16621 12.1801ZM8.21432 10.3867L8.68011 9.79886H8.68011L8.21432 10.3867ZM8.98888 11.1361L9.65135 10.7845L8.98888 11.1361ZM13.1588 14.6412L13.5564 15.2771L13.5564 15.2771L13.1588 14.6412ZM9.19842 12.6717L9.94682 12.6226V12.6226L9.19842 12.6717ZM15.621 14.07L15.8097 13.3441L15.8097 13.3441L15.621 14.07ZM13.5825 14.3763L13.1849 13.7404L13.1849 13.7404L13.5825 14.3763ZM19.2192 11.166L19.9417 10.9645L19.9417 10.9645L19.2192 11.166ZM16.1116 14.1975L15.9229 14.9234L15.9229 14.9234L16.1116 14.1975ZM19.3944 8.7068L18.7674 8.29521V8.29521L19.3944 8.7068ZM19.0864 10.6895L18.3639 10.891L18.3639 10.891L19.0864 10.6895ZM17.6256 4.45095L17.6694 3.70224L17.6256 4.45095ZM19.6653 8.29403L20.2923 8.70562V8.70562L19.6653 8.29403ZM15.2716 3.50226L14.6986 3.98616L15.2716 3.50226ZM17.1198 4.42135L17.076 5.17007V5.17007L17.1198 4.42135ZM14.9485 3.11967L15.5215 2.63577L14.9485 3.11967ZM10.5802 3.77604L9.88204 3.50213V3.50213L10.5802 3.77604ZM6.01942 8.16952C6.36103 7.93526 6.44806 7.46843 6.21381 7.12682C5.97956 6.78521 5.51273 6.69818 5.17111 6.93244L6.01942 8.16952ZM1.33125 21L0.591921 21.1261C0.649151 21.4617 0.925276 21.7167 1.26439 21.747C1.60351 21.7774 1.92052 21.5755 2.03644 21.2554L1.33125 21ZM9.61384 15.125C10.0088 15.0001 10.2277 14.5787 10.1029 14.1838C9.97799 13.7888 9.55659 13.5699 9.16165 13.6948L9.61384 15.125ZM14.3755 3.60357L14.6986 3.98616L15.8446 3.01836L15.5215 2.63577L14.3755 3.60357ZM17.076 5.17007L17.5818 5.19967L17.6694 3.70224L17.1636 3.67264L17.076 5.17007ZM19.0384 7.88243L18.7674 8.29521L20.0213 9.1184L20.2923 8.70562L19.0384 7.88243ZM18.3639 10.891L18.4968 11.3674L19.9417 10.9645L19.8088 10.4881L18.3639 10.891ZM16.3002 13.4716L15.8097 13.3441L15.4324 14.7959L15.9229 14.9234L16.3002 13.4716ZM13.1849 13.7404L12.7613 14.0052L13.5564 15.2771L13.9801 15.0123L13.1849 13.7404ZM9.94682 12.6226L9.9146 12.1311L8.41781 12.2291L8.45003 12.7207L9.94682 12.6226ZM8.68011 9.79886L8.28542 9.48611L7.35384 10.6618L7.74853 10.9745L8.68011 9.79886ZM8.74272 6.52754L9.21338 6.35122L8.68717 4.94655L8.21651 5.12287L8.74272 6.52754ZM11.0987 4.50809L11.2784 4.04994L9.88204 3.50213L9.7023 3.96028L11.0987 4.50809ZM9.21338 6.35122C9.6679 6.18095 10.11 6.0313 10.4388 5.71057L9.39134 4.63684C9.34149 4.68547 9.2666 4.72949 8.68717 4.94655L9.21338 6.35122ZM9.70231 3.96028C9.48074 4.52506 9.43833 4.591 9.39134 4.63684L10.4388 5.71057C10.7704 5.38706 10.9254 4.94977 11.0987 4.50809L9.70231 3.96028ZM8.28542 9.48611C7.50294 8.86608 6.98411 8.45247 6.66311 8.11152C6.34386 7.77241 6.38167 7.67187 6.38209 7.66917L4.89986 7.43893C4.79053 8.14279 5.15486 8.69775 5.57097 9.13973C5.98534 9.57986 6.61071 10.0729 7.35384 10.6618L8.28542 9.48611ZM8.21651 5.12287C7.3305 5.45478 6.58512 5.7319 6.05671 6.02367C5.52567 6.31688 5.00933 6.7342 4.89986 7.43893L6.38209 7.66917C6.38237 7.66733 6.37573 7.56098 6.78175 7.3368C7.19041 7.11116 7.80947 6.87715 8.74272 6.52754L8.21651 5.12287ZM9.9146 12.1311C9.88352 11.6567 9.86849 11.1936 9.65135 10.7845L8.32641 11.4877C8.35779 11.5468 8.37814 11.6236 8.41781 12.2291L9.9146 12.1311ZM7.74853 10.9745C8.23406 11.3592 8.29307 11.4249 8.32641 11.4877L9.65135 10.7845C9.43616 10.379 9.06165 10.1012 8.68011 9.79886L7.74853 10.9745ZM12.7613 14.0052C11.9213 14.5303 11.3627 14.8772 10.9337 15.0648C10.5134 15.2486 10.4079 15.1927 10.3777 15.1777L9.70984 16.5208C10.3383 16.8333 10.9716 16.6853 11.5346 16.4391C12.0892 16.1967 12.7588 15.7757 13.5564 15.2771L12.7613 14.0052ZM8.45003 12.7207C8.51059 13.645 8.55968 14.4263 8.68831 15.0112C8.81969 15.6087 9.07651 16.2059 9.70984 16.5208L10.3777 15.1777C10.3525 15.1651 10.2488 15.1235 10.1533 14.6891C10.055 14.2422 10.0108 13.5984 9.94682 12.6226L8.45003 12.7207ZM15.8097 13.3441C15.3325 13.2201 14.8884 13.0902 14.4352 13.1583L14.6581 14.6416C14.7371 14.6297 14.8318 14.6398 15.4324 14.7959L15.8097 13.3441ZM13.9801 15.0123C14.4991 14.6878 14.5817 14.6531 14.6581 14.6416L14.4352 13.1583C13.9794 13.2268 13.5966 13.483 13.1849 13.7404L13.9801 15.0123ZM18.4968 11.3674C18.7605 12.3132 18.9326 12.9381 18.9878 13.3915C19.042 13.8362 18.9539 13.8909 18.949 13.8956L19.9964 14.9694C20.5083 14.47 20.5502 13.8122 20.4768 13.2101C20.4045 12.6166 20.1914 11.8603 19.9417 10.9645L18.4968 11.3674ZM15.9229 14.9234C16.8473 15.1636 17.621 15.3666 18.2261 15.4342C18.8341 15.5021 19.4919 15.4615 19.9964 14.9694L18.949 13.8956C18.9366 13.9077 18.862 13.9959 18.3927 13.9435C17.9205 13.8907 17.2721 13.7242 16.3002 13.4716L15.9229 14.9234ZM18.7674 8.29521C18.5071 8.69171 18.2376 9.07358 18.1666 9.53059L19.6488 9.76084C19.6582 9.7002 19.6864 9.62867 20.0213 9.1184L18.7674 8.29521ZM19.8088 10.4881C19.6446 9.89917 19.6393 9.82181 19.6488 9.76084L18.1666 9.53059C18.0956 9.98728 18.2363 10.4332 18.3639 10.891L19.8088 10.4881ZM17.5818 5.19967C18.5837 5.25831 19.2517 5.29929 19.7172 5.39439C20.1795 5.48882 20.2256 5.59594 20.2348 5.6133L21.5597 4.91007C21.2297 4.28832 20.6174 4.04728 20.0174 3.92473C19.4207 3.80284 18.6224 3.75801 17.6694 3.70224L17.5818 5.19967ZM20.2923 8.70562C20.8017 7.92965 21.2341 7.27481 21.4831 6.73172C21.736 6.17992 21.8948 5.54135 21.5597 4.91007L20.2348 5.6133C20.2389 5.62112 20.3055 5.70098 20.1195 6.1067C19.9295 6.52113 19.5764 7.06291 19.0384 7.88243L20.2923 8.70562ZM14.6986 3.98616C15.0127 4.35813 15.2989 4.71908 15.7113 4.92415L16.3792 3.58106C16.309 3.54617 16.2403 3.48688 15.8446 3.01836L14.6986 3.98616ZM17.1636 3.67264C16.5447 3.63641 16.4512 3.61689 16.3792 3.58106L15.7113 4.92415C16.1217 5.12828 16.5838 5.14127 17.076 5.17007L17.1636 3.67264ZM15.5215 2.63577C14.9132 1.91537 14.4035 1.30881 13.9493 0.907555C13.4887 0.500609 12.9311 0.164637 12.2373 0.268886L12.4602 1.75223C12.4929 1.74733 12.6107 1.72649 12.9562 2.03168C13.308 2.34255 13.735 2.84513 14.3755 3.60357L15.5215 2.63577ZM11.2784 4.04995C11.6353 3.14038 11.8726 2.54129 12.1015 2.14622C12.324 1.76229 12.4342 1.75614 12.4602 1.75223L12.2373 0.268886C11.5369 0.374135 11.1102 0.865286 10.8037 1.39408C10.5037 1.91174 10.2199 2.64082 9.88204 3.50213L11.2784 4.04995ZM5.17111 6.93244C3.49941 8.07878 2.02192 9.7519 1.13211 12.0987C0.244033 14.4408 -0.0418975 17.409 0.591921 21.1261L2.07058 20.8739C1.47143 17.3602 1.76084 14.6714 2.53467 12.6305C3.30678 10.5941 4.57778 9.1581 6.01942 8.16952L5.17111 6.93244ZM2.03644 21.2554C3.01616 18.5497 6.05194 16.2511 9.61384 15.125L9.16165 13.6948C5.37328 14.8925 1.82919 17.4221 0.626059 20.7446L2.03644 21.2554Z" fill="#87CEDD"/>
</svg>
