<svg width="47" height="48" viewBox="0 0 47 48" fill="none" xmlns="http://www.w3.org/2000/svg">
<rect width="47" height="48" rx="23.5" fill="#87CEDD"/>
<path d="M13.5 24C13.5 20.2288 13.5 18.3431 14.6716 17.1716C15.8431 16 17.7288 16 21.5 16H25.5C29.2712 16 31.1569 16 32.3284 17.1716C33.5 18.3431 33.5 20.2288 33.5 24V26C33.5 29.7712 33.5 31.6569 32.3284 32.8284C31.1569 34 29.2712 34 25.5 34H21.5C17.7288 34 15.8431 34 14.6716 32.8284C13.5 31.6569 13.5 29.7712 13.5 26V24Z" stroke="#202020" stroke-width="1.5"/>
<path d="M18.5 16V14.5" stroke="#202020" stroke-width="1.5" stroke-linecap="round"/>
<path d="M28.5 16V14.5" stroke="#202020" stroke-width="1.5" stroke-linecap="round"/>
<path d="M14 21H33" stroke="#202020" stroke-width="1.5" stroke-linecap="round"/>
<path d="M29.5 29C29.5 29.5523 29.0523 30 28.5 30C27.9477 30 27.5 29.5523 27.5 29C27.5 28.4477 27.9477 28 28.5 28C29.0523 28 29.5 28.4477 29.5 29Z" fill="#202020"/>
<path d="M29.5 25C29.5 25.5523 29.0523 26 28.5 26C27.9477 26 27.5 25.5523 27.5 25C27.5 24.4477 27.9477 24 28.5 24C29.0523 24 29.5 24.4477 29.5 25Z" fill="#202020"/>
<path d="M24.5 29C24.5 29.5523 24.0523 30 23.5 30C22.9477 30 22.5 29.5523 22.5 29C22.5 28.4477 22.9477 28 23.5 28C24.0523 28 24.5 28.4477 24.5 29Z" fill="#202020"/>
<path d="M24.5 25C24.5 25.5523 24.0523 26 23.5 26C22.9477 26 22.5 25.5523 22.5 25C22.5 24.4477 22.9477 24 23.5 24C24.0523 24 24.5 24.4477 24.5 25Z" fill="#202020"/>
<path d="M19.5 29C19.5 29.5523 19.0523 30 18.5 30C17.9477 30 17.5 29.5523 17.5 29C17.5 28.4477 17.9477 28 18.5 28C19.0523 28 19.5 28.4477 19.5 29Z" fill="#202020"/>
<path d="M19.5 25C19.5 25.5523 19.0523 26 18.5 26C17.9477 26 17.5 25.5523 17.5 25C17.5 24.4477 17.9477 24 18.5 24C19.0523 24 19.5 24.4477 19.5 25Z" fill="#202020"/>
</svg>
