<svg width="36" height="36" viewBox="0 0 36 36" fill="none" xmlns="http://www.w3.org/2000/svg">
<rect width="36" height="36" rx="18" fill="#AFE087"/>
<path d="M9.45623 15.7027C12.9022 14.5672 14.3112 17.1908 14.398 17.7938C17.7713 15.752 20.6439 18.0954 21.3222 18.5397C21.3222 18.5397 20.1069 14.8581 19.5679 11.9805C19.0309 9.10298 16.6166 11.4957 15.9706 10.9596C15.3246 10.4236 14.5312 10.0569 15.3407 8.91784C16.1502 7.77881 18.8028 7.7788 20.0161 8.48585C21.2293 9.1929 27.346 17.912 26.9846 20.0314C26.6233 22.1507 20.6015 25.5326 14.2607 24.1185C14.2607 26.6434 11.4547 27.5956 9.94072 27.927C9.38154 28.0487 9 28.0893 9 27.4633C9 26.5359 9 16.8664 9 16.3886C9.00202 15.812 9.30886 15.7521 9.45623 15.7027Z" fill="#FFD594"/>
<path d="M19.5678 11.2682C19.5678 12.1339 18.7644 12.8357 17.7712 12.8357C16.78 12.8357 15.9766 12.1339 15.9766 11.2682C15.9766 10.4024 16.78 9.70069 17.7712 9.70069C18.7644 9.69892 19.5678 10.4024 19.5678 11.2682Z" fill="#EA444E"/>
</svg>
