<svg width="25" height="24" viewBox="0 0 25 24" fill="none" xmlns="http://www.w3.org/2000/svg">
<circle cx="12.5" cy="12" r="3" stroke="#87CEDD" stroke-width="1.5"/>
<path d="M14.2654 2.15224C13.8978 2 13.4319 2 12.5 2C11.5681 2 11.1022 2 10.7346 2.15224C10.2446 2.35523 9.85522 2.74458 9.65223 3.23463C9.55957 3.45834 9.5233 3.7185 9.50911 4.09799C9.48826 4.65568 9.20226 5.17189 8.71894 5.45093C8.23564 5.72996 7.64559 5.71954 7.15219 5.45876C6.81645 5.2813 6.57301 5.18262 6.33294 5.15102C5.80704 5.08178 5.27518 5.22429 4.85436 5.5472C4.53874 5.78938 4.30577 6.1929 3.83983 6.99993C3.37389 7.80697 3.14092 8.21048 3.08899 8.60491C3.01976 9.1308 3.16227 9.66266 3.48518 10.0835C3.63256 10.2756 3.8397 10.437 4.16119 10.639C4.6338 10.936 4.93789 11.4419 4.93786 12C4.93783 12.5581 4.63375 13.0639 4.16118 13.3608C3.83965 13.5629 3.63248 13.7244 3.48508 13.9165C3.16217 14.3373 3.01966 14.8691 3.0889 15.395C3.14082 15.7894 3.37379 16.193 3.83973 17C4.30568 17.807 4.53865 18.2106 4.85426 18.4527C5.27508 18.7756 5.80694 18.9181 6.33284 18.8489C6.57289 18.8173 6.81632 18.7186 7.15204 18.5412C7.64547 18.2804 8.23556 18.27 8.7189 18.549C9.20224 18.8281 9.48826 19.3443 9.50911 19.9021C9.52331 20.2815 9.55957 20.5417 9.65223 20.7654C9.85522 21.2554 10.2446 21.6448 10.7346 21.8478C11.1022 22 11.5681 22 12.5 22C13.4319 22 13.8978 22 14.2654 21.8478C14.7554 21.6448 15.1448 21.2554 15.3477 20.7654C15.4404 20.5417 15.4767 20.2815 15.4909 19.902C15.5117 19.3443 15.7977 18.8281 16.281 18.549C16.7643 18.2699 17.3544 18.2804 17.8479 18.5412C18.1836 18.7186 18.427 18.8172 18.667 18.8488C19.1929 18.9181 19.7248 18.7756 20.1456 18.4527C20.4612 18.2105 20.6942 17.807 21.1601 16.9999C21.6261 16.1929 21.8591 15.7894 21.911 15.395C21.9802 14.8691 21.8377 14.3372 21.5148 13.9164C21.3674 13.7243 21.1602 13.5628 20.8387 13.3608C20.3662 13.0639 20.0621 12.558 20.0621 11.9999C20.0621 11.4418 20.3662 10.9361 20.8387 10.6392C21.1603 10.4371 21.3675 10.2757 21.5149 10.0835C21.8378 9.66273 21.9803 9.13087 21.9111 8.60497C21.8592 8.21055 21.6262 7.80703 21.1602 7C20.6943 6.19297 20.4613 5.78945 20.1457 5.54727C19.7249 5.22436 19.193 5.08185 18.6671 5.15109C18.4271 5.18269 18.1837 5.28136 17.8479 5.4588C17.3545 5.71959 16.7644 5.73002 16.2811 5.45096C15.7977 5.17191 15.5117 4.65566 15.4909 4.09794C15.4767 3.71848 15.4404 3.45833 15.3477 3.23463C15.1448 2.74458 14.7554 2.35523 14.2654 2.15224Z" stroke="#87CEDD" stroke-width="1.5"/>
</svg>
