<svg width="47" height="48" viewBox="0 0 47 48" fill="none" xmlns="http://www.w3.org/2000/svg">
<rect width="47" height="48" rx="23.5" fill="#87CEDD"/>
<circle cx="23.5" cy="24" r="3" stroke="#202020" stroke-width="1.5"/>
<path d="M25.2654 14.1522C24.8978 14 24.4319 14 23.5 14C22.5681 14 22.1022 14 21.7346 14.1522C21.2446 14.3552 20.8552 14.7446 20.6522 15.2346C20.5596 15.4583 20.5233 15.7185 20.5091 16.098C20.4883 16.6557 20.2023 17.1719 19.7189 17.4509C19.2356 17.73 18.6456 17.7195 18.1522 17.4588C17.8164 17.2813 17.573 17.1826 17.3329 17.151C16.807 17.0818 16.2752 17.2243 15.8544 17.5472C15.5387 17.7894 15.3058 18.1929 14.8398 18.9999C14.3739 19.807 14.1409 20.2105 14.089 20.6049C14.0198 21.1308 14.1623 21.6627 14.4852 22.0835C14.6326 22.2756 14.8397 22.437 15.1612 22.639C15.6338 22.936 15.9379 23.4419 15.9379 24C15.9378 24.5581 15.6337 25.0639 15.1612 25.3608C14.8396 25.5629 14.6325 25.7244 14.4851 25.9165C14.1622 26.3373 14.0197 26.8691 14.0889 27.395C14.1408 27.7894 14.3738 28.193 14.8397 29C15.3057 29.807 15.5386 30.2106 15.8543 30.4527C16.2751 30.7756 16.8069 30.9181 17.3328 30.8489C17.5729 30.8173 17.8163 30.7186 18.152 30.5412C18.6455 30.2804 19.2356 30.27 19.7189 30.549C20.2022 30.8281 20.4883 31.3443 20.5091 31.9021C20.5233 32.2815 20.5596 32.5417 20.6522 32.7654C20.8552 33.2554 21.2446 33.6448 21.7346 33.8478C22.1022 34 22.5681 34 23.5 34C24.4319 34 24.8978 34 25.2654 33.8478C25.7554 33.6448 26.1448 33.2554 26.3477 32.7654C26.4404 32.5417 26.4767 32.2815 26.4909 31.902C26.5117 31.3443 26.7977 30.8281 27.281 30.549C27.7643 30.2699 28.3544 30.2804 28.8479 30.5412C29.1836 30.7186 29.427 30.8172 29.667 30.8488C30.1929 30.9181 30.7248 30.7756 31.1456 30.4527C31.4612 30.2105 31.6942 29.807 32.1601 28.9999C32.6261 28.1929 32.8591 27.7894 32.911 27.395C32.9802 26.8691 32.8377 26.3372 32.5148 25.9164C32.3674 25.7243 32.1602 25.5628 31.8387 25.3608C31.3662 25.0639 31.0621 24.558 31.0621 23.9999C31.0621 23.4418 31.3662 22.9361 31.8387 22.6392C32.1603 22.4371 32.3675 22.2757 32.5149 22.0835C32.8378 21.6627 32.9803 21.1309 32.9111 20.605C32.8592 20.2106 32.6262 19.807 32.1602 19C31.6943 18.193 31.4613 17.7894 31.1457 17.5473C30.7249 17.2244 30.193 17.0818 29.6671 17.1511C29.4271 17.1827 29.1837 17.2814 28.8479 17.4588C28.3545 17.7196 27.7644 17.73 27.2811 17.451C26.7977 17.1719 26.5117 16.6557 26.4909 16.0979C26.4767 15.7185 26.4404 15.4583 26.3477 15.2346C26.1448 14.7446 25.7554 14.3552 25.2654 14.1522Z" stroke="#202020" stroke-width="1.5"/>
</svg>
