<svg width="119" height="90" viewBox="0 0 119 90" fill="none" xmlns="http://www.w3.org/2000/svg">
<path d="M47.1543 90C43.4048 90 39.7911 89.3377 36.5082 87.9961C30.0019 85.3385 24.98 80.0486 21.9771 72.7039C13.2991 51.4594 28.5683 37.6446 39.7148 27.5573C48.0789 19.9918 53.1008 15.101 51.0564 10.1763C49.8094 7.17045 48.2486 5.50621 46.4163 5.2345C42.2766 4.63164 36.5167 10.397 34.8286 12.4688L30.7993 9.1913C31.6476 8.13842 39.3585 -1.04033 47.1628 0.0974604C50.9292 0.649374 53.8473 3.36648 55.8492 8.18087C59.4035 16.7483 51.5314 23.8722 43.1927 31.4122C32.0717 41.4655 19.4746 52.8604 26.7699 70.734C29.2639 76.839 33.1999 81.0335 38.4593 83.1817C44.3719 85.6017 52.0489 85.2535 58.9879 82.2647L60.0143 81.8232L61.0407 82.2647C67.8864 85.2196 75.012 85.5932 80.6107 83.3091C85.7344 81.2118 89.628 76.9833 92.1814 70.734C99.4767 52.8604 86.8796 41.4655 75.767 31.4122C67.4284 23.8722 59.5562 16.7483 63.1106 8.18087C65.1125 3.36648 68.0306 0.640883 71.797 0.0974604C79.5928 -1.04033 87.3037 8.14691 88.1605 9.1913L84.1311 12.4688C82.4431 10.397 76.6747 4.63164 72.5435 5.2345C70.7112 5.50621 69.1589 7.16196 67.9034 10.1763C65.859 15.101 70.8809 19.9918 79.245 27.5573C90.3915 37.6446 105.661 51.4594 96.9827 72.7039C93.8865 80.2948 89.0342 85.4828 82.5703 88.1235C75.9791 90.8151 67.8101 90.5689 60.0058 87.4697C55.7813 89.1509 51.3872 90 47.1543 90Z" fill="#EAD070"/>
<path d="M59.9464 86.9432L59.6664 86.9008C48.2824 85.2535 39.2481 75.0644 39.1039 63.7034C39.0615 60.1712 40.4103 56.9191 43.006 54.2869C46.7809 50.4575 52.9989 48.1734 59.6325 48.1734C66.0116 48.1734 72.1023 50.4915 75.9366 54.3803C78.5748 57.055 79.9405 60.2816 79.8981 63.7119C79.7454 75.7521 70.9232 86.1621 60.2263 86.9263L59.9464 86.9432ZM59.6325 53.3699C54.4325 53.3699 49.4785 55.119 46.6961 57.938C45.0759 59.5853 44.2615 61.5042 44.2955 63.644C44.4057 72.2708 51.4804 80.3118 60.133 81.7128C67.9457 80.9826 74.5878 72.7803 74.7066 63.644C74.732 61.6061 73.9007 59.7127 72.2465 58.0314C69.3963 55.153 64.5695 53.3699 59.6325 53.3699Z" fill="#EAD070"/>
<path d="M15.3264 39.9711C11.823 43.4779 6.131 43.4779 2.62757 39.9711C-0.875858 36.4644 -0.875858 30.7669 2.62757 27.2601L20.6791 9.19131C24.1826 5.67604 29.8746 5.67604 33.378 9.19131C36.8815 12.6981 36.8815 18.3955 33.378 21.9023L15.3264 39.9711Z" fill="#87CEDD"/>
<path d="M103.667 39.9711C107.171 43.4779 112.863 43.4779 116.366 39.9711C119.878 36.4644 119.878 30.7669 116.366 27.2601L98.3144 9.19131C94.811 5.67604 89.119 5.67604 85.6156 9.19131C82.1037 12.6981 82.1037 18.3955 85.6156 21.9023L103.667 39.9711Z" fill="#87CEDD"/>
</svg>
