<svg width="76" height="74" viewBox="0 0 76 74" fill="none" xmlns="http://www.w3.org/2000/svg">
<path d="M55.0015 19.4026C54.9835 19.3756 55.1187 19.2767 55.371 19.0699C55.6144 18.8541 55.9658 18.5304 56.3353 18.0178C56.5246 17.766 56.7138 17.4693 56.9031 17.1276C57.0924 16.7949 57.2906 16.3992 57.534 15.9946C58.0116 15.1763 58.5884 14.2591 59.2553 13.234C59.6969 12.5506 60.1655 11.8133 60.6612 11.022C61.1479 10.2217 61.6435 9.36744 62.1662 8.46824C62.4726 8.04561 62.6709 7.54205 62.8602 7.0295C63.0494 6.51695 63.2207 5.99541 63.491 5.50085C63.6893 4.97931 63.8245 4.4218 63.8425 3.8553C63.8515 3.29779 63.7254 2.74928 63.3919 2.34464C63.2297 2.13782 63.0314 1.96697 62.7971 1.81411C62.5628 1.66124 62.2924 1.54434 62.004 1.44543C61.4272 1.2476 60.7693 1.16668 60.1114 1.19365C59.9402 1.21164 59.778 1.23862 59.6068 1.23862C59.4355 1.24761 59.2643 1.2476 59.0841 1.2476C58.7326 1.23861 58.3811 1.21163 58.0206 1.17566C57.3087 1.11272 56.5787 1.05878 55.8397 1.21164C54.3617 1.27459 52.8296 1.2566 51.2524 1.2476C49.6753 1.05877 48.0531 1.2476 46.3859 1.28357C44.7186 1.05876 43.0063 1.15768 41.2489 1.31054C39.4915 1.00481 37.6981 1.04978 35.8596 1.33753C34.0211 1.34652 32.1465 1.22962 30.2269 1.3645C28.3073 1.38249 26.3517 1.44543 24.36 1.39148C22.3683 1.5983 20.3406 1.5893 18.2768 1.40945C17.7631 1.46341 17.2404 1.49938 16.7267 1.52636L16.3481 1.54434C16.222 1.55334 16.1048 1.55334 15.9786 1.56233C15.7353 1.58032 15.492 1.5983 15.2577 1.61628C14.3204 1.71519 13.4011 1.93999 12.9055 2.4975C12.6531 2.76726 12.527 3.15392 12.527 3.59453C12.5179 4.02615 12.6171 4.50273 12.7613 4.97032C13.0587 5.9055 13.5273 6.84067 13.9509 7.82081C14.9422 9.70914 16.24 11.4986 17.4476 13.3869C18.0334 14.3491 18.6192 15.3202 19.205 16.3363L19.4123 16.705C19.4754 16.8129 19.5475 16.9118 19.6196 17.0107C19.7638 17.2085 19.935 17.4064 20.1243 17.5862C20.3135 17.775 20.5208 17.9459 20.7371 18.1347L20.8633 18.2516L21.0075 18.3775L21.1426 18.5124L21.2688 18.6563C21.431 18.8451 21.5392 19.0519 21.5842 19.2677C21.6203 19.4565 21.5842 19.6813 21.4941 19.8432C21.458 19.9241 21.377 19.9961 21.3139 20.077L21.2147 20.1939L21.1607 20.2479L21.0976 20.3018L20.8092 20.5176L20.674 20.6165L20.6019 20.6795C20.5028 20.7604 20.4036 20.8323 20.3135 20.9133C20.1242 21.0751 19.935 21.237 19.7458 21.3988C19.3672 21.7315 18.9977 22.0642 18.6282 22.4149C17.8892 23.1073 17.1773 23.8267 16.4653 24.564C15.1405 26.4434 13.7346 28.2508 12.527 30.256C11.9952 31.2901 11.4815 32.3422 11.0399 33.4392C10.5893 34.5273 10.2379 35.6603 10.0216 36.8292C9.85934 37.4047 9.76021 37.9892 9.65206 38.5737C9.57095 39.1672 9.47182 39.7517 9.42676 40.3451L9.38171 40.7947L9.36366 41.0195L9.34565 41.2443C9.32762 41.5411 9.3096 41.8378 9.29158 42.1435C9.27355 42.4403 9.27355 42.746 9.25552 43.0427C9.24651 43.3395 9.21946 43.6452 9.21946 43.942C9.21946 44.2477 9.21946 44.5444 9.21946 44.8412V45.066L9.22849 45.2908L9.25552 45.7404C9.27355 46.0371 9.28256 46.3428 9.30959 46.6396C9.34564 46.9363 9.3817 47.2331 9.40874 47.5298L9.46281 47.9704L9.54392 48.411C9.59799 48.7078 9.65207 48.9955 9.71515 49.2922C9.77824 49.58 9.85935 49.8677 9.94046 50.1555C10.0216 50.4432 10.0847 50.731 10.1928 51.0097C10.3911 51.5672 10.5533 52.1337 10.7606 52.6912C10.8507 52.97 10.9498 53.2488 11.0399 53.5275C11.1391 53.8063 11.2472 54.076 11.3464 54.3548L11.4996 54.7684L11.6708 55.1731C11.7879 55.4428 11.9051 55.7126 12.0133 55.9823C12.1304 56.2521 12.2746 56.5039 12.4008 56.7647C12.536 57.0254 12.6621 57.2862 12.8244 57.529C13.0677 58.0595 13.329 58.5811 13.6535 59.0666C13.8157 59.3094 13.9599 59.5612 14.1311 59.795L14.6538 60.4874L14.9152 60.8291L15.1946 61.1618C15.3748 61.3866 15.5641 61.6024 15.7443 61.8272C15.9336 62.043 16.1228 62.2588 16.3121 62.4746C16.5013 62.6904 16.6816 62.9152 16.8709 63.1221C17.2674 63.5357 17.6549 63.9583 18.0695 64.345C18.2767 64.5428 18.475 64.7496 18.6823 64.9385C18.8896 65.1273 19.1059 65.3161 19.3132 65.505L19.6286 65.7927C19.7367 65.8826 19.8449 65.9725 19.962 66.0625C20.1873 66.2333 20.4036 66.4132 20.6289 66.584C20.8542 66.7549 21.0886 66.9077 21.3229 67.0696C21.5572 67.2224 21.7915 67.3843 22.0348 67.5282C23.9274 68.7331 25.9281 69.7042 27.9379 70.5585C28.2082 70.6214 28.4786 70.6664 28.7399 70.7383C29.0013 70.8013 29.2626 70.8822 29.524 70.9631C29.7853 71.0351 30.0467 71.107 30.3081 71.1879C30.5694 71.2689 30.8218 71.3588 31.0831 71.4307C31.3445 71.5027 31.6058 71.5836 31.8581 71.6555C31.9843 71.6915 32.1195 71.7365 32.2457 71.7634L32.6422 71.8534C32.9036 71.9163 33.1649 71.9703 33.4263 72.0242L33.6246 72.0602L33.8228 72.0871C33.958 72.1051 34.0932 72.1141 34.2194 72.1321C34.4807 72.1861 34.7421 72.231 35.0124 72.276C35.2738 72.312 35.5441 72.3299 35.8055 72.3569C36.0669 72.3749 36.3372 72.4019 36.5986 72.4198C36.8599 72.4198 37.1303 72.4288 37.3917 72.4288C37.653 72.4288 37.9144 72.4378 38.1847 72.4288C38.4461 72.4199 38.7074 72.4019 38.9688 72.3929C39.4915 72.3839 40.0142 72.3299 40.5279 72.303C41.5643 72.1861 42.5827 72.0782 43.6011 71.9163C43.8534 71.8803 44.1058 71.8264 44.3491 71.7724C44.6014 71.7185 44.8447 71.6645 45.0971 71.6106C45.5928 71.4847 46.0704 71.3228 46.5481 71.161C48.4857 70.5945 50.2521 69.6773 52.0095 68.859C52.2077 68.7151 52.415 68.5892 52.6223 68.4633C52.8296 68.3375 53.0369 68.2116 53.2351 68.0857C53.4424 67.9598 53.6407 67.8339 53.848 67.708L54.1544 67.5282L54.4608 67.3303C55.2719 66.8178 56.056 66.2783 56.7319 65.6308C58.1648 64.4169 59.4355 63.0861 60.5891 61.7103C61.256 61.0898 61.7967 60.3705 62.2654 59.6241C62.4907 59.2465 62.716 58.8688 62.9233 58.4821C63.1215 58.0955 63.3288 57.7178 63.5361 57.3401C63.7344 56.9625 63.9236 56.5758 64.1129 56.1982C64.2841 55.8115 64.4373 55.4158 64.6086 55.0382C64.915 54.2559 65.2214 53.5005 65.5548 52.7452C66.0866 51.2076 66.5822 49.6789 66.7174 48.1323C66.7715 47.7456 66.8256 47.3679 66.9067 46.9993C66.9878 46.6216 67.0509 46.2529 67.114 45.8753C67.2491 45.1289 67.2672 44.3826 67.1049 43.6542C67.0869 43.2945 67.0779 42.9349 67.0869 42.5752C67.0959 42.3953 67.0959 42.2155 67.1049 42.0356L67.114 41.7749C67.114 41.6849 67.1139 41.595 67.1049 41.5051C67.0959 41.1544 67.0779 40.8037 67.0418 40.462C67.0238 40.2912 67.0058 40.1203 66.9698 39.9495C66.9337 39.7786 66.8796 39.6168 66.8256 39.4549C66.7174 39.1312 66.6453 38.7985 66.5822 38.4748L66.5462 38.232C66.5282 38.1511 66.5101 38.0701 66.5011 37.9892C66.4651 37.8274 66.438 37.6655 66.411 37.5036C66.3659 37.1799 66.3119 36.8652 66.2668 36.5415C66.2127 36.2268 66.1316 35.921 66.0505 35.6153C65.9694 35.3096 65.8883 35.0128 65.8072 34.7161C65.708 34.4283 65.6089 34.1406 65.5098 33.8528C65.4106 33.5651 65.3205 33.2863 65.2214 33.0076C65.1132 32.7378 64.9961 32.4681 64.8879 32.1983C63.9056 29.8064 62.707 27.8012 61.5354 26.1646C60.3548 24.5281 59.2012 23.2332 58.2009 22.2711C57.9485 22.0283 57.7232 21.7855 57.4979 21.5787C57.2636 21.3719 57.0473 21.183 56.849 21.0032C56.6508 20.8233 56.4705 20.6615 56.2993 20.5086C56.1281 20.3647 55.9658 20.2389 55.8306 20.122C55.2719 19.6634 54.9925 19.4026 55.0105 19.3756C55.0376 19.3397 55.4251 19.5914 56.1731 20.095C56.9121 20.6075 57.9575 21.4438 59.2192 22.6307C60.4629 23.8447 61.8959 25.4543 63.2747 27.5584C63.3649 27.6933 63.455 27.8192 63.5361 27.9541C63.6262 28.0889 63.6983 28.2328 63.7884 28.3677C63.9507 28.6464 64.1219 28.9342 64.2931 29.2309C64.4734 29.5187 64.6266 29.8244 64.7798 30.1391C64.933 30.4539 65.0952 30.7686 65.2664 31.0833C65.4196 31.407 65.5548 31.7487 65.7081 32.0904C65.8522 32.4321 66.0145 32.7738 66.1406 33.1335C66.2758 33.4932 66.402 33.8528 66.5372 34.2305C66.5732 34.3204 66.6093 34.4104 66.6363 34.5093C66.6633 34.5992 66.6904 34.6981 66.7174 34.797C66.7715 34.9859 66.8346 35.1837 66.8886 35.3725C66.9788 35.6782 67.0869 35.993 67.186 36.3077C67.2762 36.6224 67.3573 36.9461 67.4474 37.2788C67.4925 37.4407 67.5285 37.6025 67.5736 37.7734C67.5916 37.8543 67.6096 37.9352 67.6276 38.0252L67.6637 38.2769C67.7087 38.6186 67.7448 38.9604 67.7628 39.311C67.7899 39.4819 67.8169 39.6527 67.8529 39.8326C67.871 40.0124 67.898 40.1833 67.916 40.3631C67.9611 40.7138 68.0061 41.0735 68.0512 41.4332C68.0602 41.5231 68.0783 41.613 68.0873 41.7029L68.1053 41.9727C68.1143 42.1525 68.1233 42.3414 68.1233 42.5212C68.1323 42.8899 68.1413 43.2676 68.1143 43.6362C68.3486 45.1469 68.0332 46.7025 67.7808 48.2761C67.5465 49.8677 67.0779 51.4413 66.6363 53.0869C66.4471 53.9142 66.1046 54.7145 65.7531 55.5058C65.5638 55.9014 65.3746 56.2971 65.1853 56.6927C64.978 57.0794 64.7798 57.484 64.5995 57.8887C63.6082 59.3903 62.6439 60.919 61.5804 62.4656C60.2917 63.8234 59.0931 65.3251 57.588 66.593C55.9478 67.681 54.4247 68.9399 52.6764 70.019C50.928 71.08 48.9633 71.7994 46.9716 72.4738C44.9439 73.0493 42.8441 73.5618 40.6631 73.7147C38.5002 74.0025 36.2471 74.0025 34.0391 73.5798C31.8041 73.355 29.5781 72.7705 27.4242 71.9523C25.2252 71.2239 23.1794 70.0639 21.1967 68.7781C20.9444 68.6252 20.71 68.4454 20.4667 68.2745C20.2324 68.0947 19.9891 67.9328 19.7547 67.744C19.5294 67.5551 19.3042 67.3663 19.0698 67.1685C18.9527 67.0696 18.8445 66.9797 18.7274 66.8807L18.4029 66.575L17.745 65.9725C17.5287 65.7657 17.3125 65.5589 17.0962 65.3611C16.6455 64.9654 16.222 64.5428 15.7623 64.1471C15.546 63.9403 15.3568 63.7065 15.1495 63.4817C14.9512 63.2569 14.753 63.0321 14.5547 62.7983C14.3655 62.5555 14.1852 62.3218 13.996 62.079L13.7166 61.7193L13.4552 61.3506C13.284 61.0988 13.1037 60.856 12.9325 60.6043C12.7613 60.3525 12.5991 60.0917 12.4368 59.84C12.0944 59.3364 11.797 58.7969 11.4815 58.2753C11.3283 58.0146 11.2022 57.7268 11.058 57.457C10.9228 57.1783 10.7786 56.9085 10.6524 56.6298C10.5262 56.351 10.4001 56.0633 10.2739 55.7845L10.0847 55.3619L9.91342 54.9303C9.79626 54.6425 9.68811 54.3548 9.57095 54.067C9.46281 53.7793 9.36368 53.4825 9.26454 53.1858C9.04825 52.6013 8.877 51.9989 8.68775 51.4054C8.62466 51.0996 8.58863 50.7849 8.53455 50.4792L8.37231 49.553C8.32725 49.2473 8.2732 48.9326 8.21912 48.6268L8.13802 48.1682L8.07492 47.7006C8.02986 47.3859 7.98481 47.0802 7.93975 46.7655C7.89468 46.4507 7.86765 46.145 7.8316 45.8303L7.77753 45.3627L7.75047 45.1289L7.73245 44.8951C7.71443 44.5804 7.68739 44.2657 7.66936 43.951C7.64233 43.6362 7.65135 43.3215 7.65135 42.9978C7.66036 42.6831 7.65134 42.3684 7.66936 42.0536C7.68739 41.7389 7.70541 41.4242 7.72343 41.1095L7.74148 40.8757L7.76851 40.6419L7.82258 40.1743C7.88567 39.5448 8.00282 38.9244 8.10196 38.3039C8.23714 37.6925 8.35429 37.072 8.51651 36.4695C9.07527 34.0327 10.0035 31.7038 11.1661 29.5367C11.7068 28.4306 12.3737 27.4055 13.0857 26.4164C13.7977 25.4273 14.5547 24.4921 15.3117 23.5569C15.9786 22.7207 16.7447 21.9563 17.5377 21.255C17.9343 20.8953 18.3398 20.5626 18.7544 20.2209C18.9617 20.059 19.169 19.8882 19.3762 19.7263L19.6917 19.4835L19.7908 19.4026L19.8178 19.3846C19.8449 19.3576 19.8899 19.3307 19.8539 19.2947C19.8359 19.2767 19.8178 19.2587 19.8088 19.2497L19.7818 19.2317L19.7728 19.2228H19.7638L19.7458 19.2048C19.5385 19.0159 19.3041 18.8091 19.0879 18.5843C18.8716 18.3595 18.6553 18.1167 18.457 17.847C18.3579 17.7121 18.2677 17.5772 18.1776 17.4243L17.9613 17.0557C17.4026 16.1115 16.7987 15.1673 16.231 14.1962C15.6091 13.261 15.0323 12.2989 14.4556 11.3457C13.8788 10.3835 13.302 9.43938 12.6802 8.49521C12.4098 8.00964 12.1304 7.51508 11.8781 6.99354C11.6257 6.48099 11.3914 5.95045 11.2202 5.37496C11.0489 4.79947 10.9318 4.18801 10.9859 3.5226C11.0129 3.18989 11.076 2.8482 11.2112 2.51549C11.3464 2.19177 11.5446 1.87705 11.788 1.62527C11.9862 1.33752 12.2476 1.10373 12.527 0.914901C12.6621 0.815988 12.8063 0.744052 12.9505 0.663124C13.0947 0.600179 13.2389 0.528237 13.3831 0.474284C13.9599 0.258475 14.5457 0.168559 15.1044 0.114607C15.6632 0.0606545 16.222 0.0696438 16.7447 0.0696438C17.2674 0.0696438 17.7811 0.060649 18.2948 0.0246807C20.3586 0.276459 22.3863 0.0336766 24.378 0.0426687C26.3697 0.087629 28.3254 0.177549 30.245 0.0696438C32.1646 -0.0472531 34.0391 0.132587 35.8776 0.0966189C37.7161 -0.0472542 39.5095 0.285451 41.2669 0.123594C43.0243 0.159562 44.7366 0.105609 46.4039 0.150569C48.0711 -0.19113 49.6933 0.150563 51.2705 0.186531C52.8476 0.231492 54.3707 -0.0382627 55.8577 0.222507C56.5967 0.0966184 57.3267 0.0876307 58.0386 0.114607C58.3991 0.132591 58.7506 0.159555 59.1021 0.186531C59.2823 0.204516 59.4536 0.213515 59.6338 0.222507C59.814 0.240492 59.9943 0.249486 60.1745 0.26747C60.8865 0.339407 61.5985 0.39336 62.3014 0.591186C62.6529 0.690098 62.9954 0.833963 63.3198 1.03179C63.6352 1.23861 63.9236 1.50838 64.1219 1.84108C64.3832 2.11984 64.5545 2.47952 64.6446 2.8392C64.7347 3.19889 64.7347 3.55857 64.7077 3.89127C64.6356 4.56568 64.4283 5.15915 64.2751 5.74364C64.0227 6.30115 63.7975 6.83168 63.5631 7.34423C63.3288 7.85677 63.0945 8.35134 62.8151 8.80994C62.3285 9.7631 61.7877 10.6084 61.22 11.3547C60.6973 12.137 60.2016 12.8564 59.7419 13.5308C59.048 14.5379 58.4352 15.4281 57.9305 16.2104C57.6692 16.6061 57.4619 16.9657 57.2456 17.3074C57.0293 17.6491 56.813 17.9459 56.5967 18.1887C56.1731 18.6922 55.7766 18.998 55.4972 19.1778C55.1728 19.3576 55.0105 19.4206 55.0015 19.4026Z" fill="#202020"/>
<path d="M38.0136 26.7761C38.0136 26.893 36.833 26.884 34.7782 27.3606C34.607 27.3966 34.4358 27.4505 34.2465 27.4955C34.0663 27.5494 33.877 27.5944 33.6878 27.6573C33.4985 27.7203 33.3002 27.7922 33.1019 27.8642C32.9037 27.9361 32.6964 28.017 32.4801 28.08C32.2458 28.089 32.0475 28.2418 31.8493 28.3677C31.642 28.4936 31.4437 28.6375 31.1733 28.6555C31.0562 28.6914 30.93 28.7364 30.8218 28.7903C30.7047 28.8443 30.5965 28.9072 30.4794 28.9702C30.3622 29.0331 30.2541 29.0961 30.1369 29.177C30.0288 29.2489 29.9116 29.3299 29.8035 29.4018C29.6953 29.4827 29.5692 29.5457 29.452 29.6176C29.3348 29.6896 29.2087 29.7615 29.0915 29.8334C28.8392 29.9683 28.6048 30.1391 28.4066 30.355C28.3615 30.4179 28.3165 30.4808 28.2624 30.5258C28.2083 30.5798 28.1542 30.6247 28.0911 30.6697C27.965 30.7506 27.8298 30.8226 27.6946 30.8945C27.4242 31.0384 27.1539 31.2092 27.0187 31.5239C26.6041 32.0005 26.1355 32.4411 25.6939 32.9357C25.1081 33.3134 24.8378 33.9878 24.4773 34.5902C23.9005 35.0578 23.6121 35.7502 23.4228 36.4786C22.828 37.0091 22.5576 37.7644 22.6027 38.5917C22.5396 38.7715 22.4856 38.9604 22.4225 39.1492C22.3594 39.338 22.2963 39.5179 22.2512 39.7157C22.1972 39.9045 22.1521 40.1024 22.116 40.3002C22.089 40.498 22.071 40.6959 22.071 40.9027C21.9628 41.703 21.9268 42.5212 21.8727 43.3485C22.071 44.1848 22.098 45.003 22.053 45.8843C22.3954 46.7025 22.4946 47.5568 22.6568 48.438C22.7018 48.6538 22.7649 48.8696 22.846 49.0765C22.9362 49.2833 23.0443 49.4811 23.1434 49.6879C23.2426 49.8947 23.3597 50.0836 23.4589 50.2904C23.549 50.4972 23.6481 50.704 23.7112 50.9288C24.1168 51.7471 24.6665 52.5024 25.1982 53.2668C25.6849 54.0671 26.2707 54.8584 27.1178 55.3619C27.8659 55.9734 28.6679 56.5039 29.434 57.1244C30.3893 57.4481 31.1914 57.9786 32.0746 58.4642C33.0118 58.7969 33.9401 59.2465 34.9765 59.3094C35.9768 59.5432 37.0042 59.4983 38.0316 59.6062C39.059 59.6781 40.1135 59.6421 41.0868 59.3094C41.5734 59.1386 42.0601 59.0397 42.5558 58.9228C42.7991 58.8688 43.0424 58.7969 43.2858 58.7339C43.5291 58.671 43.7634 58.5721 43.9887 58.4732C44.1149 58.4552 44.2411 58.4282 44.3582 58.3922C44.4754 58.3563 44.5925 58.3113 44.7097 58.2574C44.8268 58.2034 44.935 58.1585 45.0521 58.0955C45.1603 58.0326 45.2684 57.9696 45.3766 57.9067L45.692 57.7088L45.9984 57.502C46.0975 57.4391 46.2057 57.3672 46.3138 57.3132C46.422 57.2503 46.5211 57.1873 46.6293 57.1333C47.4404 56.5938 48.3146 56.1083 48.9454 55.3709C49.6213 54.6875 50.2252 53.9592 50.865 53.2758C51.0092 52.7992 51.2886 52.4395 51.577 52.0708C51.7302 51.891 51.8744 51.7111 52.0096 51.5223C52.0817 51.4324 52.1448 51.3335 52.2078 51.2346C52.2619 51.1356 52.316 51.0277 52.361 50.9288C52.9108 50.1735 53.1091 49.2653 53.4065 48.438C53.5056 48.0064 53.6678 47.5928 53.785 47.1701C53.812 47.0622 53.8481 46.9633 53.8751 46.8554C53.9021 46.7475 53.9202 46.6396 53.9472 46.5317C53.9832 46.3159 54.0193 46.1001 54.0103 45.8843C54.0463 45.6685 54.0644 45.4616 54.0914 45.2458C54.1004 45.03 54.1094 44.8232 54.1184 44.6074C54.1365 44.3916 54.1274 44.1848 54.1364 43.978C54.1455 43.7711 54.1725 43.5553 54.1905 43.3485C54.1455 43.1417 54.1274 42.9349 54.1184 42.7281C54.1094 42.5212 54.1094 42.3144 54.1184 42.1076C54.1274 41.9008 54.1184 41.694 54.1004 41.4961C54.0824 41.2893 54.0644 41.0915 53.9923 40.9027C53.8661 40.1114 53.6498 39.347 53.4605 38.6007C53.4605 38.3939 53.4335 38.205 53.3884 38.0162C53.3344 37.8274 53.2623 37.6565 53.1812 37.4857C53.1361 37.4047 53.1001 37.3148 53.055 37.2339L52.9108 36.9911C52.8117 36.8293 52.7306 36.6674 52.6404 36.5055C52.4872 36.1728 52.2889 35.8581 52.0907 35.5614C51.9014 35.2556 51.7032 34.9589 51.595 34.6172C51.2165 34.0237 50.9011 33.3943 50.3784 32.9627C50.2612 32.8458 50.1711 32.7019 50.0809 32.567C49.9908 32.4231 49.9007 32.2883 49.8106 32.1444C49.7205 32.0005 49.6123 31.8746 49.4952 31.7757C49.369 31.6768 49.2248 31.5869 49.0536 31.5509C48.7922 31.3711 48.612 31.1103 48.4047 30.8855C48.2965 30.7776 48.1884 30.6697 48.0712 30.5798C48.0082 30.5348 47.9451 30.4898 47.882 30.4629C47.8099 30.4269 47.7378 30.4089 47.6657 30.3909C47.3593 30.31 47.143 30.1391 46.9177 29.9593C46.8095 29.8694 46.7014 29.7705 46.6022 29.6806C46.4941 29.5906 46.386 29.5097 46.2688 29.4378C46.1516 29.3658 46.0345 29.2939 45.9263 29.2309C45.8092 29.168 45.692 29.1051 45.5839 29.0421C45.4667 28.9792 45.3585 28.9162 45.2414 28.8623C45.1332 28.7993 45.0161 28.7544 44.8989 28.7004C43.8896 28.2059 42.9433 27.8642 42.1052 27.6214C41.8889 27.5674 41.6906 27.5135 41.4923 27.4595C41.294 27.4056 41.1048 27.3696 40.9246 27.3246C40.5641 27.2347 40.2216 27.1897 39.9242 27.1358C39.3204 27.0459 38.8607 26.9739 38.5363 26.938C38.1758 26.848 38.0136 26.8121 38.0136 26.7761C38.0136 26.7401 38.2209 26.7042 38.6084 26.6772C38.7075 26.6682 38.8157 26.6592 38.9419 26.6592C39.068 26.6592 39.2032 26.6592 39.3474 26.6592C39.4916 26.6592 39.6538 26.6592 39.816 26.6682C39.9873 26.6772 40.1675 26.6952 40.3568 26.7132C41.1138 26.7851 42.0601 26.92 43.1325 27.2167C44.205 27.5135 45.4036 27.9721 46.6563 28.6645C46.7825 28.7364 46.9177 28.7903 47.0438 28.8533C47.17 28.9162 47.3142 28.9792 47.4404 29.0511C47.7107 29.186 47.9631 29.3658 48.1704 29.6086C48.2965 29.6985 48.4317 29.7795 48.5579 29.8694C48.6931 29.9593 48.8192 30.0492 48.9544 30.1392C49.2158 30.328 49.4681 30.5348 49.6844 30.7956C50.3423 31.0743 50.7028 31.7038 51.1444 32.2523C51.6221 32.7738 52.0006 33.4123 52.4962 33.9788C52.7576 34.2575 52.9558 34.5902 53.1271 34.9409C53.3073 35.2826 53.4515 35.6513 53.6768 35.975C53.7309 36.1728 53.785 36.3617 53.8571 36.5505C53.8931 36.6404 53.9292 36.7393 53.9652 36.8292C54.0013 36.9192 54.0373 37.0181 54.0734 37.108C54.1545 37.2968 54.2446 37.4767 54.3347 37.6655C54.4248 37.8544 54.515 38.0342 54.6141 38.223C54.6501 38.4298 54.6862 38.6367 54.7403 38.8435C54.7943 39.0503 54.8665 39.2481 54.9205 39.4459C54.9836 39.6528 55.0467 39.8596 55.1098 40.0574C55.1639 40.2642 55.2089 40.48 55.245 40.6958C55.2269 40.9206 55.2269 41.1365 55.2359 41.3523C55.2449 41.5681 55.281 41.7839 55.308 42.0087C55.3351 42.2245 55.3711 42.4493 55.4162 42.6651C55.4432 42.8899 55.4793 43.1147 55.5063 43.3395C55.5964 44.2477 55.4432 45.1649 55.3531 46.0911C55.1729 47.0083 55.0647 47.9614 54.7403 48.8786C54.551 49.8318 54.1995 50.776 53.6318 51.6032C53.2442 52.5294 52.6494 53.3567 52.0276 54.175C51.4778 55.0472 50.7028 55.7576 49.9458 56.4859C49.5763 56.8546 49.1347 57.1603 48.6931 57.4481C48.4768 57.6009 48.2515 57.7358 48.0352 57.9067C47.8279 58.0685 47.6206 58.2394 47.4224 58.4372C46.5301 59.0397 45.5298 59.4713 44.5294 59.9209C43.5021 60.2986 42.4296 60.5773 41.3571 60.8561C40.2216 60.8201 39.1401 61.0809 38.0046 61.1798C36.869 61.2517 35.7425 61.1078 34.652 60.8561C33.5525 60.6672 32.4891 60.3435 31.4707 59.9209C30.4163 59.5792 29.5331 58.9228 28.5778 58.4372C28.3345 58.3113 28.1092 58.1764 27.8929 58.0146C27.6766 57.8527 27.4603 57.6909 27.271 57.511C26.8655 57.1693 26.487 56.8006 26.0634 56.4859C25.2433 55.8295 24.5043 55.0742 23.9816 54.175C23.6752 53.7613 23.4318 53.3117 23.1885 52.8711C23.0623 52.6553 22.9452 52.4305 22.819 52.2147C22.7559 52.1068 22.6838 52.0079 22.6117 51.9C22.5396 51.7921 22.4675 51.6932 22.3864 51.5942C22.2603 51.3784 22.1251 51.1716 21.9989 50.9558C21.8727 50.74 21.7375 50.5332 21.6294 50.2994C21.5213 50.0746 21.4221 49.8498 21.359 49.607C21.2959 49.3642 21.2689 49.1214 21.2689 48.8606C21.0886 48.411 20.9895 47.9345 20.9265 47.4579C20.9084 47.341 20.8904 47.2241 20.8724 47.1072C20.8544 46.9903 20.8363 46.8734 20.8183 46.7565C20.7822 46.5227 20.7192 46.2979 20.6561 46.0731C20.6921 45.8303 20.6921 45.5965 20.6741 45.3717C20.6651 45.1379 20.6471 44.9131 20.611 44.6883C20.575 44.4635 20.5569 44.2297 20.5299 44.0049C20.5119 43.7801 20.4848 43.5553 20.4939 43.3215C20.5479 42.4133 20.7282 41.5501 20.7552 40.6779C20.7642 40.4621 20.7913 40.2462 20.8273 40.0304C20.8724 39.8236 20.9355 39.6168 20.9985 39.41C21.0526 39.2032 21.1337 39.0053 21.1968 38.8075C21.2689 38.6097 21.323 38.4029 21.3861 38.205C21.4221 37.9982 21.4762 37.8004 21.5573 37.6026C21.6384 37.4137 21.7376 37.2339 21.8277 37.054C21.8727 36.9641 21.9268 36.8742 21.9719 36.7843C22.0259 36.6944 22.071 36.6045 22.116 36.5145C22.2062 36.3347 22.2693 36.1459 22.3233 35.957C22.5216 35.6153 22.6838 35.2556 22.8821 34.9229C23.0623 34.5812 23.2786 34.2665 23.5039 33.9608C23.531 33.754 23.6121 33.5831 23.7022 33.4213C23.8013 33.2594 23.9095 33.1155 24.0447 32.9806C24.315 32.7199 24.6034 32.4951 24.8467 32.2343C25.3334 31.7308 25.6398 31.0473 26.3067 30.7776C26.469 30.4629 26.7123 30.2381 26.9827 30.0582C27.1178 29.9683 27.262 29.8964 27.4062 29.8154C27.4783 29.7795 27.5504 29.7435 27.6135 29.6985C27.6856 29.6626 27.7577 29.6266 27.8208 29.5906C28.0912 29.4378 28.3255 29.2399 28.5688 29.0691C28.686 28.9792 28.8121 28.8982 28.9383 28.8173C29.0645 28.7454 29.1997 28.6914 29.3439 28.6465C29.443 28.5386 29.5602 28.4486 29.6863 28.3857C29.8125 28.3138 29.9387 28.2688 30.0738 28.2238C30.209 28.1789 30.3352 28.1429 30.4614 28.089C30.5875 28.044 30.7137 27.999 30.8218 27.9271C31.3446 27.8192 31.7591 27.5314 32.2188 27.4056C32.435 27.3156 32.6513 27.2347 32.8676 27.1628C33.0839 27.1088 33.3002 27.0729 33.5075 27.0459C33.7058 26.9919 33.913 26.956 34.1023 26.92C34.2916 26.884 34.4808 26.8391 34.6611 26.8211C36.833 26.5064 38.0226 26.7042 38.0136 26.7761Z" fill="#202020"/>
<path d="M76 73.103C76 73.2019 75.1619 73.2918 73.6208 73.3727C73.3684 73.3817 73.0891 73.3997 72.7916 73.4177C72.4942 73.4447 72.1878 73.4717 71.8544 73.4537C71.5209 73.3278 71.1785 73.6875 70.809 73.4896C70.4395 73.4357 70.0609 73.4896 69.6554 73.5256C69.2589 73.5706 68.8353 73.4447 68.4027 73.5616C67.9701 73.8044 67.5195 73.2918 67.0509 73.5976C66.5822 73.6605 66.1046 73.6425 65.6089 73.6335C65.1132 73.4447 64.6086 73.6335 64.0858 73.6605C63.5631 73.4357 63.0224 73.5346 62.4727 73.6875C61.9229 73.3817 61.3552 73.4267 60.7784 73.7144C60.2016 73.7234 59.6158 73.6065 59.012 73.7414C58.4081 73.7594 57.7953 73.8223 57.1735 73.7684C56.5517 73.9752 55.9118 73.9662 55.2629 73.7864C54.614 74.0112 53.9561 73.9213 53.2892 73.8044C52.6223 73.6785 51.9464 74.0022 51.2525 73.8224C50.5675 73.8134 49.8646 73.8763 49.1616 73.8403C48.4587 73.7504 47.7377 73.6515 47.0167 73.8493C46.2957 73.9033 45.5658 73.9752 44.8267 73.8583C44.0877 74.0921 43.3397 73.9932 42.5917 73.8673C41.8437 73.9033 41.0777 73.7414 40.3116 73.8673C39.5456 73.8313 38.7796 73.9752 37.9955 73.8673C37.2205 73.7954 36.4454 73.7234 35.6794 73.8673C34.9133 74.0202 34.1563 73.8044 33.3993 73.8673C32.6513 73.6425 31.9032 73.9392 31.1642 73.8583C30.4252 73.8763 29.6952 73.7324 28.9743 73.8493C28.2533 73.8943 27.5323 73.9302 26.8294 73.8403C26.1264 74.182 25.4234 73.7504 24.7385 73.8224C24.0536 73.6785 23.3687 73.8403 22.7018 73.8044C22.0349 73.8673 21.377 73.6425 20.7281 73.7864C20.0792 73.7594 19.4394 73.8943 18.8175 73.7684C18.1957 73.9392 17.5828 73.6245 16.979 73.7414C16.3752 73.7414 15.7894 73.7504 15.2126 73.7144C14.6358 73.4447 14.0681 73.6695 13.5183 73.6875C12.9686 73.6605 12.4278 73.8403 11.9051 73.6605C11.3824 73.6425 10.8687 73.5256 10.373 73.6335C9.87737 73.6695 9.39972 73.2469 8.9401 73.5976C8.47147 73.6605 8.02987 73.3278 7.58827 73.5616C7.15568 73.7774 6.74114 73.5346 6.33559 73.5256C5.93905 73.5166 5.55152 73.4986 5.18202 73.4896C1.88355 73.3727 0 73.2379 0 73.094C0 72.9321 2.33416 72.7883 6.33559 72.6624C6.73212 72.6534 7.15568 72.4645 7.58827 72.6264C8.02086 72.6264 8.47147 72.4825 8.9401 72.5904C9.39972 72.3476 9.88638 72.5455 10.373 72.5545C10.8687 72.5455 11.3824 72.6264 11.9051 72.5275C12.4278 72.3836 12.9686 72.5994 13.5183 72.5005C14.0681 72.6534 14.6358 72.6084 15.2126 72.4735C15.7894 72.6174 16.3752 72.4376 16.979 72.4466C17.5828 72.6714 18.1957 72.5185 18.8175 72.4196C19.4394 72.3386 20.0792 72.4556 20.7281 72.4016C21.377 72.4466 22.0349 72.3387 22.7018 72.3836C23.3687 72.2757 24.0446 72.2397 24.7385 72.3656C25.4234 72.2937 26.1264 72.3476 26.8294 72.3476C27.5323 72.2577 28.2533 72.3566 28.9743 72.3387C29.6952 72.2937 30.4252 72.5814 31.1642 72.3297C31.9032 72.2937 32.6513 72.3656 33.3993 72.3207C34.1563 72.3566 34.9133 72.3836 35.6794 72.3117C36.4454 72.5635 37.2205 72.4106 37.9955 72.3117C38.7706 72.2397 39.5456 72.2757 40.3116 72.3117C41.0777 72.2847 41.8347 72.3027 42.5917 72.3207C43.3397 72.2487 44.0877 72.4286 44.8267 72.3297C45.5658 72.2218 46.2957 72.4466 47.0167 72.3387C47.7377 72.2667 48.4587 72.2307 49.1616 72.3476C49.8646 72.3476 50.5675 72.5724 51.2525 72.3656C51.9374 72.3207 52.6223 72.0329 53.2892 72.3836C53.9561 72.2937 54.614 72.5545 55.2629 72.4016C55.9118 72.6534 56.5426 72.4106 57.1735 72.4196C57.7953 72.4645 58.4172 72.5545 59.012 72.4466C59.6158 72.3297 60.2016 72.5095 60.7784 72.4735C61.3552 72.3297 61.9229 72.6624 62.4727 72.5005C63.0224 72.5365 63.5631 72.4825 64.0858 72.5275C64.6086 72.1858 65.1223 72.5275 65.6089 72.5545C66.1046 72.6084 66.5822 72.3297 67.0509 72.5904C67.5195 72.3297 67.9611 72.5545 68.4027 72.6264C68.8353 72.6983 69.2498 72.5185 69.6554 72.6624C70.0609 72.4825 70.4395 72.7613 70.809 72.6983C71.1785 72.8152 71.5209 72.7073 71.8544 72.7343C72.1878 72.6893 72.4942 72.7073 72.7916 72.7703C73.0891 72.7883 73.3594 72.7972 73.6208 72.8152C75.1619 72.9141 76 73.0041 76 73.103Z" fill="#202020"/>
<path d="M25.3783 5.81552C25.3783 5.86947 25.171 5.90543 24.7925 5.97737C24.6033 6.01333 24.369 6.06729 24.1076 6.14822C23.8463 6.22915 23.5579 6.35504 23.3236 6.57085C23.1704 6.71472 23.0532 6.89456 22.9991 7.11936C22.954 7.34416 22.9721 7.60494 22.9991 7.89268C22.954 8.04555 23.0442 8.18942 23.1343 8.3243C23.2244 8.45918 23.3145 8.60306 23.2785 8.79189C23.3416 9.13359 23.5398 9.43932 23.7471 9.76303C23.9544 10.0778 24.0445 10.4914 24.36 10.7881C24.7835 11.0129 24.5762 11.6514 25.0809 11.8672C25.3783 12.2089 25.6217 12.6045 25.883 13.0182C25.9912 13.5217 26.4238 13.8364 26.7302 14.2591C26.7752 14.5378 26.8834 14.7806 27.0366 15.0054C27.1087 15.1223 27.1898 15.2212 27.2799 15.3111C27.37 15.4011 27.4692 15.482 27.5683 15.5539C27.5773 15.8327 27.6945 16.0665 27.8837 16.2193C27.9108 16.2373 27.9288 16.2553 27.9558 16.2733C27.9829 16.2913 28.0099 16.3093 28.0279 16.3093C28.073 16.3272 28.109 16.3272 28.1451 16.3362C28.1631 16.3362 28.1811 16.3362 28.1991 16.3273C28.2172 16.3183 28.2352 16.3003 28.2532 16.2913C28.2712 16.2733 28.2893 16.2643 28.2983 16.2463L28.3163 16.2193L28.3704 16.1924C28.9381 16.1834 29.5149 16.3003 30.1007 16.1654C30.6865 16.1474 31.2903 16.0845 31.9032 16.1384C32.516 15.9316 33.1379 15.9406 33.7687 16.1204C34.3996 15.8956 35.0484 15.9856 35.6973 16.1024C36.3552 16.2283 37.0131 15.9046 37.689 16.0845C38.3649 16.1024 39.0409 16.0305 39.7348 16.0665C40.4287 16.1564 41.1227 16.2553 41.8346 16.0575C42.5376 16.0035 43.2586 15.9316 43.9795 16.0485C44.7005 15.8147 45.4305 15.9136 46.1695 16.0395C46.539 16.0215 46.9085 16.0485 47.278 16.0755L47.5574 16.0845H47.6926H47.7286H47.7466C47.7647 16.0845 47.7827 16.0755 47.7917 16.0575C47.7917 16.0485 47.8007 16.0395 47.8007 16.0305L47.8097 16.0125C47.8097 16.0035 47.8278 15.9856 47.8368 15.9766C48.0621 15.8147 48.2423 15.5719 48.4045 15.3022L48.6569 14.8526C48.756 14.6817 48.8732 14.5108 48.9903 14.358C49.468 13.7285 49.9456 13.1441 50.243 12.4517C50.5314 11.7503 51.1082 11.2557 51.4236 10.6083C51.9824 10.1047 52.0545 9.3494 52.3609 8.7829C52.469 8.47717 52.5862 8.18942 52.6583 7.91067C52.7214 7.64091 52.7124 7.37115 52.5952 7.23626C52.5141 7.09239 52.415 7.00246 52.2257 6.90355C52.0365 6.80464 51.7841 6.71472 51.5047 6.6248C51.1893 6.75069 50.91 6.71472 50.5855 6.66077C50.243 6.60682 49.9096 6.51689 49.5671 6.55286C48.8912 6.40898 48.2333 6.57085 47.5754 6.53488C46.9175 6.59783 46.2777 6.38201 45.6468 6.5169C45.016 6.48992 44.3941 6.6248 43.7813 6.49891C43.1684 6.66976 42.5736 6.35504 41.9788 6.47193C41.393 6.47193 40.8163 6.48093 40.2485 6.44496C39.6807 6.1752 39.131 6.4 38.5902 6.41798C38.0495 6.39101 37.5268 6.57085 37.0131 6.39101C36.4994 6.37302 36.0037 6.25613 35.5171 6.36403C35.0304 6.4 34.5618 5.97737 34.1112 6.32806C33.6605 6.391 33.219 6.0583 32.7954 6.29209C32.3718 6.5079 31.9663 6.26511 31.5697 6.25612C31.1822 6.24713 30.8037 6.22915 30.4432 6.22016C27.2349 6.09427 25.3783 5.95939 25.3783 5.81552C25.3783 5.65366 27.6584 5.50979 31.5787 5.3839C31.9663 5.37491 32.3808 5.18607 32.8044 5.34792C33.228 5.34792 33.6696 5.20406 34.1202 5.31196C34.5708 5.06918 35.0484 5.26699 35.5261 5.27599C36.0127 5.26699 36.5084 5.34792 37.0221 5.24901C37.5358 5.10514 38.0585 5.32095 38.5993 5.22204C39.14 5.3749 39.6897 5.32994 40.2575 5.19506C40.8253 5.34793 41.4021 5.16808 41.9879 5.16808C42.5736 5.39289 43.1775 5.24002 43.7903 5.14111C44.4031 5.06018 45.025 5.17707 45.6558 5.12312C46.2867 5.16808 46.9356 5.06917 47.5844 5.10513C48.2423 4.99723 48.9002 4.96127 49.5761 5.08716C49.9096 5.05119 50.252 5.05118 50.5945 5.05118C50.955 5.06018 51.3425 5.08715 51.7301 5.1501C52.1356 5.16808 52.5592 5.27599 52.9827 5.50979C53.19 5.62668 53.4063 5.78854 53.5866 5.99535C53.7668 6.19318 53.92 6.44496 54.0192 6.69673C54.1273 6.94851 54.1634 7.20928 54.1543 7.45207C54.1453 7.69485 54.1093 7.91965 54.0552 8.12647C53.947 8.5491 53.8209 8.91778 53.7939 9.33142C53.5325 10.0868 53.0999 10.7162 52.7574 11.3906C52.3429 12.029 51.9013 12.6315 51.5498 13.2969C50.928 13.7825 50.6306 14.4929 50.3242 15.1673C50.243 15.3291 50.1619 15.491 50.0718 15.6528L50.0087 15.7697L49.9276 15.9046C49.8735 15.9945 49.8104 16.0845 49.7564 16.1744C49.513 16.5341 49.1976 16.8848 48.8101 17.1725L48.738 17.2354L48.6389 17.3074L48.4226 17.4513L48.3144 17.5232C48.2784 17.5412 48.2423 17.5861 48.1973 17.5771H47.9359H47.5574H47.278C46.9085 17.5771 46.539 17.5682 46.1695 17.5592C45.4305 17.6311 44.7005 17.4513 43.9795 17.5502C43.2586 17.6581 42.5466 17.4333 41.8346 17.5412C41.1227 17.6131 40.4287 17.6491 39.7348 17.5322C39.0409 17.5322 38.3649 17.3074 37.689 17.5142C37.0131 17.5592 36.3552 17.8469 35.6973 17.4962C35.0394 17.5861 34.3996 17.3254 33.7687 17.4782C33.1379 17.2265 32.516 17.4692 31.9032 17.4602C31.2903 17.4153 30.6865 17.3254 30.1007 17.4333C29.5149 17.5502 28.9381 17.3703 28.3704 17.4063L28.3163 17.4153L28.2262 17.4243C28.1631 17.4333 28.1 17.4333 28.046 17.4333C27.9829 17.4333 27.9198 17.4333 27.8567 17.4333C27.8207 17.4423 27.8026 17.4063 27.7756 17.3973L27.7035 17.3433C27.6044 17.2714 27.5052 17.1995 27.4151 17.1275L27.352 17.0736L27.3069 17.0286L27.2168 16.9387C27.0005 16.6869 26.8293 16.4262 26.586 16.2283C26.5049 16.1024 26.4237 15.9766 26.3426 15.8507C26.2705 15.7338 26.1985 15.6169 26.1354 15.5C26.0092 15.2842 25.874 15.0684 25.7659 14.8435C25.2071 14.6098 25.2251 14.0073 24.9818 13.5937C24.7565 13.162 24.2608 12.9192 24.2338 12.3977C23.7651 12.1549 23.7201 11.6514 23.5579 11.2467C23.4047 10.8421 23.0352 10.5633 22.9811 10.1317C22.6296 9.85296 22.7287 9.37637 22.5395 9.04367C22.5215 8.64801 22.3142 8.33329 22.2962 7.96462C22.206 7.61393 22.2331 7.22727 22.4043 6.91255C22.5215 6.57984 22.7468 6.31008 22.9811 6.13923C23.3416 5.87846 23.7111 5.78854 24.0085 5.73459C24.3059 5.68064 24.5672 5.68063 24.7655 5.68063C25.1801 5.71659 25.3783 5.77055 25.3783 5.81552Z" fill="#202020"/>
</svg>
