<svg width="36" height="36" viewBox="0 0 36 36" fill="none" xmlns="http://www.w3.org/2000/svg">
<rect width="36" height="36" rx="18" fill="#AFE087"/>
<path d="M28 25.7138C28 26.9761 26.9761 28 25.7138 28H10.2862C9.02385 28 8 26.9761 8 25.7138V10.2862C8 9.02385 9.02385 8 10.2862 8H25.7138C26.9761 8 28 9.02385 28 10.2862V25.7138Z" fill="#959738"/>
<path d="M23.1624 14.6612C23.1316 11.9556 20.9194 9.76196 18.2056 9.76196C15.4733 9.76196 13.2488 11.9844 13.2488 14.7188C13.2488 14.9799 13.4605 15.1916 13.7216 15.1916H22.6896C22.6916 15.1916 22.6916 15.1916 22.6937 15.1916C22.9548 15.1916 23.1665 14.9799 23.1665 14.7188C23.1665 14.6982 23.1645 14.6797 23.1624 14.6612Z" fill="white"/>
<path d="M18.9375 15.0991C18.9313 14.6365 18.553 14.2603 18.0904 14.2603C17.6238 14.2603 17.2434 14.6406 17.2434 15.1073C17.2434 15.1525 17.2784 15.1875 17.3236 15.1875H18.8573C18.9025 15.1875 18.9375 15.1525 18.9375 15.1073C18.9375 15.1052 18.9375 15.1032 18.9375 15.0991Z" fill="#451613"/>
<path d="M14.4536 14.69H13.8841C13.7792 14.69 13.6929 14.6057 13.6929 14.4988C13.6929 14.394 13.7772 14.3076 13.8841 14.3076H14.4536C14.5584 14.3076 14.6448 14.3919 14.6448 14.4988C14.6448 14.6057 14.5605 14.69 14.4536 14.69Z" fill="#451613"/>
<path d="M15.5432 12.1633C15.4938 12.1633 15.4465 12.1448 15.4095 12.1078L15.0333 11.7316C14.9593 11.6576 14.9593 11.5363 15.0333 11.4622C15.1073 11.3882 15.2286 11.3882 15.3026 11.4622L15.6788 11.8385C15.7529 11.9125 15.7529 12.0338 15.6788 12.1078C15.6418 12.1448 15.5925 12.1633 15.5432 12.1633Z" fill="#451613"/>
<path d="M18.261 11.0757C18.1562 11.0757 18.0698 10.9893 18.0698 10.8845V10.315C18.0698 10.2101 18.1541 10.1238 18.261 10.1238C18.3659 10.1238 18.4522 10.2081 18.4522 10.315V10.8845C18.4502 10.9914 18.3659 11.0757 18.261 11.0757Z" fill="#451613"/>
<path d="M16.8178 11.3245C16.7417 11.3245 16.6718 11.2792 16.641 11.2052L16.4395 10.7077C16.4004 10.6111 16.4477 10.498 16.5444 10.4589C16.641 10.4199 16.7541 10.4651 16.7931 10.5638L16.9946 11.0613C17.0337 11.1579 16.9864 11.269 16.8897 11.3101C16.8671 11.3204 16.8425 11.3245 16.8178 11.3245Z" fill="#451613"/>
<path d="M14.7865 13.2672C14.7639 13.2672 14.7393 13.2631 14.7166 13.2528L14.2068 13.0493C14.1081 13.0103 14.0608 12.8992 14.0999 12.8026C14.1389 12.7039 14.25 12.6566 14.3466 12.6957L14.8564 12.8992C14.9531 12.9383 15.0024 13.0493 14.9634 13.148C14.9346 13.222 14.8626 13.2672 14.7865 13.2672Z" fill="#451613"/>
<path d="M22.6362 14.7579H22.0667C21.9618 14.7579 21.8755 14.6736 21.8755 14.5667C21.8755 14.4618 21.9618 14.3755 22.0667 14.3755H22.6362C22.741 14.3755 22.8274 14.4618 22.8274 14.5667C22.8253 14.6736 22.741 14.7579 22.6362 14.7579Z" fill="#451613"/>
<path d="M20.9771 12.2311C20.9277 12.2311 20.8805 12.2126 20.8414 12.1756C20.7674 12.1015 20.7674 11.9802 20.8414 11.9062L21.2176 11.53C21.2916 11.456 21.4129 11.456 21.487 11.53C21.561 11.604 21.561 11.7253 21.487 11.7993L21.1107 12.1756C21.0758 12.2126 21.0264 12.2311 20.9771 12.2311Z" fill="#451613"/>
<path d="M19.7022 11.3923C19.6776 11.3923 19.655 11.3882 19.6303 11.3779C19.5337 11.3389 19.4864 11.2279 19.5254 11.1292L19.7269 10.6316C19.766 10.535 19.877 10.4877 19.9757 10.5268C20.0723 10.5658 20.1196 10.6769 20.0805 10.7755L19.8791 11.2731C19.8503 11.3491 19.7783 11.3923 19.7022 11.3923Z" fill="#451613"/>
<path d="M21.7335 13.3351C21.6574 13.3351 21.5854 13.2899 21.5567 13.2159C21.5176 13.1172 21.5649 13.0082 21.6636 12.9692L22.1734 12.7656C22.2701 12.7266 22.3811 12.7739 22.4222 12.8725C22.4613 12.9692 22.414 13.0802 22.3153 13.1193L21.8054 13.3228C21.7808 13.331 21.7561 13.3351 21.7335 13.3351Z" fill="#451613"/>
<path d="M18.0472 14.435L16.0344 12.3421C15.9645 12.2701 15.8515 12.2639 15.7754 12.3277C15.6993 12.3914 15.6849 12.5045 15.7425 12.5847L17.4633 14.9901C17.4962 15.0374 17.5497 15.0662 17.6052 15.0703C17.6093 15.0703 17.6134 15.0703 17.6175 15.0703C17.671 15.0703 17.7203 15.0477 17.7573 15.0086L18.0472 14.6961C18.1171 14.6241 18.1171 14.509 18.0472 14.435Z" fill="#451613"/>
</svg>
