<svg width="16" height="8" viewBox="0 0 16 8" fill="none" xmlns="http://www.w3.org/2000/svg">
<path d="M11.4897 7.23192L11.2983 7.69386L11.4897 7.23192ZM10.6666 5.00008H11.1666C11.1666 4.72394 10.9427 4.50008 10.6666 4.50008V5.00008ZM10.7681 6.51033L10.3061 6.70167L10.7681 6.51033ZM14.5651 6.51033L15.027 6.70167L14.5651 6.51033ZM13.8435 7.23192L13.6522 6.76998L13.8435 7.23192ZM13.8435 0.768242L13.6522 1.23018V1.23018L13.8435 0.768242ZM14.5651 1.48984L15.027 1.2985V1.2985L14.5651 1.48984ZM11.4897 0.768242L11.2983 0.306302V0.306302L11.4897 0.768242ZM10.6666 3.00008V3.50008C10.9427 3.50008 11.1666 3.27622 11.1666 3.00008H10.6666ZM10.7681 1.48984L10.3061 1.2985V1.2985L10.7681 1.48984ZM2.15634 7.23192L1.965 7.69386H1.965L2.15634 7.23192ZM1.43475 6.51033L0.972806 6.70167L0.972806 6.70167L1.43475 6.51033ZM5.33325 5.00008V4.50008C5.05711 4.50008 4.83325 4.72394 4.83325 5.00008H5.33325ZM5.23176 6.51033L5.6937 6.70167L5.23176 6.51033ZM4.51016 7.23192L4.7015 7.69386H4.7015L4.51016 7.23192ZM4.51016 0.768242L4.7015 0.306302L4.7015 0.306302L4.51016 0.768242ZM5.33325 3.00008H4.83325C4.83325 3.27622 5.05711 3.50008 5.33325 3.50008V3.00008ZM5.23176 1.48984L5.6937 1.2985V1.2985L5.23176 1.48984ZM2.15634 0.768242L1.965 0.306302L2.15634 0.768242ZM1.43475 1.48984L0.972806 1.29849L1.43475 1.48984ZM14.1666 2.66675V5.33341H15.1666V2.66675H14.1666ZM12.6666 6.83341C12.3491 6.83341 12.1361 6.83314 11.9711 6.82189C11.8106 6.81094 11.7325 6.79129 11.681 6.76998L11.2983 7.69386C11.4919 7.77405 11.6916 7.80514 11.903 7.81957C12.1099 7.83368 12.3628 7.83341 12.6666 7.83341V6.83341ZM10.1666 5.00008C10.1666 5.30741 10.1665 5.63641 10.1798 5.91982C10.1865 6.06195 10.1969 6.20104 10.214 6.32598C10.2301 6.4437 10.256 6.58051 10.3061 6.70167L11.23 6.31898C11.2313 6.32198 11.2276 6.31362 11.2219 6.28859C11.2164 6.2647 11.2105 6.23243 11.2048 6.1907C11.1933 6.10657 11.1847 5.99991 11.1787 5.87276C11.1667 5.61761 11.1666 5.314 11.1666 5.00008H10.1666ZM11.681 6.76998C11.4768 6.6854 11.3146 6.52317 11.23 6.31898L10.3061 6.70167C10.4922 7.15089 10.8491 7.50779 11.2983 7.69386L11.681 6.76998ZM14.1666 5.33341C14.1666 5.65088 14.1663 5.86394 14.1551 6.02892C14.1441 6.1894 14.1245 6.26755 14.1032 6.31898L15.027 6.70167C15.1072 6.50807 15.1383 6.30839 15.1527 6.09699C15.1669 5.89008 15.1666 5.6372 15.1666 5.33341H14.1666ZM12.6666 7.83341C12.9704 7.83341 13.2233 7.83368 13.4302 7.81957C13.6416 7.80514 13.8412 7.77405 14.0348 7.69386L13.6522 6.76998C13.6007 6.79129 13.5226 6.81094 13.3621 6.82189C13.1971 6.83314 12.9841 6.83341 12.6666 6.83341V7.83341ZM14.1032 6.31898C14.0186 6.52317 13.8563 6.6854 13.6522 6.76998L14.0348 7.69386C14.4841 7.50779 14.841 7.15088 15.027 6.70167L14.1032 6.31898ZM12.6666 1.16675C12.9841 1.16675 13.1971 1.16702 13.3621 1.17828C13.5226 1.18922 13.6007 1.20888 13.6522 1.23018L14.0348 0.306302C13.8412 0.226113 13.6416 0.195018 13.4302 0.180595C13.2233 0.166477 12.9704 0.166748 12.6666 0.166748V1.16675ZM15.1666 2.66675C15.1666 2.36296 15.1669 2.11008 15.1527 1.90317C15.1383 1.69177 15.1072 1.49209 15.027 1.2985L14.1032 1.68118C14.1245 1.73261 14.1441 1.81076 14.1551 1.97124C14.1663 2.13622 14.1666 2.34928 14.1666 2.66675H15.1666ZM13.6522 1.23018C13.8563 1.31476 14.0186 1.47699 14.1032 1.68118L15.027 1.2985C14.841 0.849277 14.4841 0.492375 14.0348 0.306302L13.6522 1.23018ZM12.6666 0.166748C12.3628 0.166748 12.1099 0.166477 11.903 0.180595C11.6916 0.195018 11.4919 0.226114 11.2983 0.306302L11.681 1.23018C11.7325 1.20888 11.8106 1.18922 11.9711 1.17828C12.1361 1.16702 12.3491 1.16675 12.6666 1.16675V0.166748ZM11.1666 3.00008C11.1666 2.68616 11.1667 2.38255 11.1787 2.1274C11.1847 2.00026 11.1933 1.89359 11.2048 1.80946C11.2105 1.76773 11.2164 1.73546 11.2219 1.71157C11.2276 1.68654 11.2313 1.67818 11.23 1.68118L10.3061 1.2985C10.256 1.41965 10.2301 1.55646 10.214 1.67418C10.1969 1.79912 10.1865 1.93821 10.1798 2.08034C10.1665 2.36375 10.1666 2.69275 10.1666 3.00008H11.1666ZM11.2983 0.306302C10.8491 0.492374 10.4922 0.849276 10.3061 1.2985L11.23 1.68118C11.3146 1.47699 11.4768 1.31476 11.681 1.23018L11.2983 0.306302ZM1.83325 5.33341V2.66675H0.833252V5.33341H1.83325ZM3.33325 6.83341C3.01578 6.83341 2.80272 6.83314 2.63775 6.82189C2.47726 6.81094 2.39912 6.79129 2.34768 6.76998L1.965 7.69386C2.15859 7.77405 2.35828 7.80514 2.56968 7.81957C2.77658 7.83368 3.02947 7.83341 3.33325 7.83341V6.83341ZM0.833252 5.33341C0.833252 5.6372 0.832981 5.89008 0.847098 6.09699C0.861522 6.30839 0.892617 6.50807 0.972806 6.70167L1.89669 6.31898C1.87538 6.26755 1.85573 6.1894 1.84478 6.02892C1.83352 5.86394 1.83325 5.65088 1.83325 5.33341H0.833252ZM2.34768 6.76998C2.14349 6.6854 1.98126 6.52317 1.89669 6.31898L0.972806 6.70167C1.15888 7.15088 1.51578 7.50779 1.965 7.69386L2.34768 6.76998ZM4.83325 5.00008C4.83325 5.314 4.83314 5.61761 4.82112 5.87276C4.81513 5.99991 4.80652 6.10657 4.79503 6.1907C4.78933 6.23243 4.78345 6.2647 4.77796 6.28859C4.77221 6.31362 4.76858 6.32198 4.76982 6.31898L5.6937 6.70167C5.74388 6.58051 5.76976 6.4437 5.78584 6.32598C5.8029 6.20104 5.81331 6.06195 5.82001 5.91982C5.83336 5.63641 5.83325 5.30741 5.83325 5.00008H4.83325ZM3.33325 7.83341C3.63704 7.83341 3.88992 7.83368 4.09683 7.81957C4.30823 7.80514 4.50791 7.77405 4.7015 7.69386L4.31882 6.76998C4.26739 6.79129 4.18924 6.81094 4.02876 6.82189C3.86378 6.83314 3.65072 6.83341 3.33325 6.83341V7.83341ZM4.76982 6.31898C4.68524 6.52317 4.52301 6.6854 4.31882 6.76998L4.7015 7.69386C5.15072 7.50779 5.50763 7.15089 5.6937 6.70167L4.76982 6.31898ZM3.33325 1.16675C3.65072 1.16675 3.86378 1.16702 4.02876 1.17828C4.18924 1.18922 4.26739 1.20888 4.31882 1.23018L4.7015 0.306302C4.50791 0.226114 4.30823 0.195018 4.09683 0.180595C3.88992 0.166477 3.63704 0.166748 3.33325 0.166748V1.16675ZM5.83325 3.00008C5.83325 2.69275 5.83336 2.36375 5.82001 2.08034C5.81331 1.93821 5.8029 1.79912 5.78584 1.67418C5.76976 1.55646 5.74388 1.41965 5.6937 1.2985L4.76982 1.68118C4.76858 1.67818 4.77221 1.68654 4.77796 1.71157C4.78345 1.73546 4.78933 1.76773 4.79503 1.80946C4.80652 1.89359 4.81513 2.00026 4.82112 2.1274C4.83314 2.38255 4.83325 2.68616 4.83325 3.00008H5.83325ZM4.31882 1.23018C4.52301 1.31476 4.68524 1.47699 4.76982 1.68118L5.6937 1.2985C5.50763 0.849277 5.15072 0.492374 4.7015 0.306302L4.31882 1.23018ZM3.33325 0.166748C3.02947 0.166748 2.77658 0.166477 2.56968 0.180595C2.35828 0.195018 2.15859 0.226114 1.965 0.306302L2.34768 1.23018C2.39912 1.20888 2.47726 1.18922 2.63775 1.17828C2.80272 1.16702 3.01578 1.16675 3.33325 1.16675V0.166748ZM1.83325 2.66675C1.83325 2.34928 1.83352 2.13622 1.84478 1.97124C1.85573 1.81076 1.87538 1.73261 1.89669 1.68118L0.972806 1.29849C0.892617 1.49209 0.861522 1.69177 0.847098 1.90317C0.832981 2.11008 0.833252 2.36296 0.833252 2.66675H1.83325ZM1.965 0.306302C1.51578 0.492374 1.15888 0.849277 0.972806 1.29849L1.89669 1.68118C1.98126 1.47699 2.14349 1.31476 2.34768 1.23018L1.965 0.306302ZM5.33325 3.50008H10.6666V2.50008H5.33325V3.50008ZM10.6666 4.50008H5.33325V5.50008H10.6666V4.50008Z" fill="#87CEDD"/>
</svg>
