<svg width="47" height="48" viewBox="0 0 47 48" fill="none" xmlns="http://www.w3.org/2000/svg">
<rect width="47" height="48" rx="23.5" fill="#87CEDD"/>
<path d="M15.4244 30.6073L15.9548 30.077L15.4244 30.6073ZM16.8927 32.0756L16.3624 32.6059L16.8927 32.0756ZM20.5634 32.0756L20.0331 32.6059H20.0331L20.5634 32.0756ZM21.2976 32.8097L21.8279 32.2794L21.8279 32.2794L21.2976 32.8097ZM26.1055 31.3774L25.3811 31.1833L25.3811 31.1833L26.1055 31.3774ZM26.1055 30.5713L25.3811 30.7654L26.1055 30.5713ZM23.536 33.9469L23.3419 33.2225H23.3419L23.536 33.9469ZM22.7299 33.9469L22.924 33.2225L22.7299 33.9469ZM13.5531 23.964L14.2775 24.1581V24.1581L13.5531 23.964ZM14.6903 26.2024L14.16 26.7328L14.6903 26.2024ZM13.5531 24.7701L12.8286 24.9643L13.5531 24.7701ZM16.1226 21.3945L16.3167 22.1189H16.3167L16.1226 21.3945ZM16.9287 21.3945L17.1228 20.6701V20.6701L16.9287 21.3945ZM31.5756 21.0634L31.0452 21.5938L31.5756 21.0634ZM32.3097 21.7976L32.84 21.2672L32.3097 21.7976ZM30.8774 26.6055L30.6833 25.8811H30.6833L30.8774 26.6055ZM30.0713 26.6055L30.2654 25.8811L30.2654 25.8811L30.0713 26.6055ZM33.4469 24.036L32.7225 23.8419L32.7225 23.8419L33.4469 24.036ZM33.4469 23.2299L32.7225 23.424L32.7225 23.424L33.4469 23.2299ZM23.464 14.0531L23.2699 13.3286V13.3286L23.464 14.0531ZM25.7024 15.1903L25.1721 15.7206L25.7024 15.1903ZM24.2701 14.0531L24.076 14.7775V14.7775L24.2701 14.0531ZM20.8945 16.6226L20.1701 16.4285V16.4285L20.8945 16.6226ZM20.8945 17.4287L21.6189 17.2346V17.2346L20.8945 17.4287ZM18.5243 28.9757C18.8171 29.2686 18.8171 29.7435 18.5243 30.0364C18.2314 30.3293 17.7565 30.3293 17.4636 30.0364L18.5243 28.9757ZM29.5364 17.9636C29.8293 18.2565 29.8293 18.7314 29.5364 19.0243C29.2435 19.3171 28.7686 19.3171 28.4757 19.0243L29.5364 17.9636ZM23.1329 19.9622L23.6633 19.4319L23.1329 19.9622ZM15.9548 30.077L17.423 31.5452L16.3624 32.6059L14.8941 31.1376L15.9548 30.077ZM31.0452 17.923L29.577 16.4548L30.6376 15.3941L32.1059 16.8624L31.0452 17.923ZM31.0452 19.799C31.4063 19.4379 31.6226 19.2193 31.758 19.0419C31.8203 18.9603 31.846 18.9114 31.8567 18.8858C31.8649 18.8663 31.8638 18.8618 31.8638 18.861L33.3638 18.861C33.3638 19.3059 33.1745 19.6583 32.9505 19.9518C32.7398 20.228 32.437 20.5285 32.1059 20.8596L31.0452 19.799ZM32.1059 16.8624C32.437 17.1935 32.7398 17.494 32.9505 17.7702C33.1745 18.0637 33.3638 18.4161 33.3638 18.861L31.8638 18.861C31.8638 18.8602 31.8649 18.8557 31.8567 18.8362C31.846 18.8106 31.8203 18.7617 31.758 18.6801C31.6226 18.5027 31.4063 18.2841 31.0452 17.923L32.1059 16.8624ZM17.423 31.5452C17.7841 31.9063 18.0027 32.1226 18.1801 32.258C18.2617 32.3203 18.3106 32.346 18.3362 32.3567C18.3557 32.3649 18.3602 32.3638 18.361 32.3638L18.361 33.8638C17.9161 33.8638 17.5637 33.6745 17.2702 33.4505C16.994 33.2398 16.6935 32.937 16.3624 32.6059L17.423 31.5452ZM20.3596 32.6059C20.0285 32.937 19.728 33.2398 19.4518 33.4505C19.1583 33.6745 18.8059 33.8638 18.361 33.8638L18.361 32.3638C18.3618 32.3638 18.3663 32.3649 18.3858 32.3567C18.4114 32.346 18.4603 32.3203 18.5419 32.258C18.7193 32.1226 18.9379 31.9063 19.299 31.5452L20.3596 32.6059ZM15.9548 28.201C15.5937 28.5621 15.3774 28.7807 15.242 28.9581C15.1797 29.0397 15.154 29.0886 15.1433 29.1142C15.1351 29.1337 15.1362 29.1382 15.1362 29.139L13.6362 29.139C13.6362 28.6941 13.8255 28.3417 14.0495 28.0482C14.2602 27.772 14.563 27.4715 14.8941 27.1404L15.9548 28.201ZM14.8941 31.1376C14.563 30.8065 14.2602 30.506 14.0495 30.2298C13.8255 29.9363 13.6362 29.5839 13.6362 29.139L15.1362 29.139C15.1362 29.1398 15.1351 29.1443 15.1433 29.1638C15.154 29.1894 15.1797 29.2383 15.242 29.3199C15.3774 29.4973 15.5937 29.7159 15.9548 30.077L14.8941 31.1376ZM26.6404 15.3941C26.9715 15.063 27.272 14.7602 27.5482 14.5495C27.8417 14.3255 28.1941 14.1362 28.639 14.1362L28.639 15.6362C28.6382 15.6362 28.6337 15.6351 28.6142 15.6433C28.5886 15.654 28.5397 15.6797 28.4581 15.742C28.2807 15.8774 28.0621 16.0937 27.701 16.4548L26.6404 15.3941ZM29.577 16.4548C29.2159 16.0937 28.9973 15.8774 28.8199 15.742C28.7383 15.6797 28.6894 15.654 28.6638 15.6433C28.6443 15.6351 28.6398 15.6362 28.639 15.6362L28.639 14.1362C29.0839 14.1362 29.4363 14.3255 29.7298 14.5495C30.006 14.7602 30.3065 15.063 30.6376 15.3941L29.577 16.4548ZM21.0938 31.5452L21.8279 32.2794L20.7672 33.34L20.0331 32.6059L21.0938 31.5452ZM24.438 32.2794C24.7908 31.9266 25.0194 31.6969 25.1777 31.5071C25.3292 31.3253 25.3669 31.2363 25.3811 31.1833L26.8299 31.5715C26.7361 31.9216 26.5482 32.2057 26.3297 32.4677C26.1179 32.7218 25.8319 33.0067 25.4986 33.34L24.438 32.2794ZM25.4986 28.6087C25.8319 28.942 26.1179 29.2269 26.3297 29.481C26.5482 29.743 26.7361 30.0271 26.8299 30.3772L25.3811 30.7654C25.3669 30.7124 25.3292 30.6234 25.1777 30.4416C25.0194 30.2518 24.7908 30.0222 24.438 29.6693L25.4986 28.6087ZM25.3811 31.1833C25.4177 31.0464 25.4177 30.9023 25.3811 30.7654L26.8299 30.3772C26.9348 30.7684 26.9348 31.1803 26.8299 31.5715L25.3811 31.1833ZM25.4986 33.34C25.1653 33.6734 24.8804 33.9593 24.6263 34.1712C24.3643 34.3896 24.0802 34.5776 23.7301 34.6714L23.3419 33.2225C23.3949 33.2083 23.4839 33.1707 23.6657 33.0191C23.8555 32.8609 24.0851 32.6322 24.438 32.2794L25.4986 33.34ZM21.8279 32.2794C22.1807 32.6322 22.4104 32.8609 22.6002 33.0191C22.782 33.1707 22.871 33.2083 22.924 33.2225L22.5357 34.6714C22.1857 34.5776 21.9016 34.3896 21.6396 34.1712C21.3855 33.9593 21.1006 33.6734 20.7672 33.34L21.8279 32.2794ZM23.7301 34.6714C23.3389 34.7762 22.927 34.7762 22.5357 34.6714L22.924 33.2225C23.0609 33.2592 23.205 33.2592 23.3419 33.2225L23.7301 34.6714ZM15.2206 23.062C14.8678 23.4149 14.6391 23.6445 14.4809 23.8343C14.3293 24.0161 14.2917 24.1051 14.2775 24.1581L12.8286 23.7699C12.9224 23.4198 13.1103 23.1357 13.3288 22.8737C13.5407 22.6196 13.8266 22.3347 14.16 22.0014L15.2206 23.062ZM14.16 26.7328C13.8266 26.3994 13.5407 26.1145 13.3288 25.8604C13.1104 25.5984 12.9224 25.3143 12.8286 24.9643L14.2775 24.576C14.2917 24.629 14.3293 24.718 14.4809 24.8998C14.6391 25.0896 14.8678 25.3193 15.2206 25.6721L14.16 26.7328ZM14.2775 24.1581C14.2408 24.295 14.2408 24.4391 14.2775 24.576L12.8286 24.9643C12.7238 24.573 12.7238 24.1611 12.8286 23.7699L14.2775 24.1581ZM14.16 22.0014C14.4933 21.6681 14.7782 21.3821 15.0323 21.1703C15.2943 20.9518 15.5784 20.7639 15.9285 20.6701L16.3167 22.1189C16.2637 22.1331 16.1747 22.1708 15.9929 22.3223C15.8031 22.4806 15.5734 22.7092 15.2206 23.062L14.16 22.0014ZM17.8307 23.062C17.4778 22.7092 17.2482 22.4806 17.0584 22.3223C16.8766 22.1708 16.7876 22.1331 16.7346 22.1189L17.1228 20.6701C17.4729 20.7639 17.757 20.9518 18.019 21.1703C18.2731 21.3821 18.558 21.6681 18.8913 22.0014L17.8307 23.062ZM15.9285 20.6701C16.3197 20.5652 16.7316 20.5652 17.1228 20.6701L16.7346 22.1189C16.5977 22.0823 16.4536 22.0823 16.3167 22.1189L15.9285 20.6701ZM32.1059 20.5331L32.84 21.2672L31.7794 22.3279L31.0452 21.5938L32.1059 20.5331ZM32.84 25.9986C32.5067 26.3319 32.2218 26.6179 31.9677 26.8297C31.7057 27.0482 31.4216 27.2361 31.0715 27.3299L30.6833 25.8811C30.7363 25.8669 30.8253 25.8292 31.0071 25.6777C31.1969 25.5194 31.4266 25.2908 31.7794 24.938L32.84 25.9986ZM29.1693 24.938C29.5222 25.2908 29.7518 25.5194 29.9416 25.6777C30.1234 25.8292 30.2124 25.8669 30.2654 25.8811L29.8772 27.3299C29.5271 27.2361 29.243 27.0482 28.981 26.8297C28.7269 26.6179 28.442 26.3319 28.1087 25.9986L29.1693 24.938ZM31.0715 27.3299C30.6803 27.4348 30.2684 27.4348 29.8772 27.3299L30.2654 25.8811C30.4023 25.9177 30.5464 25.9177 30.6833 25.8811L31.0715 27.3299ZM31.7794 24.938C32.1322 24.5851 32.3609 24.3555 32.5191 24.1657C32.6707 23.9839 32.7083 23.8949 32.7225 23.8419L34.1714 24.2301C34.0776 24.5802 33.8896 24.8643 33.6712 25.1263C33.4593 25.3804 33.1734 25.6653 32.84 25.9986L31.7794 24.938ZM32.84 21.2672C33.1734 21.6006 33.4593 21.8855 33.6712 22.1396C33.8896 22.4016 34.0776 22.6857 34.1714 23.0357L32.7225 23.424C32.7083 23.371 32.6707 23.282 32.5191 23.1002C32.3609 22.9104 32.1322 22.6807 31.7794 22.3279L32.84 21.2672ZM32.7225 23.8419C32.7592 23.705 32.7592 23.5609 32.7225 23.424L34.1714 23.0357C34.2762 23.427 34.2762 23.8389 34.1714 24.2301L32.7225 23.8419ZM21.5014 14.66C21.8347 14.3266 22.1196 14.0407 22.3737 13.8288C22.6357 13.6104 22.9198 13.4224 23.2699 13.3286L23.6581 14.7775C23.6051 14.7917 23.5161 14.8293 23.3343 14.9809C23.1445 15.1391 22.9149 15.3678 22.562 15.7206L21.5014 14.66ZM25.1721 15.7206C24.8193 15.3678 24.5896 15.1391 24.3998 14.9809C24.218 14.8293 24.129 14.7917 24.076 14.7775L24.4643 13.3286C24.8143 13.4224 25.0984 13.6104 25.3604 13.8288C25.6145 14.0407 25.8994 14.3266 26.2328 14.66L25.1721 15.7206ZM23.2699 13.3286C23.6611 13.2238 24.073 13.2238 24.4643 13.3286L24.076 14.7775C23.9391 14.7408 23.795 14.7408 23.6581 14.7775L23.2699 13.3286ZM22.562 15.7206C22.2092 16.0734 21.9806 16.3031 21.8223 16.4929C21.6708 16.6747 21.6331 16.7637 21.6189 16.8167L20.1701 16.4285C20.2639 16.0784 20.4518 15.7943 20.6703 15.5323C20.8821 15.2782 21.1681 14.9933 21.5014 14.66L22.562 15.7206ZM21.5014 19.3913C21.1681 19.058 20.8821 18.7731 20.6703 18.519C20.4518 18.257 20.2639 17.9729 20.1701 17.6228L21.6189 17.2346C21.6331 17.2876 21.6708 17.3766 21.8223 17.5584C21.9806 17.7482 22.2092 17.9778 22.562 18.3307L21.5014 19.3913ZM21.6189 16.8167C21.5823 16.9536 21.5823 17.0977 21.6189 17.2346L20.1701 17.6228C20.0652 17.2316 20.0652 16.8197 20.1701 16.4285L21.6189 16.8167ZM15.2206 25.6721L18.5243 28.9757L17.4636 30.0364L14.16 26.7328L15.2206 25.6721ZM26.2328 14.66L29.5364 17.9636L28.4757 19.0243L25.1721 15.7206L26.2328 14.66ZM24.438 29.6693L23.3367 28.5681L24.3974 27.5075L25.4986 28.6087L24.438 29.6693ZM23.3367 27.5075L27.0075 23.8367L28.0681 24.8974L24.3974 28.5681L23.3367 27.5075ZM28.1087 25.9986L27.0075 24.8974L28.0681 23.8367L29.1693 24.938L28.1087 25.9986ZM23.3367 28.5681L18.9319 24.1633L19.9925 23.1026L24.3974 27.5075L23.3367 28.5681ZM18.9319 24.1633L17.8307 23.062L18.8913 22.0014L19.9925 23.1026L18.9319 24.1633ZM23.6633 20.4925L19.9925 24.1633L18.9319 23.1026L22.6026 19.4319L23.6633 20.4925ZM27.0075 24.8974L22.6026 20.4925L23.6633 19.4319L28.0681 23.8367L27.0075 24.8974ZM22.6026 20.4925L21.5014 19.3913L22.562 18.3307L23.6633 19.4319L22.6026 20.4925ZM31.0452 21.5938C30.5496 21.0981 30.5496 20.2946 31.0452 19.799L32.1059 20.8596C32.1961 20.7694 32.1961 20.6233 32.1059 20.5331L31.0452 21.5938ZM20.0331 32.6059C20.1233 32.6961 20.2694 32.6961 20.3596 32.6059L19.299 31.5452C19.7946 31.0496 20.5981 31.0496 21.0938 31.5452L20.0331 32.6059Z" fill="#202020"/>
</svg>
