<svg width="25" height="24" viewBox="0 0 25 24" fill="none" xmlns="http://www.w3.org/2000/svg">
<path d="M4.42443 18.6073L4.95475 18.077L4.42443 18.6073ZM5.89271 20.0756L5.36238 20.6059L5.89271 20.0756ZM9.56343 20.0756L9.0331 20.6059H9.0331L9.56343 20.0756ZM10.2976 20.8097L10.8279 20.2794L10.8279 20.2794L10.2976 20.8097ZM15.1055 19.3774L14.3811 19.1833L14.3811 19.1833L15.1055 19.3774ZM15.1055 18.5713L14.3811 18.7654L15.1055 18.5713ZM12.536 21.9469L12.3419 21.2225H12.3419L12.536 21.9469ZM11.7299 21.9469L11.924 21.2225L11.7299 21.9469ZM2.55306 11.964L3.27751 12.1581V12.1581L2.55306 11.964ZM3.69028 14.2024L3.15995 14.7328L3.69028 14.2024ZM2.55306 12.7701L1.82862 12.9643L2.55306 12.7701ZM5.12257 9.3945L5.31668 10.1189H5.31668L5.12257 9.3945ZM5.92871 9.3945L6.12283 8.67005V8.67005L5.92871 9.3945ZM20.5756 9.06343L20.0452 9.59376L20.5756 9.06343ZM21.3097 9.79757L21.84 9.26724L21.3097 9.79757ZM19.8774 14.6055L19.6833 13.8811H19.6833L19.8774 14.6055ZM19.0713 14.6055L19.2654 13.8811L19.2654 13.8811L19.0713 14.6055ZM22.4469 12.036L21.7225 11.8419L21.7225 11.8419L22.4469 12.036ZM22.4469 11.2299L21.7225 11.424L21.7225 11.424L22.4469 11.2299ZM12.464 2.05307L12.2699 1.32862V1.32862L12.464 2.05307ZM14.7024 3.19028L14.1721 3.72061L14.7024 3.19028ZM13.2701 2.05307L13.076 2.77751V2.77751L13.2701 2.05307ZM9.8945 4.62257L9.17005 4.42845V4.42845L9.8945 4.62257ZM9.8945 5.42871L10.6189 5.2346V5.2346L9.8945 5.42871ZM7.52426 16.9757C7.81715 17.2686 7.81715 17.7435 7.52426 18.0364C7.23136 18.3293 6.75649 18.3293 6.4636 18.0364L7.52426 16.9757ZM18.5364 5.9636C18.8293 6.25649 18.8293 6.73136 18.5364 7.02426C18.2435 7.31715 17.7686 7.31715 17.4757 7.02426L18.5364 5.9636ZM12.1329 7.96221L12.6633 7.43188L12.1329 7.96221ZM4.95475 18.077L6.42304 19.5452L5.36238 20.6059L3.89409 19.1376L4.95475 18.077ZM20.0452 5.92304L18.577 4.45475L19.6376 3.39409L21.1059 4.86238L20.0452 5.92304ZM20.0452 7.79895C20.4063 7.43788 20.6226 7.2193 20.758 7.04192C20.8203 6.96028 20.846 6.9114 20.8567 6.88584C20.8649 6.86626 20.8638 6.86179 20.8638 6.861L22.3638 6.861C22.3638 7.30594 22.1745 7.65828 21.9505 7.95179C21.7398 8.22799 21.437 8.52853 21.1059 8.85961L20.0452 7.79895ZM21.1059 4.86238C21.437 5.19347 21.7398 5.49401 21.9505 5.77021C22.1745 6.06372 22.3638 6.41605 22.3638 6.861L20.8638 6.861C20.8638 6.8602 20.8649 6.85573 20.8567 6.83615C20.846 6.8106 20.8203 6.76171 20.758 6.68008C20.6226 6.50269 20.4063 6.28411 20.0452 5.92304L21.1059 4.86238ZM6.42304 19.5452C6.78411 19.9063 7.00269 20.1226 7.18008 20.258C7.26171 20.3203 7.3106 20.346 7.33615 20.3567C7.35573 20.3649 7.3602 20.3638 7.361 20.3638L7.361 21.8638C6.91605 21.8638 6.56372 21.6745 6.27021 21.4505C5.99401 21.2398 5.69347 20.937 5.36238 20.6059L6.42304 19.5452ZM9.35961 20.6059C9.02853 20.937 8.72799 21.2398 8.45179 21.4505C8.15828 21.6745 7.80594 21.8638 7.361 21.8638L7.361 20.3638C7.36179 20.3638 7.36626 20.3649 7.38584 20.3567C7.4114 20.346 7.46028 20.3203 7.54191 20.258C7.7193 20.1226 7.93788 19.9063 8.29895 19.5452L9.35961 20.6059ZM4.95475 16.201C4.59368 16.5621 4.37736 16.7807 4.24201 16.9581C4.17973 17.0397 4.15396 17.0886 4.1433 17.1142C4.13513 17.1337 4.13619 17.1382 4.13619 17.139L2.63619 17.139C2.63619 16.6941 2.82554 16.3417 3.04948 16.0482C3.26022 15.772 3.56301 15.4715 3.89409 15.1404L4.95475 16.201ZM3.89409 19.1376C3.56301 18.8065 3.26022 18.506 3.04948 18.2298C2.82554 17.9363 2.63619 17.5839 2.63619 17.139L4.13619 17.139C4.13619 17.1398 4.13513 17.1443 4.1433 17.1638C4.15396 17.1894 4.17973 17.2383 4.24201 17.3199C4.37736 17.4973 4.59368 17.7159 4.95475 18.077L3.89409 19.1376ZM15.6404 3.39409C15.9715 3.06301 16.272 2.76022 16.5482 2.54948C16.8417 2.32554 17.1941 2.13619 17.639 2.13619L17.639 3.63619C17.6382 3.63619 17.6337 3.63513 17.6142 3.6433C17.5886 3.65396 17.5397 3.67973 17.4581 3.74201C17.2807 3.87736 17.0621 4.09368 16.701 4.45475L15.6404 3.39409ZM18.577 4.45475C18.2159 4.09368 17.9973 3.87736 17.8199 3.74201C17.7383 3.67973 17.6894 3.65396 17.6638 3.6433C17.6443 3.63513 17.6398 3.63619 17.639 3.63619L17.639 2.13619C18.0839 2.13619 18.4363 2.32554 18.7298 2.54948C19.006 2.76022 19.3065 3.06301 19.6376 3.39409L18.577 4.45475ZM10.0938 19.5452L10.8279 20.2794L9.76724 21.34L9.0331 20.6059L10.0938 19.5452ZM13.438 20.2794C13.7908 19.9266 14.0194 19.6969 14.1777 19.5071C14.3292 19.3253 14.3669 19.2363 14.3811 19.1833L15.8299 19.5715C15.7361 19.9216 15.5482 20.2057 15.3297 20.4677C15.1179 20.7218 14.8319 21.0067 14.4986 21.34L13.438 20.2794ZM14.4986 16.6087C14.8319 16.942 15.1179 17.2269 15.3297 17.481C15.5482 17.743 15.7361 18.0271 15.8299 18.3772L14.3811 18.7654C14.3669 18.7124 14.3292 18.6234 14.1777 18.4416C14.0194 18.2518 13.7908 18.0222 13.438 17.6693L14.4986 16.6087ZM14.3811 19.1833C14.4177 19.0464 14.4177 18.9023 14.3811 18.7654L15.8299 18.3772C15.9348 18.7684 15.9348 19.1803 15.8299 19.5715L14.3811 19.1833ZM14.4986 21.34C14.1653 21.6734 13.8804 21.9593 13.6263 22.1712C13.3643 22.3896 13.0802 22.5776 12.7301 22.6714L12.3419 21.2225C12.3949 21.2083 12.4839 21.1707 12.6657 21.0191C12.8555 20.8609 13.0851 20.6322 13.438 20.2794L14.4986 21.34ZM10.8279 20.2794C11.1807 20.6322 11.4104 20.8609 11.6002 21.0191C11.782 21.1707 11.871 21.2083 11.924 21.2225L11.5357 22.6714C11.1857 22.5776 10.9016 22.3896 10.6396 22.1712C10.3855 21.9593 10.1006 21.6734 9.76724 21.34L10.8279 20.2794ZM12.7301 22.6714C12.3389 22.7762 11.927 22.7762 11.5357 22.6714L11.924 21.2225C12.0609 21.2592 12.205 21.2592 12.3419 21.2225L12.7301 22.6714ZM4.22061 11.062C3.86778 11.4149 3.63912 11.6445 3.48091 11.8343C3.32932 12.0161 3.29171 12.1051 3.27751 12.1581L1.82862 11.7699C1.92242 11.4198 2.11035 11.1357 2.32884 10.8737C2.54069 10.6196 2.82664 10.3347 3.15995 10.0014L4.22061 11.062ZM3.15995 14.7328C2.82664 14.3994 2.54069 14.1145 2.32884 13.8604C2.11035 13.5984 1.92242 13.3143 1.82862 12.9643L3.27751 12.576C3.29171 12.629 3.32932 12.718 3.48091 12.8998C3.63912 13.0896 3.86778 13.3193 4.22061 13.6721L3.15995 14.7328ZM3.27751 12.1581C3.24083 12.295 3.24083 12.4391 3.27751 12.576L1.82862 12.9643C1.72379 12.573 1.72379 12.1611 1.82862 11.7699L3.27751 12.1581ZM3.15995 10.0014C3.49326 9.66807 3.77819 9.38212 4.03228 9.17027C4.29432 8.95178 4.57838 8.76385 4.92845 8.67005L5.31668 10.1189C5.26368 10.1331 5.17467 10.1708 4.99287 10.3223C4.80312 10.4806 4.57344 10.7092 4.22061 11.062L3.15995 10.0014ZM6.83067 11.062C6.47784 10.7092 6.24816 10.4806 6.05841 10.3223C5.87661 10.1708 5.7876 10.1331 5.7346 10.1189L6.12283 8.67005C6.4729 8.76385 6.75696 8.95178 7.019 9.17027C7.27308 9.38212 7.55802 9.66807 7.89133 10.0014L6.83067 11.062ZM4.92845 8.67005C5.31968 8.56522 5.7316 8.56523 6.12283 8.67005L5.7346 10.1189C5.59771 10.0823 5.45357 10.0823 5.31668 10.1189L4.92845 8.67005ZM21.1059 8.5331L21.84 9.26724L20.7794 10.3279L20.0452 9.59376L21.1059 8.5331ZM21.84 13.9986C21.5067 14.3319 21.2218 14.6179 20.9677 14.8297C20.7057 15.0482 20.4216 15.2361 20.0715 15.3299L19.6833 13.8811C19.7363 13.8669 19.8253 13.8292 20.0071 13.6777C20.1969 13.5194 20.4266 13.2908 20.7794 12.938L21.84 13.9986ZM18.1693 12.938C18.5222 13.2908 18.7518 13.5194 18.9416 13.6777C19.1234 13.8292 19.2124 13.8669 19.2654 13.8811L18.8772 15.3299C18.5271 15.2361 18.243 15.0482 17.981 14.8297C17.7269 14.6179 17.442 14.3319 17.1087 13.9986L18.1693 12.938ZM20.0715 15.3299C19.6803 15.4348 19.2684 15.4348 18.8772 15.3299L19.2654 13.8811C19.4023 13.9177 19.5464 13.9177 19.6833 13.8811L20.0715 15.3299ZM20.7794 12.938C21.1322 12.5851 21.3609 12.3555 21.5191 12.1657C21.6707 11.9839 21.7083 11.8949 21.7225 11.8419L23.1714 12.2301C23.0776 12.5802 22.8896 12.8643 22.6712 13.1263C22.4593 13.3804 22.1734 13.6653 21.84 13.9986L20.7794 12.938ZM21.84 9.26724C22.1734 9.60055 22.4593 9.88548 22.6712 10.1396C22.8896 10.4016 23.0776 10.6857 23.1714 11.0357L21.7225 11.424C21.7083 11.371 21.6707 11.282 21.5191 11.1002C21.3609 10.9104 21.1322 10.6807 20.7794 10.3279L21.84 9.26724ZM21.7225 11.8419C21.7592 11.705 21.7592 11.5609 21.7225 11.424L23.1714 11.0357C23.2762 11.427 23.2762 11.8389 23.1714 12.2301L21.7225 11.8419ZM10.5014 2.65995C10.8347 2.32664 11.1196 2.04069 11.3737 1.82884C11.6357 1.61035 11.9198 1.42242 12.2699 1.32862L12.6581 2.77751C12.6051 2.79171 12.5161 2.82932 12.3343 2.98091C12.1445 3.13912 11.9149 3.36778 11.562 3.72061L10.5014 2.65995ZM14.1721 3.72061C13.8193 3.36778 13.5896 3.13912 13.3998 2.98091C13.218 2.82932 13.129 2.79171 13.076 2.77751L13.4643 1.32862C13.8143 1.42242 14.0984 1.61035 14.3604 1.82884C14.6145 2.04069 14.8994 2.32664 15.2328 2.65995L14.1721 3.72061ZM12.2699 1.32862C12.6611 1.22379 13.073 1.22379 13.4643 1.32862L13.076 2.77751C12.9391 2.74083 12.795 2.74083 12.6581 2.77751L12.2699 1.32862ZM11.562 3.72061C11.2092 4.07344 10.9806 4.30312 10.8223 4.49287C10.6708 4.67467 10.6331 4.76368 10.6189 4.81668L9.17005 4.42845C9.26385 4.07838 9.45178 3.79432 9.67027 3.53228C9.88212 3.27819 10.1681 2.99326 10.5014 2.65995L11.562 3.72061ZM10.5014 7.39133C10.1681 7.05802 9.88212 6.77308 9.67027 6.519C9.45178 6.25696 9.26386 5.9729 9.17005 5.62283L10.6189 5.2346C10.6331 5.2876 10.6708 5.37661 10.8223 5.55841C10.9806 5.74816 11.2092 5.97784 11.562 6.33067L10.5014 7.39133ZM10.6189 4.81668C10.5823 4.95357 10.5823 5.0977 10.6189 5.2346L9.17005 5.62283C9.06523 5.2316 9.06522 4.81968 9.17005 4.42845L10.6189 4.81668ZM4.22061 13.6721L7.52426 16.9757L6.4636 18.0364L3.15995 14.7328L4.22061 13.6721ZM15.2328 2.65995L18.5364 5.9636L17.4757 7.02426L14.1721 3.72061L15.2328 2.65995ZM13.438 17.6693L12.3367 16.5681L13.3974 15.5075L14.4986 16.6087L13.438 17.6693ZM12.3367 15.5075L16.0075 11.8367L17.0681 12.8974L13.3974 16.5681L12.3367 15.5075ZM17.1087 13.9986L16.0075 12.8974L17.0681 11.8367L18.1693 12.938L17.1087 13.9986ZM12.3367 16.5681L7.93188 12.1633L8.99254 11.1026L13.3974 15.5075L12.3367 16.5681ZM7.93188 12.1633L6.83067 11.062L7.89133 10.0014L8.99254 11.1026L7.93188 12.1633ZM12.6633 8.49254L8.99254 12.1633L7.93188 11.1026L11.6026 7.43188L12.6633 8.49254ZM16.0075 12.8974L11.6026 8.49254L12.6633 7.43188L17.0681 11.8367L16.0075 12.8974ZM11.6026 8.49254L10.5014 7.39133L11.562 6.33067L12.6633 7.43188L11.6026 8.49254ZM20.0452 9.59376C19.5496 9.09814 19.5496 8.29458 20.0452 7.79895L21.1059 8.85961C21.1961 8.76945 21.1961 8.62326 21.1059 8.5331L20.0452 9.59376ZM9.0331 20.6059C9.12326 20.6961 9.26945 20.6961 9.35961 20.6059L8.29895 19.5452C8.79457 19.0496 9.59814 19.0496 10.0938 19.5452L9.0331 20.6059Z" fill="#87CEDD"/>
</svg>
